<?xml version="1.0" encoding="UTF-8" standalone="no"?>
<!-- Created with Inkscape (http://www.inkscape.org/) -->
<svg xmlns:dc="http://purl.org/dc/elements/1.1/" xmlns:cc="http://creativecommons.org/ns#" xmlns:rdf="http://www.w3.org/1999/02/22-rdf-syntax-ns#" xmlns:svg="http://www.w3.org/2000/svg" xmlns="http://www.w3.org/2000/svg" version="1.1" width="588.32782" height="203.79207" id="svg2">
  <defs id="defs4"/>
  <g transform="translate(-100.8361,-736.89472)" id="layer1">
    <g transform="matrix(2.0684511,0,0,-2.0684511,100.19905,940.99921)" id="g3115">
      <g transform="scale(0.114792,0.114792)" id="g3117">
        <path d="m 2013.94,624.609 c 10.68,0 16.44,-5.761 16.44,-16.441 l 0,-12.059 c 0,-10.679 -5.76,-16.445 -16.44,-16.445 l -258.89,0 c -10.68,0 -16.44,5.766 -16.44,16.445 l 0,12.059 c 0,10.68 5.76,16.441 16.44,16.441 l 258.89,0" id="path3119" style="fill:#b0131d;fill-opacity:1;fill-rule:nonzero;stroke:none"/>
        <path d="m 2013.94,740 c 10.68,0 16.44,-5.762 16.44,-16.445 l 0,-12.055 c 0,-10.684 -5.76,-16.445 -16.44,-16.445 l -258.89,0 c -10.68,0 -16.44,5.761 -16.44,16.445 l 0,12.055 c 0,10.683 5.76,16.445 16.44,16.445 l 258.89,0" id="path3121" style="fill:#b0131d;fill-opacity:1;fill-rule:nonzero;stroke:none"/>
        <path d="m 2013.94,855.387 c 10.68,0 16.44,-5.762 16.44,-16.442 l 0,-12.058 c 0,-10.68 -5.76,-16.442 -16.44,-16.442 l -258.89,0 c -10.68,0 -16.44,5.762 -16.44,16.442 l 0,12.058 c 0,10.68 5.76,16.442 16.44,16.442 l 258.89,0" id="path3123" style="fill:#b0131d;fill-opacity:1;fill-rule:nonzero;stroke:none"/>
        <path d="m 2013.94,50.4727 c 10.68,0 16.44,-5.7618 16.44,-16.4414 l 0,-12.0586 c 0,-10.6797 -5.76,-16.44536 -16.44,-16.44536 l -258.89,0 c -10.68,0 -16.44,5.76566 -16.44,16.44536 l 0,12.0586 c 0,10.6796 5.76,16.4414 16.44,16.4414 l 258.89,0" id="path3125" style="fill:#b0131d;fill-opacity:1;fill-rule:nonzero;stroke:none"/>
        <path d="m 2013.94,165.863 c 10.68,0 16.44,-5.765 16.44,-16.445 l 0,-12.059 c 0,-10.679 -5.76,-16.441 -16.44,-16.441 l -258.89,0 c -10.68,0 -16.44,5.762 -16.44,16.441 l 0,12.059 c 0,10.68 5.76,16.445 16.44,16.445 l 258.89,0" id="path3127" style="fill:#b0131d;fill-opacity:1;fill-rule:nonzero;stroke:none"/>
        <path d="m 2272.34,442.621 -78.33,0 c -15.66,0 -23.09,-7.433 -23.09,-23.094 l 0,-161.57 -52.94,0.004 0,162.473 c 0,45.246 21.88,67.132 67.13,67.132 l 87.23,0 0,-44.945" id="path3129" style="fill:#545f6a;fill-opacity:1;fill-rule:nonzero;stroke:none"/>
        <path d="m 913.059,302.906 0.004,-44.945 -77.961,0 c -45.243,0 -67.129,21.887 -67.129,67.133 l 0,212.301 52.609,0.007 0,-49.836 86.125,0 0,-44.945 -86.125,0 0,-116.621 c 0,-15.66 7.434,-23.094 23.094,-23.094 l 69.383,0" id="path3131" style="fill:#545f6a;fill-opacity:1;fill-rule:nonzero;stroke:none"/>
        <path d="m 2476.25,302.906 0,-44.945 -77.96,0 c -45.24,0 -67.13,21.887 -67.13,67.133 l 0,212.301 52.61,0.007 0,-49.836 86.12,0 0,-44.945 -86.12,0 0,-116.621 c 0,-15.66 7.43,-23.094 23.09,-23.094 l 69.39,0" id="path3133" style="fill:#545f6a;fill-opacity:1;fill-rule:nonzero;stroke:none"/>
        <path d="m 1726.52,420.434 c 0,45.246 21.89,67.132 67.13,67.132 l 181.69,0 c 45.25,0 67.13,-21.886 67.13,-67.132 l 0,-95.34 c 0,-45.246 -21.88,-67.133 -67.13,-67.133 l -181.69,0 c -45.24,0 -67.13,21.887 -67.13,67.133 l 0,95.34 z m 75.7,22.187 c -15.66,0 -23.09,-7.433 -23.09,-23.094 l 0,-93.527 c 0,-15.66 7.43,-23.094 23.09,-23.094 l 164.55,0 c 15.66,0 23.09,7.434 23.09,23.094 l 0,93.527 c 0,15.661 -7.43,23.094 -23.09,23.094 l -164.55,0" id="path3135" style="fill:#545f6a;fill-opacity:1;fill-rule:evenodd;stroke:none"/>
        <path d="m 433.809,325.172 c 0,-15.66 7.433,-23.094 23.093,-23.094 l 181.235,0 0,58.231 -181.235,0 c -15.66,0 -23.093,-7.438 -23.093,-23.098 l 0,-12.039 z m 14.519,-67.211 c -45.242,0 -67.129,21.887 -67.129,67.133 l 0,12.195 c 0,45.246 21.887,67.133 67.129,67.133 l 189.809,0 0,15.933 c 0,15.661 -7.434,23.094 -23.094,23.094 l -183.496,0 -0.008,44.117 192.078,0 c 45.242,0 67.133,-21.886 67.133,-67.132 l 0,-162.473 -242.422,0" id="path3137" style="fill:#545f6a;fill-opacity:1;fill-rule:evenodd;stroke:none"/>
        <path d="m 1009.71,325.172 c 0,-15.66 7.44,-23.094 23.1,-23.094 l 181.23,0 0,58.231 -181.23,0 c -15.66,0 -23.1,-7.438 -23.1,-23.098 l 0,-12.039 z m 14.52,-67.211 c -45.238,0 -67.128,21.887 -67.128,67.133 l 0,12.195 c 0,45.246 21.89,67.133 67.128,67.133 l 189.81,0 0,15.933 c 0,15.661 -7.43,23.094 -23.09,23.094 l -183.5,0 0,44.117 192.07,0 c 45.25,0 67.13,-21.886 67.13,-67.132 l 0,-162.473 -242.42,0" id="path3139" style="fill:#545f6a;fill-opacity:1;fill-rule:evenodd;stroke:none"/>
        <path d="m 263.086,487.566 0,83.055 52.609,-0.004 0,-312.656 -241.6716,0 c -45.2421,0 -67.12887,21.891 -67.12887,67.133 l 0,95.34 c 0,45.246 21.88677,67.132 67.12887,67.132 l 189.0626,0 z m 0,-184.66 0,139.715 -180.4883,0 c -15.6602,0 -23.0938,-7.433 -23.0938,-23.094 l 0,-93.527 c 0,-15.66 7.4336,-23.094 23.0938,-23.094 l 180.4883,0" id="path3141" style="fill:#545f6a;fill-opacity:1;fill-rule:evenodd;stroke:none"/>
        <path d="m 1399.46,257.961 0,-86.957 -52.61,0.008 0,316.554 241.67,0 c 45.24,0 67.13,-21.886 67.13,-67.132 l 0,-95.34 c 0,-45.246 -21.89,-67.133 -67.13,-67.133 l -189.06,0 z m 0,184.66 0,-139.715 180.49,0 c 15.66,0 23.09,7.434 23.09,23.094 l 0,93.527 c 0,15.661 -7.43,23.094 -23.09,23.094 l -180.49,0" id="path3143" style="fill:#545f6a;fill-opacity:1;fill-rule:evenodd;stroke:none"/>
      </g>
    </g>
  </g>
</svg>