<?xml version="1.0" encoding="UTF-8"?>
<!-- Created with Inkscape (http://www.inkscape.org/) -->
<svg width="193" height="81" version="1.1" viewBox="0 0 193 80.999999" xml:space="preserve" xmlns="http://www.w3.org/2000/svg" xmlns:cc="http://creativecommons.org/ns#" xmlns:dc="http://purl.org/dc/elements/1.1/" xmlns:rdf="http://www.w3.org/1999/02/22-rdf-syntax-ns#" xmlns:xlink="http://www.w3.org/1999/xlink"><metadata><rdf:RDF><cc:Work rdf:about=""><dc:format>image/svg+xml</dc:format><dc:type rdf:resource="http://purl.org/dc/dcmitype/StillImage"/><dc:title/></cc:Work></rdf:RDF></metadata><g transform="matrix(1.3333333,0,0,-1.3333333,-530.07879,1058.8546)"><g fill="#102d5d"><path d="m458.78045 750.88682c-0.264 0.341-0.781 0.595-1.269 0.595-0.566 0-1.22-0.273-1.22-0.947 0-0.635 0.536-0.82 1.318-1.064 0.888-0.273 2.02-0.664 2.02-2.02 0-1.484-1.161-2.206-2.518-2.206-0.899 0-1.825 0.341-2.372 0.985l0.878 0.82c0.342-0.468 0.966-0.76 1.514-0.76 0.575 0 1.249 0.283 1.249 1.024 0 0.722-0.722 0.927-1.592 1.201-0.839 0.263-1.747 0.673-1.747 1.961 0 1.406 1.279 2.031 2.529 2.031 0.693 0 1.483-0.244 2.01-0.742z"/><path d="m464.10365 748.80732c-0.185 0.264-0.586 0.458-0.966 0.458-0.859 0-1.289-0.77-1.289-1.502 0-0.733 0.439-1.504 1.328-1.504 0.36 0 0.761 0.147 0.985 0.419l0.732-0.741c-0.39-0.42-1.034-0.655-1.727-0.655-1.387 0-2.538 0.919-2.538 2.481 0 1.522 1.132 2.479 2.509 2.479 0.683 0 1.395-0.274 1.766-0.733z"/><path d="m470.13345 748.34912v-2.929h-1.171v2.577c0 0.557-0.118 1.239-0.869 1.239-0.742 0-1.103-0.634-1.103-1.258v-2.558h-1.171v7.379h1.171v-3.348h0.019c0.186 0.391 0.703 0.791 1.396 0.791 1.221 0 1.728-0.936 1.728-1.893"/><path d="m471.62655 752.79952h1.171v-7.38h-1.171z"/><path d="m477.62935 748.23082c0 0.606-0.34 1.133-1.103 1.133-0.692 0-1.249-0.479-1.297-1.133zm1.162-0.838h-3.562c0.048-0.664 0.653-1.154 1.337-1.154 0.586 0 0.976 0.235 1.24 0.606l0.78-0.624c-0.458-0.626-1.122-0.938-2.009-0.938-1.447 0-2.519 0.928-2.519 2.451 0 1.513 1.064 2.508 2.478 2.508 1.308 0 2.265-0.849 2.265-2.537 0-0.108 0-0.206-0.01-0.312"/><path d="m482.63545 748.85642c-0.204 0.273-0.595 0.507-1.025 0.507-0.371 0-0.751-0.136-0.751-0.507 0-0.361 0.361-0.459 1.015-0.616 0.693-0.166 1.513-0.477 1.513-1.395 0-1.142-0.927-1.563-1.952-1.563-0.722 0-1.473 0.275-1.922 0.772l0.77 0.722c0.254-0.332 0.694-0.585 1.201-0.585 0.341 0 0.752 0.136 0.752 0.557 0 0.389-0.362 0.506-1.075 0.672-0.692 0.167-1.385 0.449-1.385 1.328 0 1.045 0.937 1.494 1.865 1.494 0.673 0 1.375-0.235 1.756-0.713z"/><path d="m484.00985 750.10532h1.269l0.976-3.357h0.019l1.006 3.357h1.25l1.015-3.357h0.019l0.996 3.357h1.219l-1.62-4.686h-1.19l-1.065 3.281h-0.02l-1.054-3.281h-1.19z"/><path d="m492.69355 750.10552h1.171v-4.686h-1.171zm0.576 2.294c0.429 0 0.761-0.302 0.761-0.703 0-0.4-0.332-0.702-0.761-0.702-0.43 0-0.743 0.332-0.743 0.702 0 0.371 0.313 0.703 0.743 0.703"/><path d="m496.27855 747.79172c0-0.742 0.498-1.483 1.337-1.483 0.869 0 1.395 0.703 1.395 1.483 0 0.81-0.536 1.494-1.385 1.494s-1.347-0.664-1.347-1.494m3.845 2.314v-4.266c0-1.689-0.82-2.763-2.645-2.763-0.761 0-1.717 0.275-2.322 0.772l0.673 0.907c0.449-0.43 1.054-0.664 1.639-0.664 1.133 0 1.484 0.683 1.484 1.612v0.341h-0.02c-0.341-0.459-0.887-0.703-1.532-0.703-1.406 0-2.312 1.113-2.312 2.44 0 1.358 0.878 2.461 2.293 2.461 0.654 0 1.269-0.274 1.61-0.84h0.019v0.703z"/><path d="m503.78955 747.32352h-2.342v0.996h2.342z"/><path d="m505.22835 752.33132h1.23v-2.792h3.231v2.792h1.23v-6.912h-1.23v3.066h-3.231v-3.066h-1.23z"/><path d="m514.79465 746.25962c0.927 0 1.357 0.79 1.357 1.522 0 0.733-0.43 1.504-1.357 1.504s-1.357-0.771-1.357-1.504c0-0.732 0.43-1.522 1.357-1.522m0 3.983c1.416 0 2.547-0.987 2.547-2.461 0-1.473-1.131-2.499-2.547-2.499s-2.547 1.026-2.547 2.499c0 1.474 1.131 2.461 2.547 2.461"/><path d="m518.59955 752.79952h1.171v-7.38h-1.171z"/><path d="m523.92605 748.85642c-0.206 0.273-0.596 0.507-1.025 0.507-0.371 0-0.752-0.136-0.752-0.507 0-0.361 0.361-0.459 1.015-0.616 0.694-0.166 1.513-0.477 1.513-1.395 0-1.142-0.927-1.563-1.952-1.563-0.722 0-1.474 0.275-1.923 0.772l0.772 0.722c0.252-0.332 0.691-0.585 1.2-0.585 0.342 0 0.751 0.136 0.751 0.557 0 0.389-0.361 0.506-1.073 0.672-0.694 0.167-1.386 0.449-1.386 1.328 0 1.045 0.937 1.494 1.863 1.494 0.674 0 1.377-0.235 1.758-0.713z"/><path d="m525.36415 749.16832v0.937h0.82v1.357h1.152v-1.357h1.171v-0.937h-1.171v-2.177c0-0.419 0.098-0.722 0.615-0.722 0.157 0 0.361 0.029 0.498 0.097l0.039-0.917c-0.205-0.078-0.517-0.126-0.781-0.126-1.24 0-1.523 0.761-1.523 1.658v2.187z"/><path d="m532.73945 748.23082c0 0.606-0.342 1.133-1.103 1.133-0.693 0-1.249-0.479-1.299-1.133zm1.162-0.838h-3.564c0.05-0.664 0.654-1.154 1.338-1.154 0.586 0 0.977 0.235 1.239 0.606l0.782-0.624c-0.458-0.626-1.122-0.938-2.011-0.938-1.445 0-2.519 0.928-2.519 2.451 0 1.513 1.065 2.508 2.48 2.508 1.309 0 2.264-0.849 2.264-2.537 0-0.108 0-0.206-9e-3 -0.312"/><path d="m535.16155 750.10552h1.171v-4.686h-1.171zm0.575 2.294c0.431 0 0.763-0.302 0.763-0.703 0-0.4-0.332-0.702-0.763-0.702-0.429 0-0.741 0.332-0.741 0.702 0 0.371 0.312 0.703 0.741 0.703"/><path d="m537.84655 750.10532h1.112v-0.752h0.019c0.206 0.469 0.762 0.889 1.456 0.889 1.22 0 1.727-0.937 1.727-1.893v-2.93h-1.171v2.597c0 0.556-0.126 1.249-0.879 1.249-0.742 0-1.093-0.644-1.093-1.268v-2.578h-1.171z"/><path d="m456.11565 734.33812h1.396c2.079 0 3.084 1.406 3.084 2.832 0 1.424-1.005 2.83-3.084 2.83h-1.396zm-0.703 6.287h2.294c1.727 0 3.632-1.151 3.632-3.455 0-2.305-1.905-3.456-3.632-3.456h-2.294z"/><path d="m466.34855 736.34982c-0.039 0.858-0.567 1.494-1.513 1.494-0.889 0-1.542-0.714-1.601-1.494zm0.663-0.527h-3.787c0.02-0.918 0.732-1.659 1.669-1.659 0.683 0 1.211 0.38 1.464 0.79l0.498-0.391c-0.537-0.683-1.21-0.966-1.962-0.966-1.356 0-2.362 1.025-2.362 2.402 0 1.376 1.006 2.401 2.304 2.401 1.435 0 2.186-1.015 2.186-2.265 0-0.088 0-0.195-0.01-0.312"/><path d="m468.47425 738.28232h0.635c0.02-0.243 0.039-0.586 0.039-0.781h0.02c0.253 0.527 0.819 0.898 1.463 0.898 0.167 0 0.303-0.01 0.44-0.048l-0.088-0.625c-0.078 0.029-0.293 0.058-0.468 0.058-0.703 0-1.338-0.508-1.338-1.727v-2.343h-0.664v3.562c0 0.245-9e-3 0.694-0.039 1.006"/><path d="m477.94875 736.34982c-0.038 0.858-0.566 1.494-1.512 1.494-0.888 0-1.543-0.714-1.602-1.494zm0.664-0.527h-3.787c0.018-0.918 0.732-1.659 1.669-1.659 0.684 0 1.211 0.38 1.464 0.79l0.497-0.391c-0.536-0.683-1.209-0.966-1.961-0.966-1.357 0-2.363 1.025-2.363 2.402 0 1.376 1.006 2.401 2.305 2.401 1.434 0 2.186-1.015 2.186-2.265 0-0.088 0-0.195-0.01-0.312"/><path d="m483.44785 737.23852c-0.214 0.351-0.673 0.605-1.171 0.605-1.063 0-1.747-0.8-1.747-1.845 0-1.035 0.674-1.835 1.736-1.835 0.578 0 0.978 0.243 1.241 0.595l0.499-0.371c-0.391-0.479-0.948-0.791-1.74-0.791-1.473 0-2.439 1.026-2.439 2.402s0.966 2.401 2.439 2.401c0.617 0 1.31-0.263 1.7-0.79z"/><path d="m485.87245 737.53142c0.244 0.527 0.889 0.868 1.532 0.868 1.162 0 1.737-0.752 1.737-1.883v-2.802h-0.664v2.527c0 0.957-0.282 1.602-1.239 1.602-0.702 0-1.386-0.567-1.386-1.786v-2.343h-0.663v7.379h0.663v-3.562z"/><path d="m493.02065 737.72602h-1.288v-2.665c0-0.683 0.283-0.839 0.683-0.839 0.186 0 0.401 0.058 0.577 0.146l0.028-0.576c-0.234-0.087-0.477-0.136-0.78-0.136-0.489 0-1.172 0.215-1.172 1.22v2.85h-0.947v0.556h0.947v1.289h0.664v-1.289h1.288z"/><path d="m497.58305 736.34982c-0.038 0.858-0.566 1.494-1.512 1.494-0.888 0-1.543-0.714-1.602-1.494zm0.664-0.527h-3.786c0.018-0.918 0.731-1.659 1.668-1.659 0.683 0 1.21 0.38 1.464 0.79l0.497-0.391c-0.536-0.683-1.209-0.966-1.961-0.966-1.357 0-2.362 1.025-2.362 2.402 0 1.376 1.005 2.401 2.304 2.401 1.434 0 2.186-1.015 2.186-2.265 0-0.088 0-0.195-0.01-0.312"/><path d="m507.05615 734.73942h0.019v5.886h0.704v-6.911h-0.878l-4.022 5.945h-0.02v-5.945h-0.703v6.911h0.878z"/><path d="m511.79225 737.84332c-1.054 0-1.728-0.819-1.728-1.845 0-1.025 0.674-1.835 1.728-1.835 1.064 0 1.737 0.81 1.737 1.835 0 1.026-0.673 1.845-1.737 1.845m0-4.247c-1.416 0-2.43 1.026-2.43 2.402 0 1.377 1.014 2.401 2.43 2.401 1.425 0 2.441-1.024 2.441-2.401 0-1.376-1.016-2.402-2.441-2.402"/><path d="m515.68525 738.28232h0.635c0.019-0.243 0.039-0.586 0.039-0.781h0.02c0.253 0.527 0.819 0.898 1.464 0.898 0.166 0 0.302-0.01 0.439-0.048l-0.088-0.625c-0.078 0.029-0.293 0.058-0.469 0.058-0.702 0-1.337-0.508-1.337-1.727v-2.343h-0.664v3.562c0 0.245-9e-3 0.694-0.039 1.006"/><path d="m521.37015 734.16362c1.025 0 1.757 0.791 1.757 1.835s-0.732 1.845-1.757 1.845c-1.103 0-1.728-0.83-1.728-1.845 0-1.016 0.625-1.835 1.728-1.835m-0.068-0.567c-1.425 0-2.363 1.054-2.363 2.402 0 1.346 0.938 2.401 2.363 2.401 0.653 0 1.336-0.313 1.728-0.909h0.02v3.602h0.663v-7.378h-0.663v0.77h-0.02c-0.392-0.576-1.075-0.888-1.728-0.888"/><path d="m529.04435 736.34982c-0.039 0.858-0.567 1.494-1.513 1.494-0.888 0-1.542-0.714-1.602-1.494zm0.664-0.527h-3.787c0.018-0.918 0.731-1.659 1.669-1.659 0.682 0 1.21 0.38 1.464 0.79l0.497-0.391c-0.537-0.683-1.21-0.966-1.961-0.966-1.358 0-2.363 1.025-2.363 2.402 0 1.376 1.005 2.401 2.304 2.401 1.435 0 2.187-1.015 2.187-2.265 0-0.088 0-0.195-0.01-0.312"/><path d="m531.80785 738.28232c0.02-0.243 0.04-0.586 0.04-0.781h0.019c0.254 0.527 0.918 0.898 1.562 0.898 1.161 0 1.738-0.752 1.738-1.883v-2.802h-0.664v2.527c0 0.957-0.283 1.602-1.24 1.602-0.703 0-1.387-0.567-1.387-1.786v-2.343h-0.663v3.562c0 0.245-9e-3 0.694-0.039 1.006z"/><path d="m397.70765 765.77142c2.225-2.385 5.182-3.949 9.206-4.032 4.332-0.09 9.177 2.516 9.175 7.647-2e-3 5.363-4.23 6.957-8.355 8.541-2.635 1.013-7.142 2.415-7.143 6.936-1e-3 3.413 3.031 5.702 6.913 5.613 2.23-0.051 4.452-1.13 6.61-2.917l1.18 1.358c-2.619 2.301-5.318 3.298-7.842 3.353-4.838 0.104-8.788-2.736-8.786-7.408 2e-3 -5.717 4.969-7.278 8.053-8.503 3.569-1.416 7.41-2.796 7.411-6.974 1e-3 -3.377-3.151-5.94-7.43-5.821-3.058 0.086-5.433 1.119-7.628 3.451z"/><path d="m439.56865 762.45412h1.901v29.11h-1.901v-13.159h-15.237v13.159h-1.901v-29.11h1.901v14.161h15.237z"/></g><path d="m517.67175 791.60652h-4.628l-2.468-4.544-0.992 4.544-1.736-4.544-1.738 4.544-0.993-4.544-2.468 4.544h-4.629l-0.014-3.78 5.644-2.304-5.579-2.449 5.725-1.969-5.371-2.772 5.8-1.429-4.975-3.271 5.716-0.619-4.174-3.885 5.538-2e-3 -2.883-3.983 4.401-3.421 4.399 3.421-2.883 3.983 5.537 2e-3 -4.173 3.885 5.716 0.619-4.976 3.271 5.8 1.429-5.371 2.772 5.726 1.969-5.579 2.449 5.643 2.304z" fill="#da1354"/><g fill="#102d5d"><path d="m476.72625 765.31022-2.353 0.586 1.785 0.408-0.085 0.451 1.229 0.033s-0.791 1.061-1.817 0.981l-2.274-1.161c-0.307 0.128-2.869 2.617-2.869 2.617s2.05 1.983 0.91 3.394c-0.277 0.345-2.793 1.71-3.061 1.71-0.277 0-2.507-1.915-2.507-1.915 0.85-0.659 1.614-1.648 1.505-2.541-0.074-0.603-0.931-1.266-0.931-1.266-0.134-0.381 5.142-3.281 5.142-3.281l-0.566-0.53c-0.521-0.559-0.239-1.22-0.239-1.22l0.753 0.574 0.19-0.246 0.907 0.698 0.361-1.699 0.526 0.058 0.164-1.281c0.987 0.325 1.044 1.768 1.044 1.768l-0.669 1.652 2.206-1.688 0.287 0.645 1.129-0.353s-0.262 1.017-0.767 1.606"/><path d="m492.07605 785.41542-1.663-0.229 1.348 1.586-0.55 0.561 0.738 1.05s-1.279 0.125-1.903-0.842l-1.1-2.671 9e-3 2.073c-0.053-0.02-0.502-2e-3 -0.581-9e-3l-0.127 1.28s-1-0.466-1.115-2.099l1.002-1.812-4.478-5.71c8e-3 -0.01 9e-3 -0.012 0.01-0.014 0.681-0.942 0.853-1.717 0.953-2.179l0.027-0.121 0.365-1.676 4.442 6.956 1.261-0.802c0.721 0.035 1.061 0.976 1.061 0.976l-1.112 0.408-0.188 1.595 1.3-0.089 0.237 0.413 1.416-0.201c-0.131 1.109-0.762 1.408-1.352 1.556"/><path d="m479.14985 784.71342c-0.113 0.069-0.147 0.214-0.08 0.335 0.242 0.379 0.848 1.261 1.309 1.347 0.111 0.019 0.22 0.029 0.327 0.029 0.451 0 0.818-0.167 1.184-0.351l0.427-0.209c0.12-0.065 0.166-0.211 0.106-0.336-0.052-0.115-0.212-0.169-0.329-0.105l-0.423 0.212c-0.046 0.024-0.088 0.046-0.13 0.066 0.025-0.081 0.037-0.166 0.037-0.252 0-0.509-0.412-0.923-0.92-0.923-0.423 0-0.777 0.282-0.882 0.678-0.106-0.139-0.203-0.277-0.293-0.414-0.054-0.107-0.216-0.15-0.333-0.077m13.197-19.29-2.055 0.86 1.386 0.102c-0.019 0.051 0.185 0.64 0.179 0.719l1.572 0.161s-1.133 1.022-2.059 0.921l-2.332-0.872-5.893 4.594s1.298 0.232 2.044 0.561c0 0-0.63 0.738-0.81 1.724l-0.404 1.857c-0.101 0.435-0.203 1.11-0.848 1.995-0.101 0.173-0.728 0.805-0.728 0.805l-0.849 0.668 0.979 0.134c1.279 0.273 1.346 1.273 1.346 1.273h-4.111s-0.017 0.254-0.017 0.759h4.096c0.696 0 1.259 0.215 1.677 0.642 0.704 0.719 0.804 1.649 0.804 1.687 0 0.229-0.183 0.401-0.406 0.401-0.226-0.01-0.4-0.19-0.397-0.42 0-2e-3 -0.121-0.64-0.586-1.1-0.262-0.265-0.632-0.394-1.092-0.394h-4.073c0.018 0.12 0.023 0.06 0.05 0.13 0.124 0.421 0.607 0.587 1.103 0.591 0.91 0 1.889 0 3.101 0.046 0.556 0.011 0.841 0.915 0.841 0.915s0.256 1.458 0.256 1.666c0 0.212-0.089 0.253-0.343 0.341-0.255 0.083-1.278 0.338-1.827 0.68-0.552 0.337-1.36 0.68-1.815 0.68h-2.502c-0.383 0-1.02-0.462-1.02-0.462s-0.281 0.916-0.971 1.154l-1.024 0.353 0.409-2.456-0.63-2.213s-1.202-0.655-1.665-0.742l-0.734 0.023 0.554-0.562c0.202-0.191 0.818-0.186 1.435-0.128l-0.148-0.488c-0.049-0.033-1.162-0.688-1.596-0.774l-0.762 0.039 0.569-0.579c0.193-0.188 0.787-0.188 1.383-0.129l-0.298-1.009s-0.098-0.911-1.173-0.911c-0.971 0-13.127 1.437-13.127 1.437-0.868 0.083-2.794 0.394-2.794 2.036 0 1.536 1.513 1.776 2.899 1.776l9.914 6e-3c2.696 0 4.01 1.383 4.133 4.083 0.106 2.294 1.467 3.211 2.308 3.211h4.113c1.175 0.544 1.956 2.721 1.956 2.721s-0.886-0.308-1.809-0.576h-4.719c-1.007 0-2.165-1.419-2.661-3.062h-2e-3c-0.497 1.643-1.535 3.062-2.662 3.062h-4.718c-0.923 0.268-1.81 0.576-1.81 0.576s0.782-2.177 1.956-2.721h4.114c0.87 0 2.307-0.917 2.307-3.211 0-1.769-0.821-2.532-2.494-2.532h-4.084c0.136 0.493 0.418 1.425 0.683 1.816l0.88 0.716h-1.212c-0.662 0-1.868-1.879-2.308-2.532h-1.451c0.168 0.627 0.59 2.198 0.922 2.695l1.131 0.871s-0.56-0.01-1.558-0.01c-0.846 0-2.45-2.768-2.989-3.556-1.453 0-4.427-0.516-4.427-3.351 0-2.266 2.081-3.368 4.2-3.631 0.083-0.017 2.824-0.357 2.824-0.357l-2.282-5.101s-0.979 0.148-1.204 0.041c-0.316-0.148-2.708-5.954-2.708-5.954l-1.593-0.064c-0.259-0.103-0.823-0.683-0.951-0.94-0.172-0.348-0.175-0.689-0.175-0.689l0.915 0.322 0.405-0.359 0.982 0.296-0.811-1.871 0.52-0.539-0.175-1.524c0.818 0.076 1.441 1.376 1.441 1.376l0.077 1.909 0.704-1.762c0.106-9e-3 0.106-0.013 0.459-0.045l0.921-1.503s0.278 0.232 0.378 0.597c0.076 0.28 0.091 1.355 0.091 1.355-0.3 0.357-1.273 1.504-1.273 1.504l1.64-1.176c0.015 0.051 0.273 0.268 0.314 0.33l1.619-0.635s-0.344 1.459-0.768 1.791l-2.695 1.044 6.352 5.994c1.498 1.277 2.839 2.372 3.514 2.459 0.703 0.093 6.089-3.46 7.05-3.601 0.735-0.108 1.902 0.027 1.902 0.027s-0.153-0.857-0.032-1.05c0.302-0.612 9.516-4.143 9.516-4.143l-1.156-0.688c-0.397-0.251-0.636-1.44-0.636-1.44l1.465 0.808 0.337-0.471 1.193 0.954-0.178-1.594 0.547-0.071 0.036-1.994c0.756 0.321 1.22 1.864 1.22 1.864l-0.017 1.498 1.551-1.386 0.573 0.535 1.357-0.647s-0.051 1.374-0.556 1.834"/><path d="m480.66435 784.99512c0.253 0 0.46 0.205 0.46 0.46 0 0.253-0.207 0.46-0.46 0.46s-0.463-0.207-0.463-0.46c0-0.255 0.21-0.46 0.463-0.46"/></g></g></svg>