<?xml version="1.0" encoding="UTF-8"?>
<svg xmlns="http://www.w3.org/2000/svg" viewBox="0 0 595 720">
<path d="m302.39 719.4c14.09 0.01 57.11-1.98 109.43-23.63 78.42-32.44 115.34-78.76 133.55-106.18 18.22-27.44 40-61.42 46.37-119.92 4.41-40.55 3.07-119.01 3.07-119.01v-350.66h-297.31-297.31l0.00414 350.66s-1.349 78.46 3.0651 119.01c6.3698 58.5 28.152 92.48 46.367 119.92 18.209 27.42 55.124 73.74 133.55 106.18 52.32 21.65 95.34 23.64 109.43 23.63 3.41 0.04 7.24 0 9.78 0z" fill="#E30613"/><path fill="#fff" d="m238.03 71.938l-66.09 55.442 43.94 52.37 33.9-28.44-17.5-20.97-13.19 11.07-9.53-11.35 25.6-21.44 36.78 43.85-101 84.75-36.78-43.88 23.03-19.31 9.5 11.35-11.63 9.74 17.5 20.97 32.38-27.15-43.94-52.35-43.72 36.66-13.28-15.81-29.312 24.59 164.34 195.85c-1.92 1.55-1.91 4.61-0.09 6.78 1.82 2.16 4.8 2.69 6.68 1.09l1.57 1.87c-4.03 3.38-4.48 9.29-1.1 13.32s9.26 4.69 13.29 1.31c0 0 0.71 0.86 1.65 1.97-2.08 1.54-2.04 4.71-0.22 6.87 1.83 2.17 4.77 2.77 6.75 1.03 1.02 1.2 2 2.29 2 2.29s18.85 24.87 18.22 52.28-9.62 50.72-9.62 50.72-6.56-2.95-11.85 1.97c-3.83 3.56-3.27 9.61-1.15 13.12-5.26-0.13-10.59 1.54-14.94 5.19-9.45 7.93-10.68 22.02-2.75 31.47 7.92 9.44 22.02 10.68 31.47 2.75 4.34-3.64 6.93-8.59 7.72-13.79 4.21 2.4 9.46 2.19 13.22-0.96 4.11-3.46 5.09-9.34 2.71-14.19 7.44-2.04 27.89-6.72 49.35-3.44 19.28 2.96 31.34 8.61 36.72 11.66-2.69 4.29-2.55 9.84 0.72 13.75 3.13 3.73 8.22 4.87 12.78 3.28-0.15 5.26 1.53 10.58 5.18 14.94 7.93 9.44 22.02 10.67 31.47 2.75 9.44-7.94 10.68-22 2.75-31.44-3.64-4.34-8.58-6.93-13.78-7.72 2.39-4.21 2.19-9.5-0.97-13.25-3.28-3.93-8.76-4.99-13.47-3.03-2.06-5.82-5.54-18.7-5.09-38.19 0.63-27.41 11.78-47.62 11.78-47.62 4.35 3.07 10.24 3.1 14.31-0.32 3.75-3.15 4.88-8.31 3.25-12.87 5.26 0.13 10.57-1.54 14.91-5.19 9.43-7.93 10.64-22.02 2.72-31.47-7.93-9.44-21.99-10.68-31.44-2.75-4.35 3.65-6.94 8.61-7.72 13.82-5.01-4.45-10.17-4.71-14.78-1.07-5.71 4.52-3.06 12.69-3.06 12.69s-23.62 4.74-50.72 0.59c-27.11-4.13-48.78-28.62-48.78-28.62s-0.91-0.88-1.78-1.85c1.9-1.55 1.92-4.61 0.09-6.78-1.76-2.09-4.61-2.58-6.47-1.22-1.02-1.14-1.81-2.03-1.81-2.03 4.03-3.38 5.14-9.87 1.75-13.9-3.38-4.03-9.37-4.54-13.41-1.16l-0.53 0.53-1.56-1.84c2.04-1.66 1.95-4.65 0.12-6.81-1.82-2.17-4.8-2.67-6.71-1.07l-27.72-33 43.72-36.78-43.94-52.34-33.85 28.4 17.54 20.91 13.12-11.03 9.53 11.38-23.03 19.31-35.78-42.63 101.62-85.25 35.76 42.6-26.16 22-9.53-11.35 13.19-11.06-17.6-20.91-33.87 28.44 43.9 52.38 66.07-55.44-123.35-147.03z"/><path d="m301.85 684.36c12.56 0.01 50.89-1.76 97.51-21.05 69.88-28.91 102.77-72.26 119-96.69 16.22-24.46 35.63-54.73 41.31-106.85 3.93-36.13 2.73-108.12 2.73-108.12v-319.31l-264.9 0.001h-264.9l0.002 319.31s-1.203 71.99 2.731 108.12c5.676 52.12 25.083 82.4 41.311 106.85 16.226 24.43 49.126 67.78 119 96.7 46.62 19.28 84.95 21.05 97.51 21.05 3.03 0.03 6.13-0.01 8.7-0.01z" stroke="#fff" stroke-width="8.3402" fill="none"/><path fill="#E30613" d="m373.68 472.22-37.8 32.87c-4.07 3.53-9.83 3.57-12.86 0.09-3.03-3.49-2.19-9.19 1.88-12.72l37.8-32.87c4.07-3.54 9.83-3.58 12.86-0.09s2.19 9.18-1.88 12.72z"/><path fill="#E30613" d="m339.18 457.95 32.86 37.8c3.53 4.07 3.58 9.83 0.09 12.86s-9.18 2.19-12.72-1.88l-32.87-37.8c-3.53-4.08-3.58-9.83-0.09-12.86s9.19-2.19 12.73 1.88z"/>
</svg>