<?xml version="1.0" encoding="UTF-8"?>
<svg xmlns="http://www.w3.org/2000/svg" viewBox="0 0 225 315" height="315" width="225" stroke="#000" xmlns:xlink="http://www.w3.org/1999/xlink">
<g fill="#e30613">
<path id="g" d="m2.6 2.5-0.029 199.8c0 60.7 49.22 109.9 109.9 109.9 60.7 0 109.9-49.2 109.9-109.9v-199.8z" stroke="#000" stroke-width="4" fill=""/>
</g>
<use stroke-width="4" xlink:href="#e"/>
<g id="e" fill="#fff">
<circle cy="42" cx="112.5" r="7.5"/>
<path d="m114.4 35.2v-11.2h6.6v-4.06h-6.6v-6.94h-3.8v6.94h-6.6v4.06h6.6v11.2"/>
<circle cy="64" cx="112.5" r="22.5"/>
<path d="m87.2 66v7h50.6v-7z"/>
</g>
<use stroke-width="4" xlink:href="#a"/>
<path id="a" d="m90.87 75.5 0.26 132.5h42.97v-132.5z" fill="#fff"/>
<g transform="translate(1.32 1.25)">
<use xlink:href="#f" transform="matrix(-1 0 0 1 222.4 0)"/>
<g id="f">
<use stroke-width="4" xlink:href="#d"/>
<g id="d">
<use xlink:href="#a" transform="matrix(-1 0 0 1 280.6 -1.25)"/>
<path fill="#fff" d="M29.389,49.749v22h50v-22h-7.14v11h-7.14v-11h-7.14v11h-7.15v-11h-7.14v11h-7.14v-11H29.389z"/>
<polygon points="50.272,35.616 42.032,35.616 46.152,28.476 42.032,21.346 50.272,21.346,54.392,14.206 58.512,21.346 66.752,21.346 62.632,28.476 66.752,35.616 66.752,35.616 58.512,35.616 54.392,42.746" fill="#fff"/>
<path d="M111.23,311.168c41.7-0.699,77.7-23.799,93.399-53.399c-7-27-10-50.5-10-79.5h-83.5" fill="#fff"/>
</g>
<g id="c">
<line stroke-width="2" x1="135" y1="232.7" x2="128" y2="232.7" fill="none"/>
<path d="M127.68,228.75c-2,2,1.5,2,1.5,4s-3.5,2-1.5,4c1.7,1.7,3.5-1.1,3.5-4C131.18,229.55,129.18,227.25,127.68,228.75z"/>
</g>
<path stroke-width="3" d="m111.1 196.8c24.6 0 33.7 23 33.7 30.4v78.4" fill="none"/>
<path stroke-width="2" d="m111 311 0.5-104.2c13.9 0 24.2 12.9 24.2 24.3v77.5" fill="none"/>
<use xlink:href="#c" y="51"/>
</g>
</g>
<use stroke-width="4" xlink:href="#b"/>
<path id="b" d="m24.5 152v25h176v-25h-13.5v12h-13.6v-12h-13.5v12h-13.6v-12h-13.5v12h-13.5v-12h-13.6v12h-13.51v-12h-13.53v12h-13.54v-12h-13.56v12h-13.53v-12z" fill="#fff"/>
<use xlink:href="#g" fill="none"/>
</svg>