<?xml version="1.0" encoding="UTF-8"?>
<svg xmlns="http://www.w3.org/2000/svg" height="100%" width="100%" viewBox="0 0 148 190">
<path stroke="#000" stroke-width="2" d="m146.6 123c0 36.4-32.6 65.8-72.6 65.8s-72.59-29.4-72.59-65.8v-122h145.2v122h-0.01z" fill="#e30613"/>
<path d="m21.33 144h104.6v7.5h-104.6v-7.5z" fill="#fff"/>
<path d="m74.08 8.263h-0.95v2.537h-3.06v1.98h3.06v4.64c-3.8 0.68-3.55 4.99-3.55 4.99l4.5-0.25 4.49 0.25s0.25-4.31-3.551-4.99v-4.64h3.061v-1.98h-3.06v-2.537h-0.94z" fill="#fff"/>
<path d="m74.08 7.949h-1.26v2.851l0.31-0.32h-3.37v2.61h3.37l-0.31-0.31v4.64l0.26-0.31c-4.03 0.72-3.82 5.27-3.81 5.32l0.01 0.31 0.32-0.021 4.49-0.24h-0.03l4.5 0.24 0.31 0.021 0.021-0.31c0-0.05 0.219-4.6-3.811-5.32l0.26 0.31v-4.64l-0.311 0.31h3.362v-2.61h-3.362l0.311 0.32v-2.851h-1.26zm0.63 0.314v2.847h3.371l-0.32-0.31v1.98l0.32-0.311h-3.371v5.211l0.261 0.05c3.479 0.62 3.299 4.5 3.289 4.66l0.33-0.29-4.5-0.25h-0.03l-4.5 0.25 0.33 0.29c-0.01-0.16-0.18-4.04 3.29-4.66l0.26-0.05v-5.21h-3.37l0.32 0.311v-1.981l-0.32 0.31h3.37v-2.847l-0.31 0.314h1.89l-0.31-0.314z"/>
<path d="m59.68 36.5v-10.7h-25.2v10.7l1.7 0.6h22.1l1.4-0.6z" fill="#fff"/>
<path d="m38.76 25.52h-4.57v11.21l0.2 0.08 1.64 0.59 0.05 0.01h22.27l0.06-0.02 1.36-0.59 0.19-0.08v-11.2h-21.2zm3.11 0.63h17.78l-0.31-0.32v10.68l0.19-0.28-1.36 0.58 0.12-0.02h-22.15l0.1 0.02-1.63-0.59 0.2 0.3v-10.69l-0.31 0.32h7.37z"/>
<path d="m113.7 25.8h-25.2v10.7l1.399 0.6h22.1l1.699-0.6v-10.7z" fill="#fff"/>
<path d="m92.56 25.52h-4.372v11.2l0.19 0.08 1.36 0.59 0.06 0.02h22.3v-0.01l1.7-0.59 0.2-0.08v-11.21h-21.44zm2.779 0.63h18.36l-0.4-0.32v10.68l0.2-0.29-1.6 0.58 0.1-0.01h-22.14l0.131 0.02-1.36-0.59 0.19 0.29v-10.68l-0.32 0.31h6.84v0.01z"/>
<path d="m36.14 37.1h22.12v46.98h-22.12v-46.98z" fill="#fff"/>
<path d="m36.14 37.41h22.12l-0.32-0.31v46.98l0.32-0.31h-22.12l0.31 0.31v-46.98l-0.31 0.31zm0 46.99h22.43v-47.62h-22.75v47.62h0.32z"/>
<path d="m112 37.1h-22.11v46.98h22.11v-46.98z" fill="#fff"/>
<path d="m112 36.78h-22.42v47.62h22.72v-47.62h-0.3zm0 46.99h-22.11l0.319 0.31v-46.98l-0.319 0.31h22.11l-0.3-0.31v46.98l0.3-0.31z"/>
<path d="m43.28 16-2-3.49h4l2-3.48 2 3.48h4l-2 3.49 2 3.5h-4l-2 3.4-2-3.4h-4l2-3.5z" fill="#fff"/>
<path d="m53.29 19.15h-4.19l-0.1 0.16-2 3.47h0.54l-2.01-3.47-0.09-0.16h-4.19l0.27 0.47 2.01-3.47 0.09-0.16-0.09-0.16-2.01-3.47-0.27 0.47h4.19l0.09-0.16 2.01-3.478h-0.54l2 3.478 0.1 0.16h4.19l-0.27-0.47-2.01 3.47-0.09 0.16 0.09 0.16 2.01 3.47 0.27-0.47zm-1.73-3 2-3.48 0.27-0.47h-4.55l0.27 0.16-2.01-3.482-0.27-0.471-0.27 0.471-2.01 3.482 0.27-0.16h-4.56l0.27 0.47 2.01 3.48v-0.32l-2.01 3.48-0.27 0.47h4.56l-0.27-0.16 2.01 3.48 0.27 0.47 0.27-0.47 2.01-3.48-0.27 0.16h4.55l-0.27-0.47-2-3.48v0.32z"/>
<path d="m104.9 16 2-3.49h-4l-2-3.48-2 3.48h-4l2 3.49-2 3.5h4l2 3.4 2-3.4h4l-2-3.5z" fill="#fff"/>
<path d="m94.86 19.78h4.011l-0.27-0.16 2 3.48 0.301 0.47 0.3-0.47 2-3.48-0.3 0.16h4.5l-0.2-0.47-2-3.48v0.31l2-3.47 0.2-0.47h-4.5l0.3 0.15-2-3.473-0.3-0.471-0.301 0.47-2 3.474 0.271-0.15h-4.551l0.27 0.47 2 3.47v-0.31l-2 3.48-0.27 0.47h0.539zm2.282-3.95-2.011-3.47-0.271 0.47h4.201l0.09-0.16 2.05-3.477h-0.6l2 3.477 0.101 0.16h4.2l-0.301-0.47-2 3.47-0.1 0.16 0.1 0.16 2 3.47 0.301-0.47h-4.2l-0.101 0.16-2 3.48h0.601l-2.05-3.48-0.09-0.16h-4.201l0.271 0.47 2.011-3.47 0.09-0.16-0.091-0.16z"/>
<path d="m74.08 21.42c-5.34 0-10.76 4.67-10.76 10.51h21.51c0-5.84-5.41-10.51-10.75-10.51z" fill="#fff"/>
<path d="m74.08 21.1c-5.23 0-11.07 4.63-11.07 10.83v0.32h22.13v-0.32c0-6.2-5.841-10.83-11.06-10.83zm10.75 10.52h-21.51l0.32 0.31c0-5.84 5.51-10.2 10.43-10.2 4.93 0 10.44 4.36 10.44 10.2l0.32-0.31z"/>
<path d="m62.98 37.1h22.2l1.301-0.4v-4.8h-24.8v4.8l1.299 0.4z" fill="#fff"/>
<path d="m74.08 31.62h-12.68v5.28l0.22 0.08 1.22 0.41 0.05 0.02h22.38l0.051-0.02 1.22-0.41 0.21-0.08v-5.28h-12.67zm12.04 0.31v4.75l0.21-0.3-1.221 0.42 0.111-0.02h-22.28l0.1 0.02-1.22-0.42 0.21 0.3v-4.75l-0.31 0.32h24.71l-0.31-0.32z"/>
<path d="m63.18 83.4h21.8v-46.3h-21.8v46.3z" fill="#fff"/>
<path d="m74.08 36.78h-11.24v46.98h22.48v-46.98h-11.24zm10.61 0.32v46.34l0.311-0.31h-21.85l0.31 0.31v-46.34l-0.31 0.31h21.85l-0.311-0.31z"/>
<path d="m90.88 82.4v-6.4h-7v6.4h-6.4v-6.4h-6.8v6.4h-6.4v-6.4h-7v6.4h-5.8v-6.4h-6.8v6.4h-5.8v-6.4h-7.9v12.1l1.9 0.5h82.3l1-0.5v-12.1h-7v6.4h-5.699v-6.4h-6.801" fill="#fff"/>
<path d="m38.93 75.73h-8.23v12.62l0.24 0.06 1.91 0.46 0.04 0.01h82.41l0.101-0.04 0.899-0.46 0.2-0.08v-12.57h-77.57zm5.78 0.63h71.49l-0.3-0.31v12.05l0.1-0.28-0.9 0.46 0.101-0.03h-82.27l0.07 0.01-1.92-0.46 0.24 0.3v-12.06l-0.31 0.32h13.7z"/>
<path d="m85.43 144.3h40.47s-3.5-6.1-7.4-23.8c-3.6-16.3-2.3-32.4-2.3-32.4h-85.19s1.3 16.1-2.29 32.4c-3.9 17.7-7.4 23.8-7.4 23.8h41.47" fill="#fff"/>
<path d="m85.43 144.5h40.87l-0.2-0.4c-0.1 0-3.5-6.3-7.399-23.7-3.5-16-2.3-32.12-2.3-32.28l0.1-0.28h-85.77l0.02 0.28c0.01 0.16 1.26 16.28-2.29 32.28-3.84 17.4-7.33 23.7-7.36 23.7l-0.02 0.101h-0.01l-0.08 0.3h41.8v-0.501h-41.47l0.23 0.4c0.04-0.101 3.56-6.301 7.42-23.8 3.57-16.2 2.32-32.39 2.3-32.53l-0.26 0.29h85.19l-0.3-0.28c0 0.16-1.301 16.32 2.3 32.52 1.6 7.301 4.2 17.4 7.399 23.8l0.301-0.4h-40.47v0.5z"/>
<path d="m125.9 151.6h0.2v-7.6h-40.8v0.5h40.6l-0.3-0.2v7.101l0.3-0.301h-104.6l0.3 0.301v-7.101l-0.3 0.2h41.6v-0.5h-41.8v7.6h104.8z"/>
<path d="m84.58 37.9v-1.1h-21.1v1.1h21.1z"/>
<path d="m111.8 37.9v-1.1h-21.5v1.1h21.5z"/>
<path d="m57.98 37.9v-1.1h-21.5v1.1h21.5z"/>
<path d="m74.13 106.1c6.27 0.1 10.49 5.9 10.49 11.3v33.9h1.31v-33.9c0-6-4.74-12.5-11.79-12.6l-0.01 1.301z"/>
<path d="m73.69 104.9v46.4h0.78v-46.4h-0.78z"/>
<path d="m74.08 104.8c-7.09 0-11.86 6.5-11.86 12.6v33.9h1.31v-33.9c0-5.4 4.24-11.3 10.55-11.3v-1.299z"/>
<path d="m115.9 88.6v-1h-84.6v1h84.6z"/>
<path d="m85.45 143.7h40.15v1.1h-40.15v-1.1z"/>
<path d="m21.54 143.7h41.24v1.1h-41.24v-1.1z"/>
</svg>