<?xml version="1.0" encoding="UTF-8" standalone="no"?>
<svg style="enable-background:new 0 0 676 352;fill:#009865" xmlns="http://www.w3.org/2000/svg" height="352px" width="676px" version="1.1" y="0" x="0" viewBox="0 0 676 352" stroke-miterlimit="3.8637"><defs>
<clipPath id="SVGID_2_" clipPathUnits="userSpaceOnUse"><path d="m317.25-411.727h208.5v150.5c-0.9668 57.0821-47.4102 102.637-104.5 102.5-56.9497-0.1367-103.036-45.5586-104-102.5v-150.5z"/></clipPath>
</defs>
<path fill="#fab20b" d="m51.9062 239.342-50.4687 20.781c38.2038-29.45 61.0012-44.695 102.812-68.7499 38.5525-22.1788 61.185-33.3913 102.188-50.625l263.437-83.7496c35.0725-9.8575 55.2675-14.2838 91.25-20 43.8563-6.9675 69.035-9.1525 113.438-9.84375l-51.875 15.3125 40.3125-1.25-50.1563 15.625 42.0313 2.8125-51.7188 14.8438 47.3438-3.28125-41.5625 10v0.625c-27.5275 4.7475-42.975 8.0925-70 15.1562-27.267 7.1266-42.508 11.8176-69.063 21.2496l-262.812 82.6874c-21.085 9.6501-32.7975 15.5338-53.125 26.6875-24.1137 13.2325-37.4263 21.3025-60.3125 36.5625l-1.25-0.27-45.1562 15.625 40.4688-28.0112-50.625 21.0937 31.5625-28.5937-49.5312 19.8437 32.8125-24.5312z"/><path fill="#231f20" d="m84.7188 283.248-37.5 15.1563c30.4938-25.02 48.8488-37.9613 82.6562-58.2813 29.2937-17.6075 46.5325-26.5375 77.8125-40.3124l262.187-82.812c27.3575-9.7175 43.0962-14.48 71.25-21.5626 26.54-6.6775 41.7187-9.78125 68.75-14.0625l46.5625 0.15625-38.75 11.875 27.6562 2.1875-45.9375 14.8438 44.8438 2.1875-56.4063 15.4687 37.8125-1.4062-44.5312 15.7812 27.8125-1.25c-31.9688 6.2525-49.9275 10.21-81.5625 17.9688-22.7688 5.585-35.56 8.9549-58.125 15.3125l-250.938 95c-18.2487 8.7125-28.6388 13.5437-46.0938 23.75-18.4375 10.7812-28.9062 17.3437-47.3437 28.2812l22.74-25.3125-39.3025 18.9063 22.5-24.2188-49.2188 21.7188 27.9688-27.1875-45.3125 17.0312 20.4688-19.2187z"/><path fill="#fff" d="m208 32.6234h260.625v188.125c-1.209 71.354-59.264 128.298-130.625 128.126-71.188-0.17-128.795-56.948-130-128.126v-188.125z"/><g transform="matrix(1.25 0 0 1.25 -188.562 547.282)" clip-path="url(#SVGID_2_)">


<g fill="#fab20b" stroke-width=".2835" stroke="#231f20" stroke-miterlimit="10">


<path d="m482.996-364.164c-1.699 1.246-2.754 1.85-4.688 2.688-1.578 0.683-2.496 1.071-4.188 1.375-1.084 0.195-1.711 0.25-2.813 0.25l1.438 1.688c0.389-0.366 0.676-0.532 1.188-0.688 0.398-0.121 0.789-0.44 1.063-0.125 0.163 0.188 0.215 0.394 0.125 0.625-0.087 0.227-0.309 0.226-0.5 0.375-0.478 0.371-0.822 0.517-1.188 1-0.484 0.641-0.664 1.135-0.705 1.938l1.392 0.938c0.178-0.629 0.354-0.979 0.75-1.5 0.397-0.522 0.648-0.861 1.25-1.125 0.233-0.102 0.398-0.305 0.625-0.188 0.156 0.082 0.17 0.218 0.25 0.375 0.319 0.631 0.045 1.114-0.062 1.813-0.129 0.831-0.272 1.3-0.625 2.063l2.5 0.313c-0.353-0.869-0.445-1.439-0.375-2.375 0.041-0.572 0.107-0.901 0.313-1.438 0.135-0.356 0.168-0.604 0.438-0.875 0.147-0.149 0.228-0.322 0.438-0.313 0.176 0.01 0.238 0.14 0.375 0.25 0.255 0.205 0.33 0.393 0.563 0.625 0.23 0.232 0.369 0.356 0.625 0.563l1.5-1.375c-0.563-0.147-0.887-0.358-1.25-0.813-0.315-0.393-0.527-0.686-0.5-1.188 0.027-0.501 0.287-0.754 0.625-1.125 0.355-0.389 0.684-0.459 1.125-0.75 0.559-0.369 0.875-0.575 1.438-0.938l-1.127-2.063z"/>
<path d="m471.621-359.508c-0.447 0.257-0.67 0.561-0.781 1.063-0.123 0.552-0.02 0.974 0.344 1.406-0.041-0.422 0.059-0.718 0.344-1.031 0.272-0.298 0.534-0.421 0.938-0.438l-0.845-1z"/>
<path d="m472.842-354.982c-0.259 0.338-0.352 0.611-0.345 1.037 0.01 0.75 0.414 1.317 1.125 1.563-0.299-0.355-0.385-0.704-0.281-1.156 0.076-0.336 0.199-0.534 0.469-0.75l-0.968-0.694z"/>
<path d="m476.652-352.633c-0.16 0.295-0.199 0.513-0.156 0.844 0.102 0.779 0.852 1.327 1.625 1.188-0.4-0.205-0.598-0.552-0.572-1 0.023-0.384 0.18-0.645 0.509-0.844l-1.406-0.188z"/>
<path d="m482.371-357.008c0.34 0.323 0.487 0.6 0.563 1.063 0.117 0.72-0.095 1.285-0.656 1.75 0.23-0.471 0.221-0.884-0.03-1.344-0.188-0.341-0.389-0.516-0.75-0.656l0.873-0.813z"/>
<path d="m503.076-364.622c1.584 1.389 2.58 2.083 4.434 3.086 1.513 0.818 2.395 1.284 4.052 1.735 1.063 0.289 1.684 0.399 2.78 0.494l-1.578 1.555c-0.358-0.398-0.627-0.588-1.123-0.788-0.387-0.156-0.748-0.508-1.048-0.217-0.178 0.173-0.248 0.373-0.178 0.612 0.068 0.234 0.288 0.251 0.465 0.417 0.445 0.411 0.776 0.587 1.096 1.1 0.427 0.681 0.563 1.188 0.533 1.991l-1.469 0.813c-0.123-0.642-0.267-1.007-0.615-1.559-0.352-0.555-0.573-0.915-1.148-1.23-0.223-0.123-0.371-0.339-0.605-0.242-0.163 0.067-0.19 0.203-0.281 0.352-0.373 0.601-0.143 1.105-0.096 1.811 0.055 0.839 0.156 1.319 0.441 2.109l-2.518 0.094c0.43-0.834 0.569-1.395 0.58-2.333 0.01-0.574-0.027-0.908-0.186-1.459-0.103-0.367-0.115-0.616-0.359-0.91-0.133-0.161-0.199-0.341-0.408-0.349-0.176-0.01-0.25 0.119-0.395 0.216-0.273 0.182-0.366 0.362-0.616 0.573-0.252 0.211-0.4 0.323-0.672 0.506l-1.375-1.501c0.574-0.098 0.916-0.28 1.316-0.701 0.346-0.364 0.586-0.637 0.602-1.139s-0.22-0.776-0.525-1.175c-0.319-0.419-0.641-0.518-1.055-0.845-0.523-0.416-0.82-0.65-1.35-1.06l1.301-1.956z"/>
<path d="m514.002-358.992c0.422 0.295 0.617 0.617 0.686 1.127 0.072 0.56-0.066 0.972-0.467 1.371 0.078-0.416 0.01-0.72-0.252-1.057-0.245-0.321-0.496-0.466-0.895-0.517l0.928-0.924z"/>
<path d="m512.391-354.59c0.228 0.36 0.295 0.639 0.254 1.063-0.072 0.747-0.53 1.276-1.255 1.459 0.328-0.328 0.441-0.668 0.38-1.128-0.047-0.342-0.152-0.549-0.402-0.788l1.023-0.606z"/>
<path d="m508.391-352.581c0.133 0.307 0.154 0.527 0.082 0.854-0.17 0.766-0.965 1.247-1.723 1.041 0.416-0.17 0.642-0.497 0.656-0.947 0.012-0.384-0.123-0.658-0.434-0.885l1.419-0.063z"/>
<path d="m503.074-357.438c-0.367 0.291-0.537 0.555-0.652 1.01-0.18 0.706-0.018 1.288 0.5 1.8-0.189-0.489-0.142-0.9 0.148-1.336 0.217-0.323 0.432-0.48 0.805-0.588l-0.801-0.886z"/>
<path d="m491.09-402.945c-0.545-0.22-0.842-0.285-1.461-0.368-0.565-0.075-1.051-0.141-1.602 0.056-0.635 0.225-0.85 0.711-1.088 1.34-0.219 0.577-0.279 1.157-0.068 1.847 0.445-0.606 0.998-0.863 1.75-0.813 0.772 0.051 1.305 0.404 1.656 1.093-0.441 0.803-0.752 1.234-1.375 1.907-0.707 0.763-1.176 1.146-2.063 1.688 1.295-0.053 2.07-0.282 3.188-0.938 0.768-0.452 1.172-0.79 1.75-1.469l-0.031-2.188-0.656-2.155z"/>
<path d="m489.152-398.133c-0.996 0.499-1.668 0.657-2.781 0.656-1.236 0-1.99-0.201-3.063-0.813-0.055-0.066-0.066-0.139-0.031-0.219 0.039-0.09 0.121-0.136 0.22-0.125 1.082 0.313 1.752 0.378 2.875 0.281 1.617-0.139 2.584-0.496 3.905-1.438-0.189 0.352-0.306 0.546-0.53 0.875-0.218 0.318-0.348 0.491-0.595 0.783z" stroke-width=".2268" fill="#ed1b29"/>
<path d="m463.184-405.477h17.063c0.977-0.111 1.724 0.213 2.313 1 0.547 0.732 0.445 1.402 0.375 2.313-0.1 1.273-0.875 1.8-1.313 3-0.565 1.545-1.194 2.42-1.125 4.063 0.066 1.633 0.328 2.737 1.438 3.938 0.953 1.033 1.789 1.528 3.188 1.688 1.547 0.176 2.556-0.266 3.813-1.188 0.963-0.708 1.441-1.287 1.938-2.375 0.522-1.146 0.426-1.931 0.5-3.188 0.084-1.438 0.029-2.264-0.188-3.688-0.151-0.988-0.547-1.501-0.563-2.5-0.01-0.391-0.168-0.684 0.062-1 0.166-0.23 0.346-0.318 0.625-0.375 0.166-0.034 0.27-0.034 0.438 0l6.375 0.75c0.293 0.02 0.479 0.104 0.688 0.313 0.207 0.208 0.264 0.397 0.313 0.688 0.057 0.34-0.061 0.536-0.125 0.875-0.207 1.091-0.551 1.647-0.938 2.688-0.849 2.283-1.387 3.553-2.438 5.75 0.338 0.957 0.711 1.487 1.5 2.125 0.93 0.752 1.68 1.024 2.875 1.063 1.194 0.039 1.957-0.192 2.938-0.875 1.016-0.707 1.418-1.412 1.875-2.563 0.393-0.987 0.479-1.627 0.438-2.688-0.052-1.349-0.498-2.06-1-3.313-0.414-1.032-0.938-1.495-1.25-2.563-0.188-0.643-0.369-1.021-0.313-1.688 0.048-0.561 0.109-0.917 0.438-1.375 0.389-0.545 0.805-0.719 1.438-0.938 0.512-0.177 0.834-0.221 1.375-0.188h16.625c-0.201 1.481-0.689 2.391-1.813 3.375-1.305 1.143-2.559 0.925-4.25 1.313-1.492 0.342-2.392 0.245-3.875 0.625-1.248 0.32-2.115 0.265-3.125 1.063-0.447 0.352-0.676 0.595-1 1.063l13.375 0.062c-0.072 1.448-0.559 2.402-1.688 3.313-0.689 0.554-1.193 0.784-2.063 0.938-1.871-0.16-2.953-0.132-4.813 0.125-1.259 0.174-2.047 0.124-3.188 0.688-0.783 0.386-1.201 0.69-1.813 1.313l13.375 0.313c0.063 1.077-0.18 1.801-0.875 2.625-0.853 1.01-1.852 0.959-3.125 1.313-1.793 0.497-2.908 0.179-4.75 0.438-1.496 0.21-2.379 0.214-3.813 0.688-0.883 0.291-1.369 0.5-2.188 0.938l14.688 1.375c0.133 0.645 0.117 1.054-0.062 1.688-0.195 0.683-0.387 1.114-0.938 1.563-0.666 0.541-1.276 0.454-2.125 0.563-1.285 0.163-2.022-0.15-3.313-0.25-1.83-0.142-2.855-0.314-4.687-0.375-1.852-0.062-2.901-0.048-4.75 0.062l15.375 4.625c-0.479 1.054-0.967 1.62-1.938 2.25-1.176 0.762-2.127 1.091-3.5 0.813-0.327-0.066-0.508-0.122-0.813-0.25l-9.562-3.563 12.25 8.625c-1.252 0.766-2.159 1.016-3.625 1-1.367-0.015-2.198-0.245-3.375-0.938l-7.875-6.438-0.563 0.5 5.75 7.625c-1.975 0.064-3.186-0.213-4.938-1.125-1.264-0.658-1.848-1.264-2.875-2.25-1.063-1.017-1.607-1.661-2.438-2.875l-1.313 2.688 7.688 4.813-3.375 5.438-5-5.938v4.438l8.25 13.625h-6.813l-4.25 3.75-4-3.75h-6.875l8.25-13.563v-4.438l-4.938 5.875-3.25-5.313 7.563-4.938-1.25-2.688h-0.027c-0.826 1.214-1.484 1.851-2.591 2.879-1.043 0.969-1.613 1.592-2.875 2.25-1.752 0.912-2.963 1.189-4.938 1.125l5.75-7.625-0.563-0.5-7.875 6.438c-1.178 0.692-2.01 0.923-3.375 0.938-1.466 0.016-2.375-0.234-3.625-1l12.25-8.625-9.563 3.563c-0.307 0.128-0.488 0.184-0.813 0.25-1.373 0.279-2.324-0.05-3.5-0.813-0.973-0.63-1.459-1.196-1.938-2.25l15.375-4.625c-1.85-0.111-2.898-0.125-4.75-0.062-1.834 0.062-2.859 0.233-4.688 0.375-1.291 0.1-2.027 0.413-3.313 0.25-0.85-0.108-1.459-0.022-2.125-0.563-0.551-0.448-0.742-0.88-0.938-1.563-0.182-0.634-0.198-1.043-0.063-1.688l14.688-1.375c-0.818-0.438-1.306-0.646-2.188-0.938-1.435-0.473-2.316-0.478-3.813-0.688-1.841-0.259-2.957 0.06-4.75-0.438-1.273-0.354-2.271-0.303-3.125-1.313-0.697-0.824-0.938-1.548-0.875-2.625l13.375-0.313c-0.611-0.623-1.029-0.927-1.813-1.313-1.141-0.563-1.927-0.514-3.188-0.688-1.859-0.257-2.941-0.285-4.813-0.125-0.87-0.154-1.375-0.384-2.063-0.938-1.129-0.91-1.615-1.865-1.688-3.313l13.375-0.062c-0.324-0.467-0.552-0.711-1-1.063-1.012-0.797-1.879-0.743-3.125-1.063-1.482-0.38-2.383-0.283-3.875-0.625-1.691-0.388-2.938-0.179-4.25-1.313-1.068-0.921-1.545-1.742-1.818-3.125z" fill="#231f20"/>
<path d="m492.418-402.914 0.802 0.134c0 0.342-0.018 0.657 0.391 0.782 0.379 0.117 0.535-0.107 0.738-0.363l0.736 0.346-0.242 0.516-0.347-0.163c-0.631 0.548-1.665 0.193-1.827-0.631l-0.346-0.058 0.095-0.563z" stroke-linecap="round" stroke-linejoin="round"/>
</g>


<g stroke="#231f20" stroke-width="1.4173">
<path d="m317.25-228.272h208.5v69.546h-96.25v-26.5c-0.614-4.239-3.967-7.187-8.25-7.25-4.357-0.064-7.877 2.938-8.5 7.25v26.5h-95.5v-69.546z" fill="#ed1b29"/>


<path d="m339.587-418.507c-5.659 4.187-5.205 14.365 0.804 18.032 4.263 2.602 8.978 2.218 12.764-1.04-1.298 4.68 0 8.79 3.749 11.877 5.856 4.821 16.72 1.115 18.409-6.28l2.073 1.399c-5.43 4.692-4.978 14.221 0.871 18.379 4.145 2.946 8.738 3.069 13.034 0.348-1.086 4.693 0.382 8.714 4.237 11.602 5.851 4.385 15.834 0.922 17.714-6.145l2.073 1.398c-5.709 4.383-5.423 14.395 0.524 18.446 4.432 3.019 9.624 2.759 13.734-0.688-1.75 4.811-0.455 9.436 3.538 12.639 5.887 4.724 16.779 0.659 18.133-6.766l2.488 1.677c-5.703 4.114-5.756 13.852-0.098 18.028 4.377 3.231 9.83 3.016 13.94-0.549-1.633 4.705-0.383 9.135 3.47 12.292 5.702 4.672 16.186 1.159 17.922-6.005l2.487 1.678c-5.495 4.616-5.035 14.304 0.871 18.38 4.117 2.841 8.619 2.914 12.826 0.208-1.156 4.952 0.793 9.427 5.205 11.954 5.867 3.359 14.273-0.169 15.984-6.708l18.031 12.163-8.645 47.242-239.594-161.608 23.066-34.198 20.39 12.245z"/>


<path d="m388.582-381.389c1.66-2.461 5.001-3.11 7.462-1.451 2.461 1.66 3.11 5.001 1.45 7.462-1.659 2.461-5 3.111-7.461 1.451s-3.111-5.001-1.451-7.462z"/>
<path d="m375.421-390.267c1.659-2.461 5-3.11 7.461-1.45s3.111 5 1.451 7.462c-1.66 2.461-5.001 3.111-7.462 1.45-2.461-1.66-3.11-5-1.45-7.462z"/>
<path d="m363.199-398.51c1.66-2.461 5.002-3.11 7.462-1.45 2.461 1.659 3.11 5 1.45 7.462-1.66 2.461-5.001 3.11-7.462 1.45s-3.11-5-1.45-7.462z"/>
<path d="m374.066-401.439c1.66-2.461 5.001-3.111 7.462-1.451 2.462 1.66 3.111 5.001 1.451 7.462s-5.002 3.11-7.462 1.45c-2.461-1.66-3.111-5-1.451-7.461z"/>
<path d="m413.256-364.747c1.66-2.462 5.001-3.111 7.462-1.451s3.109 5.001 1.449 7.462c-1.659 2.461-5 3.111-7.461 1.45-2.46-1.659-3.11-5-1.45-7.461z"/>
<path d="m401.035-372.99c1.66-2.461 5.001-3.111 7.462-1.45 2.461 1.66 3.11 5 1.45 7.461s-5.001 3.111-7.462 1.451-3.11-5.001-1.45-7.462z"/>
<path d="m411.901-375.919c1.66-2.461 5-3.111 7.462-1.45 2.46 1.66 3.109 5 1.45 7.461s-5 3.111-7.462 1.451c-2.461-1.66-3.11-5.001-1.45-7.462z"/>
<path d="m451.092-339.227c1.66-2.461 5-3.111 7.461-1.45 2.461 1.66 3.112 5.001 1.452 7.462s-5 3.11-7.461 1.45c-2.462-1.66-3.113-5.001-1.452-7.462z"/>
<path d="m438.871-347.47c1.66-2.461 5-3.11 7.461-1.45s3.112 5 1.452 7.462c-1.66 2.461-5.002 3.11-7.463 1.45-2.462-1.66-3.111-5.001-1.45-7.462z"/>
<path d="m449.736-350.399c1.66-2.461 5.002-3.11 7.462-1.45s3.109 5 1.449 7.462c-1.66 2.461-5 3.111-7.461 1.45-2.46-1.66-3.11-5-1.45-7.462z"/>
<path d="m488.928-313.706c1.66-2.461 5-3.11 7.461-1.45s3.112 5 1.452 7.462c-1.66 2.461-5 3.111-7.463 1.45-2.462-1.66-3.111-5-1.45-7.462z"/>
<path d="m476.705-321.95c1.66-2.461 5.002-3.111 7.462-1.451 2.461 1.66 3.109 5.001 1.452 7.462-1.66 2.461-5.002 3.111-7.463 1.451s-3.11-5.001-1.451-7.462z"/>
<path d="m476.705-321.95c1.66-2.461 5.002-3.111 7.462-1.451 2.461 1.66 3.109 5.001 1.452 7.462-1.66 2.461-5.002 3.111-7.463 1.451s-3.11-5.001-1.451-7.462z"/>
<path d="m487.572-324.879c1.66-2.461 5-3.111 7.462-1.45 2.461 1.66 3.109 5 1.449 7.461s-5 3.111-7.461 1.451c-2.46-1.66-3.11-5.001-1.45-7.462z"/>
<path d="m526.763-288.186c1.66-2.461 5-3.11 7.461-1.451 2.461 1.661 3.112 5.002 1.452 7.462s-5.002 3.11-7.463 1.45-3.11-5-1.45-7.461z"/>
<path d="m514.541-296.43c1.66-2.461 5-3.11 7.463-1.45 2.461 1.659 3.109 5 1.45 7.462-1.66 2.461-5 3.11-7.461 1.45s-3.112-5.001-1.452-7.462z"/>
<path d="m525.408-299.359c1.66-2.461 5-3.111 7.461-1.451s3.111 5.001 1.451 7.462-5 3.11-7.461 1.45c-2.461-1.659-3.111-5-1.451-7.461z"/>
<path d="m337.585-415.787c1.659-2.461 5.001-3.111 7.462-1.45 2.461 1.66 3.11 5 1.45 7.461-1.659 2.461-5.001 3.111-7.462 1.451s-3.111-5.001-1.45-7.462z"/>
<path d="m350.747-406.91c1.66-2.461 5.001-3.11 7.462-1.45s3.11 5 1.45 7.461c-1.659 2.461-5 3.111-7.461 1.451-2.462-1.66-3.111-5-1.451-7.462z"/>
<path d="m426.418-355.869c1.659-2.461 5-3.111 7.46-1.45 2.461 1.66 3.112 5.001 1.452 7.462s-5 3.11-7.462 1.45-3.11-5.001-1.45-7.462z"/>
<path d="m464.254-330.349c1.66-2.461 5-3.11 7.461-1.45s3.111 5.001 1.451 7.462-5.002 3.111-7.462 1.451c-2.462-1.661-3.11-5.002-1.45-7.463z"/>


	<path d="m502.09-304.829c1.658-2.461 5-3.111 7.461-1.45 2.461 1.66 3.109 5 1.451 7.462-1.66 2.461-5.002 3.11-7.462 1.45s-3.11-5.001-1.45-7.462z"/>
	<path d="m533.231-267.69-37.267-0.41-10.509-24.88-26.518-0.697-11.166-25.023-26.557 0.03-11.134-24.849-26.591-0.144-10.856-24.813-26.867-0.18-10.786-24.916-25.757-0.486m228.38 138.665-21.912 0.297-11.996-25.58-26.281 0.065-10.435-25.434-26.764-0.11-10.961-24.883-27.006 0.028-10.82-25.09-26.557 0.03-11.096-25.126-26.661-0.04-14.416-33.395"/><path d="m533.338-265.387-223.427-150.701" stroke-width="1.9843"/>
</g>

<g fill="#231f20">
	<path d="m373.126-395.46-0.698 3.423 0.634 0.254 1.712-2.694-1.648-0.983z"/>
	<path d="m376.361-393.429-1.048 1.805 0.792 0.38 1.807-1.395-1.551-0.79z"/>
	<path d="m411.08-370.026-0.698 3.423 0.634 0.254 1.712-2.695-1.648-0.982z"/>
	<path d="m414.313-367.996-1.048 1.805 0.792 0.38 1.808-1.395-1.552-0.79z"/>
	<path d="m448.924-344.433-0.697 3.423 0.633 0.254 1.712-2.695-1.648-0.982z"/>
	<path d="m452.158-342.402-1.047 1.804 0.791 0.38 1.807-1.395-1.551-0.789z"/>
	<path d="m486.861-319.12-0.698 3.423 0.633 0.254 1.713-2.694-1.648-0.983z"/>
	<path d="m490.096-317.09-1.047 1.804 0.791 0.38 1.806-1.395-1.55-0.789z"/>
	<path d="m388.688-258.356-4.625-0.125-2.063-2.688c-0.307-0.346-0.413-0.664-0.375-1.125 0.031-0.37 0.105-0.62 0.375-0.875 0.362-0.341 0.785-0.426 1.25-0.25l5.813-4.313c-0.208-0.701-0.191-1.188 0.063-1.875 0.195-0.525 0.37-0.841 0.813-1.188 0.468-0.364 0.844-0.495 1.438-0.5l4.688-0.813c0.163-1.577 1.352-2.87 2.938-2.813 1.75 0.062 2.98 1.152 3.313 2.813 0.438 2.188 0.188 3.375-0.375 5.375 0.819-1.15 1.229-1.368 1.313-3.375 0.062-1.5-0.188-2.188-0.438-3.563 2.214-1.458 3.534-2.193 5.938-3.313 2.064-0.96 3.269-1.43 5.438-2.125 1.917-0.202 3.009-0.258 4.938-0.25 1.537 0.01 2.406 0.048 3.938 0.188 0.367 0.053 0.584 0.145 0.875 0.375 0.345 0.273 0.505 0.515 0.625 0.938 0.935 1.303 1.593 1.976 2.875 2.938 1.22 0.917 2.005 1.345 3.438 1.875 0.033 0.634 0.019 0.996-0.063 1.625-0.103 0.798-0.216 1.248-0.5 2 0.68-0.539 1.012-0.961 1.375-1.75 0.324-0.703 0.428-1.162 0.438-1.938 3.262 0.873 5.104 1.354 8.375 2.188 2.629 0.671 4.227 0.69 6.75 1.688 2.049 0.81 3.213 1.338 5 2.625 1.596 1.151 2.066 2.326 3.688 3.438 1.358 0.932 2.264 1.23 3.75 1.938 1.133 0.54 1.78 0.829 2.938 1.313 0.526 1.836 0.787 2.884 1.188 4.75 0.479 2.226 0.699 3.495 1 5.75 1.637 1.005 2.545 1.598 4.125 2.688 1.237 0.852 1.924 1.348 3.125 2.25 0.186 0.159 0.276 0.279 0.375 0.5 0.092 0.205 0.121 0.338 0.125 0.563 0.209 2.483 0.293 3.886 0.375 6.375 0.072 2.17 0.086 3.394 0.063 5.563-0.19 0.559-0.366 0.865-0.75 1.313-0.663 0.771-1.255 1.116-2.25 1.313h-12c0-0.813 0.072-1.284 0.313-2.063 0.18-0.584 0.201-0.997 0.625-1.438 0.492-0.512 0.995-0.525 1.688-0.688 0.714-0.166 1.144-0.195 1.875-0.125l-0.188-3.75c-2.159-1.33-3.336-2.161-5.313-3.75-1.764-1.416-2.717-2.273-4.313-3.875-0.091-0.18-0.12-0.299-0.125-0.5-0.01-0.224 0.076-0.343 0.125-0.563 0.098-0.438 0.245-0.674 0.25-1.125 0.01-0.552-0.08-0.891-0.346-1.375 0.027 0.57-0.039 0.92-0.279 1.438-0.22 0.474-0.413 0.727-0.813 1.063 0.402 1.832 0.568 2.884 0.75 4.75 0.146 1.505 0.394 2.377 0.188 3.875-0.055 0.394-0.066 0.623-0.188 1-0.11 0.332-0.215 0.503-0.375 0.813-0.623 1.204-1.215 1.745-2.125 2.75-1.438 1.591-2.377 2.402-4.159 3.597h-12.404c-0.18-0.673-0.194-1.101-0.063-1.784 0.12-0.622 0.203-1.026 0.625-1.5 0.457-0.512 0.912-0.59 1.563-0.813 0.656-0.223 1.094-0.087 1.75-0.313 0.566-0.195 0.879-0.351 1.375-0.688 0.12-0.796 0.133-1.26 0.063-2.063-0.066-0.742-0.151-1.164-0.375-1.875-0.802-0.766-1.209-1.258-1.813-2.188-0.678-1.041-0.989-1.693-1.375-2.875-0.08-0.193-0.157-0.298-0.313-0.438-0.147-0.13-0.25-0.19-0.438-0.25-1.731-0.212-2.707-0.336-4.438-0.563-1.805-0.235-2.823-0.373-4.625-0.625-0.735-0.67-1.198-1.008-2.063-1.5-0.854-0.487-1.374-0.711-2.313-1l-0.875-3v3.25c0.166 0.753 0.307 1.173 0.625 1.875 0.352 0.777 0.605 1.199 1.125 1.875 0 2.755-0.209 4.344-0.938 7-0.858 3.125-1.648 4.863-3.438 7.563h-12.188c-0.114-0.697-0.114-1.114 0-1.813 0.12-0.737 0.185-1.207 0.625-1.813 0.461-0.635 0.92-0.843 1.625-1.188 0.749-0.365 1.231-0.497 2.063-0.563l-0.313-11.063c-0.454-0.719-0.677-1.15-1-1.938-0.396-0.962-0.565-1.537-0.75-2.563-0.194 0.858-0.223 1.377-0.125 2.25 0.104 0.935 0.264 1.473 0.688 2.313l-8.375 5.688-1.313 2.938h-11.375c-0.285-0.442-0.367-0.789-0.313-1.313 0.047-0.445 0.157-0.712 0.438-1.063l4.688-6.188c0.35-0.385 0.531-0.623 0.813-1.063 0.281-0.44 0.291-0.784 0.625-1.188 0.354-0.427 0.623-0.637 1.125-0.875 1.159-0.762 1.835-1.163 3.063-1.813 1.446-0.765 2.289-1.152 3.813-1.75l0.062-1.438c-2.198-0.258-3.437-0.508-5.563-1.125-1.414-0.41-2.181-0.739-3.563-1.25-0.391-0.145-0.591-0.291-1-0.375-0.312-0.063-0.495-0.038-0.813-0.063-0.634-0.048-0.995-0.039-1.625-0.124-1.066-0.143-1.667-0.282-2.688-0.625l-0.062-0.875 2.873-0.745z"/></g><g fill="#fff">
	<path d="m391.875-267.419 2.063 1.688-0.875 0.188-0.5 0.688-0.688-2.564z"/>
	<path d="m389.812-238.731h0.75l-0.419 1.563h-0.75l0.419-1.563z"/>
	<path d="m388.062-238.919h0.75l-0.419 1.563h-0.75l0.419-1.563z"/>
	<path d="m408.306-231.731h0.75l-0.418 1.563h-0.75l0.418-1.563z"/>
	<path d="m406.436-231.731h0.75l-0.42 1.563h-0.75l0.42-1.563z"/>
	<path d="m437.148-231.732h0.75l-0.418 1.563h-0.75l0.418-1.563z"/>
	<path d="m435.277-231.732h0.75l-0.418 1.563h-0.75l0.418-1.563z"/>
	<path d="m461.648-231.732h0.75l-0.418 1.563h-0.75l0.418-1.563z"/>
	<path d="m459.84-231.857h0.75l-0.418 1.563h-0.75l0.418-1.563z"/>
</g></g><path d="m208 32.6234h260.625v188.125c-1.209 71.354-59.264 128.298-130.625 128.126-71.188-0.17-128.795-56.948-130-128.126v-188.125z" stroke="#231f20" stroke-width="4.252" fill="none"/><g fill="#231f20"><path d="m223.568 10.6184c-0.066-1.755-0.4637-3.01375-1.2925-4.13875-1.4238-1.8875-3.9725-2.94625-7.0862-2.94625-5.2975 0-8.6413 2.5825-8.6413 6.65625 0 2.615 1.225 4.37 3.7413 5.3975 0.6949 0.265 2.2849 0.795 3.245 1.06 2.9475 0.795 2.1524 0.59625 2.4175 0.6625 0.795 0.2325 1.3575 0.43 1.9212 0.63 1.1912 0.46375 1.6888 1.0925 1.6888 2.0525 0 1.82125-1.5563 2.9475-4.0401 2.9475-1.7875 0-3.0787-0.43125-3.9725-1.35875-0.6624-0.695-0.9275-1.42375-0.9937-2.81375h-4.8013c0.1325 5.0325 3.5763 7.91375 9.47 7.91375 5.7288 0 9.205-2.6825 9.205-7.15125 0-2.02-0.895-3.675-2.5825-4.83375-1.0937-0.72875-2.4512-1.225-5.2975-1.92125l-0.53-0.1325-0.4975-0.1325c-1.06-0.265-0.6937-0.165-1.0925-0.265-1.3575-0.3975-1.92-0.59625-2.35-0.82875-0.5962-0.33125-0.8937-0.89375-0.8937-1.6225 0-1.58875 1.3575-2.51625 3.6087-2.51625 2.5501 0 4.0063 1.15875 4.1726 3.345h4.6012z"/><path d="m239.769 20.1547c0 1.0925-0.1649 1.6225-0.7287 2.25-0.7938 0.86125-1.8863 1.325-3.145 1.325-1.5238 0-2.45-0.8275-2.45-2.1525 0-1.4575 0.795-2.02 3.245-2.4175 1.9862-0.2975 2.3188-0.365 3.0787-0.82875v1.82375zm4.8013 5.9925c-0.4312-1.06-0.5637-2.02-0.5637-4.305l0.066-6.55625c0-2.31875-0.2975-3.14625-1.39-4.04-1.225-1.02625-3.145-1.5225-5.695-1.5225-4.5687 0-7.0863 1.82125-7.35 5.33125h4.1387c0.2975-1.72125 1.1263-2.38375 3.0788-2.38375 2.02 0 2.9475 0.6625 2.9475 2.08625 0 1.29125-0.4313 1.49-3.8737 1.92125-2.285 0.2975-3.2125 0.49625-4.0725 0.8275-1.9213 0.76125-2.915 2.21875-2.915 4.2375 0 2.98 2.1187 4.835 5.4637 4.835 2.3175 0 4.04-0.62875 5.4313-1.98625 0 0.59625 0.032 0.8275 0.265 1.55625h4.4687z"/><path d="m260.574 20.021c-0.3313 2.1525-1.5238 3.245-3.4763 3.245-2.285 0-3.6762-1.92-3.6762-5.06625 0-3.27875 1.4237-5.165 3.8412-5.165 1.6875 0 2.8462 0.99375 3.1788 2.715h4.3037c-0.3637-3.74125-3.2438-6.02625-7.55-6.02625-4.9325 0-8.1788 3.41-8.1788 8.57625 0 5 3.2463 8.2775 8.1138 8.2775 4.3037 0 7.1525-2.4175 7.715-6.55625h-4.2712z"/><path d="m274.62 4.0622h-4.3713v22.0862h4.3713v-7.815c0-1.855 0.1-2.51625 0.43-3.2125 0.5625-1.15875 1.6225-1.82 3.0137-1.82 0.96 0 1.755 0.33 2.2526 0.92625 0.3962 0.53 0.5287 1.125 0.5287 2.51625v9.40375h4.3713v-10.165c0-1.92-0.2325-3.04625-0.8288-4.00625-0.9262-1.4575-2.6163-2.25125-4.7675-2.25125-2.185 0-3.6425 0.76125-5.0338 2.61625v-0.695l0.033-0.33125v-7.2525z"/><path d="m304.529 14.7897c-0.1325-1.4575-0.4312-2.25125-1.1262-3.04625-1.1588-1.32375-3.2125-2.02-5.8275-2.02-4.47 0-7.02 1.755-7.02 4.8675 0 1.5225 0.73 2.815 1.9538 3.50875 0.9612 0.53125 1.6225 0.72875 4.6362 1.42375 1.1588 0.23125 2.0525 0.49625 2.4175 0.63 0.795 0.33125 1.1925 0.79375 1.1925 1.45625 0 1.25875-1.1262 2.02-2.9475 2.02-2.1525 0-3.1787-0.82875-3.3775-2.6825h-4.205c0.2313 3.7425 2.7813 5.62875 7.5163 5.62875 4.5687 0 7.4175-2.0525 7.4175-5.36375 0-1.42375-0.6288-2.68125-1.6888-3.3775-0.9937-0.6625-2.3187-1.12625-4.5687-1.55625-3.4763-0.72875-3.94-0.96125-3.94-2.08625 0-0.96 0.9275-1.52375 2.4837-1.52375 1.8875 0 2.7475 0.59625 2.98 2.11875h4.1038z"/><path d="m314.242 16.4784c0.2313-2.21875 1.6225-3.61 3.5763-3.61 1.9537 0 3.1787 1.29125 3.4437 3.61h-7.02zm7.02 4.7025c-0.6625 1.58875-1.6562 2.25125-3.2787 2.25125-2.3513 0-3.6425-1.4575-3.7426-4.13875h11.4888v-0.66125c0-5.365-3.145-8.9075-7.88-8.9075-4.6688 0-8.0788 3.57625-8.0788 8.4425 0 5.06625 3.245 8.41125 8.1775 8.41125 3.7425 0 6.6563-2.085 7.5163-5.39625h-4.2025v-0.001z"/><path d="m335.412 10.1547h-4.1725v15.9925h4.3712v-8.2775c0-1.39125 0.1325-2.1525 0.4313-2.815 0.5288-1.05875 1.6888-1.755 2.9475-1.755 1.2913 0 2.2187 0.49625 2.5825 1.39125 0.1975 0.52875 0.2637 1.125 0.2637 2.28375v9.1725h4.37v-10.065c0-2.08625-0.23-3.14625-0.86-4.17125-0.8625-1.35875-2.5487-2.18625-4.6025-2.18625-2.3187 0-3.9399 0.795-5.3312 2.64875v-2.21875z"/><path d="m359.062 15.9497h-8.3775v3.94h8.3775v-3.94z"/><path d="m376.35 17.671h-5.86l1.4225-3.97375c0.1987-0.595 0.5962-1.72125 0.8288-2.4175 0.2974-0.9275 0.4299-1.2575 0.7274-2.38375 0.3975 1.6225 0.695 2.65 1.4575 4.80125l1.4238 3.97375zm-0.3988-13.6412h-4.9662l-8.41 22.1188h4.9675l1.7875-4.93375h8.2112l1.755 4.93375h5.0663l-8.4113-22.1188z"/><path d="m393.079 10.1547h-4.1713v15.9925h4.37v-8.2775c0-1.39125 0.1312-2.1525 0.4312-2.815 0.53-1.05875 1.6875-1.755 2.9475-1.755 1.2913 0 2.2163 0.49625 2.5825 1.39125 0.1975 0.52875 0.2638 1.125 0.2638 2.28375v9.1725h4.37v-10.065c0-2.08625-0.2325-3.14625-0.86-4.17125-0.8625-1.35875-2.5513-2.18625-4.605-2.18625-2.3175 0-3.9388 0.795-5.33 2.64875v-2.21875z"/><path d="m414.645 4.0622h-4.3725v22.0862h4.3725v-7.815c0-1.855 0.098-2.51625 0.43-3.2125 0.565-1.15875 1.6237-1.82 3.0125-1.82 0.96 0 1.755 0.33 2.2512 0.92625 0.3975 0.53 0.5288 1.125 0.5288 2.51625v9.40375h4.3725v-10.165c0-1.92-0.2325-3.04625-0.8275-4.00625-0.9275-1.4575-2.6188-2.25125-4.7688-2.25125-2.185 0-3.6424 0.76125-5.0337 2.61625v-0.695l0.034-0.33125v-7.2525z"/><path d="m441.374 20.1547c0 1.0925-0.1663 1.6225-0.7276 2.25-0.7962 0.86125-1.8862 1.325-3.1462 1.325-1.5212 0-2.4487-0.8275-2.4487-2.1525 0-1.4575 0.7937-2.02 3.245-2.4175 1.9874-0.2975 2.3162-0.365 3.0775-0.82875v1.82375zm4.8024 5.9925c-0.4325-1.06-0.565-2.02-0.565-4.305l0.066-6.55625c0-2.31875-0.2975-3.14625-1.39-4.04-1.225-1.02625-3.1463-1.5225-5.695-1.5225-4.57 0-7.085 1.82125-7.3513 5.33125h4.1388c0.2975-1.72125 1.1275-2.38375 3.0812-2.38375 2.02 0 2.9475 0.6625 2.9475 2.08625 0 1.29125-0.4325 1.49-3.875 1.92125-2.285 0.2975-3.2125 0.49625-4.0725 0.8275-1.9225 0.76125-2.915 2.21875-2.915 4.2375 0 2.98 2.1188 4.835 5.4638 4.835 2.3162 0 4.0412-0.62875 5.43-1.98625 0 0.59625 0.034 0.8275 0.265 1.55625h4.4712z"/><path d="m455.92 4.0622h-4.37v22.0862h4.37v-22.0862z"/><path d="m470.561 10.1547h-3.2437v-4.835h-4.37v4.835h-2.6838v2.9475h2.6838v7.38375c0 2.7475 0.1 3.475 0.6275 4.27 0.73 1.15875 1.9562 1.6225 4.4037 1.6225 0.73 0 1.5238-0.0663 2.6175-0.165v-3.345c-0.5637 0.0663-0.9937 0.0663-1.3249 0.0663-1.69 0-1.9538-0.2975-1.9538-2.285v-7.54875h3.2438v-2.94625z"/>
</g>
</svg>