<svg id="Layer_1" data-name="Layer 1" xmlns="http://www.w3.org/2000/svg" xmlns:xlink="http://www.w3.org/1999/xlink" viewBox="0 0 400 300" data-imageid="open-map-isometric" imageName="Open map" class="illustrations_image" style="width: 188px;"><defs><linearGradient id="linear-gradient" x1="173.23" y1="237.82" x2="186.47" y2="229.5" gradientTransform="matrix(-1, 0, 0, 1, 413.2, 0)" gradientUnits="userSpaceOnUse"><stop offset="0" stop-opacity="0"/><stop offset="1"/></linearGradient><linearGradient id="linear-gradient-2" x1="237.79" y1="195.38" x2="254.43" y2="184.74" xlink:href="#linear-gradient"/><linearGradient id="linear-gradient-3" x1="92.59" y1="195.91" x2="113.4" y2="180.9" xlink:href="#linear-gradient"/><linearGradient id="linear-gradient-4" x1="128.06" y1="175.11" x2="144.22" y2="164.78" xlink:href="#linear-gradient"/><linearGradient id="linear-gradient-5" x1="142.55" y1="185.63" x2="158.71" y2="175.3" xlink:href="#linear-gradient"/><linearGradient id="linear-gradient-6" x1="141.2" y1="167.97" x2="157.35" y2="157.64" xlink:href="#linear-gradient"/><linearGradient id="linear-gradient-7" x1="175.77" y1="233.15" x2="199.41" y2="197.69" gradientUnits="userSpaceOnUse"><stop offset="0.01" stop-color="#fff" stop-opacity="0"/><stop offset="1" stop-color="#29abe2"/></linearGradient></defs><title>91-100</title><polyline points="83.74 79.26 74 120.62 106.8 101.9" fill="#b59659"/><polyline points="349.7 199.41 230.46 270.43 140.49 220.99 79.52 186.1 196.67 118.46" fill="#c9c9c9"/><polygon points="349.7 199.41 230.16 267.6 146.82 220.46 83.74 79.26 201.06 9.03 256.26 145.53 349.7 199.41" fill="#fff3d9"/><polygon points="338.8 197.83 229.03 260.44 152.5 217.15 93.75 81.77 198.3 21.41 252.99 148.35 338.8 197.83" fill="#68e1fd" class="target-color"/><polygon points="198.3 21.41 252.99 148.35 152.5 217.15 93.75 81.77 198.3 21.41" opacity="0.1"/><polyline points="98.88 77.16 151.44 90.75 175.74 145.09 260.51 207.54 266.75 238.92 278.92 231.98 270.16 201.26 182.45 141.39 157.27 83.75 109.73 72.54" fill="#f9efd7"/><polyline points="197.96 161.2 186.15 196.19 137.24 196.19 141.99 200.57 188.97 200.57 201.99 163.8" fill="#f9efd7"/><path d="M160.65,100.64l36.42-86.33-14,8.36-28.68,68C156.93,93.37,157.9,98.17,160.65,100.64Z" fill="#f9efd7"/><polyline points="293.73 171.13 258.33 194.45 253.88 190.16 289.7 168.29" fill="#f9efd7"/><path d="M320.58,207.54c.31.5-43-25.79-43-25.79l-36.79-25.06,7-21.9,1.16,3.5-5.39,16.53,79.87,51.78" fill="#f9efd7"/><ellipse cx="304.78" cy="187.81" rx="7.16" ry="3.28" fill="#b3b3b3"/><path d="M260.51,207.54s-45.17-8.31-57.28,11.33-3.57,25-3.57,25L192,239.48s-.41-23.33,22.12-32.89,42.11-4,42.11-4" fill="#f9efd7"/><path d="M246.58,235.59c-.76-.38-20.34-7.31-20.34-7.31l-2.44,4,14.92,11.13Z" opacity="0.28" fill="url(#linear-gradient)"/><rect x="228.48" y="221.8" width="2.72" height="18.04" rx="1.36" ry="1.36" transform="translate(459.67 461.63) rotate(-180)" fill="#bc532a"/><path d="M223.12,225.49c.63-2.72,3.42-14.72,8.36-11.19,2.53,1.81,3.25,4.63,4.26,7.39a22,22,0,0,1,1.57,7.15c.08,5-5,5.6-8.88,5.58-2.24,0-5.44-1.33-6-3.77-.32-1.47.22-3.2.54-4.63Z" fill="#2c9135"/><path d="M222.88,226l.12-.53c.56-2.41,2.8-12.07,6.73-11.83-1.17,5.09-2.89,10.47-2,15.68a11.92,11.92,0,0,0,2.08,5c-.52,0-1,0-1.53,0-2.24,0-5.44-1.33-6-3.77C222,229.18,222.57,227.45,222.88,226Z" fill="#156819"/><rect x="222.09" y="235.87" width="1.9" height="12.58" rx="0.95" ry="0.95" transform="translate(446.08 484.33) rotate(-180)" fill="#bc532a"/><path d="M218.35,238.45c.44-1.9,2.38-10.26,5.83-7.8,1.76,1.26,2.26,3.23,3,5.15a15.35,15.35,0,0,1,1.1,5c.06,3.48-3.48,3.91-6.19,3.89-1.56,0-3.79-.93-4.16-2.62a8.13,8.13,0,0,1,.37-3.23Z" fill="#2c9135"/><path d="M218.19,238.82l.08-.37c.39-1.68,2-8.41,4.69-8.25-.81,3.55-2,7.3-1.37,10.93a8.31,8.31,0,0,0,1.45,3.52c-.36,0-.72,0-1.07,0-1.56,0-3.79-.93-4.16-2.62A8.13,8.13,0,0,1,218.19,238.82Z" fill="#156819"/><rect x="237.71" y="231.21" width="2.6" height="17.25" rx="1.3" ry="1.3" transform="translate(478.03 479.66) rotate(-180)" fill="#bc532a"/><path d="M232.59,234.73c.6-2.6,3.26-14.07,8-10.7,2.42,1.73,3.1,4.43,4.07,7.07a21,21,0,0,1,1.5,6.83c.08,4.77-4.78,5.36-8.49,5.34-2.14,0-5.2-1.27-5.7-3.6-.3-1.4.21-3.06.51-4.43Z" fill="#2c9135"/><path d="M232.36,235.24l.11-.51c.53-2.3,2.68-11.54,6.43-11.31-1.12,4.87-2.76,10-1.88,15a11.39,11.39,0,0,0,2,4.82c-.5,0-1,0-1.47,0-2.14,0-5.2-1.27-5.7-3.6C231.55,238.27,232.06,236.61,232.36,235.24Z" fill="#156819"/><path d="M166.21,188.27c5.39,2,13.22,4.84,13.53,5l-7.6,4.9-8.74-6.48A10.36,10.36,0,0,0,166.21,188.27Z" opacity="0.28" fill="url(#linear-gradient-2)"/><path d="M163.51,192l-.1-.11v-34.5h4.52V192A3.82,3.82,0,0,1,163.51,192Z" fill="#d3894c"/><polygon points="165.67 169.21 173.13 173.75 175.74 172.24 174.67 168.88 167.44 164.67 165.67 169.21" fill="#d3894c"/><polygon points="167.44 165.53 174 169.44 175.17 172.57 173.13 173.75 167.56 170.36 167.44 165.53" fill="#c66b28"/><polyline points="165.18 161.66 158.95 158.37 156.1 160.14 158.95 163.09 163.28 164.06" fill="#d3894c"/><path d="M163.51,192l-.1-.11v-34.5h2v35.28A3.8,3.8,0,0,1,163.51,192Z" fill="#c66b28"/><polyline points="165.43 162.89 157.66 159 156.1 160.14 156.7 162.5 164.25 166.77" fill="#c66b28"/><ellipse cx="165.67" cy="157.39" rx="2.26" ry="1.14" fill="#eaa068"/><path d="M324.15,193.27c-.48-.24-18.55-6.83-18.55-6.83l-2,2.11,13,9.62Z" opacity="0.28" fill="url(#linear-gradient-3)"/><path d="M303.47,188.45l-.06-.11v-34.5h2.73v34.57A1.62,1.62,0,0,1,303.47,188.45Z" fill="#e6e6e6"/><path d="M303.47,188.45l-.06-.11v-34.5h1.22v35.28A1.83,1.83,0,0,1,303.47,188.45Z" fill="#b3b3b3"/><ellipse cx="304.78" cy="153.84" rx="1.37" ry="1.14" fill="#dddaa5"/><ellipse cx="304.58" cy="154.8" rx="7.94" ry="9.04" transform="translate(-27.36 73.9) rotate(-13.25)" fill="#ca4050"/><ellipse cx="304.34" cy="154.91" rx="6.57" ry="7.47" transform="translate(-27.4 73.85) rotate(-13.25)" fill="#fff"/><path d="M300.62,148l7.8,13s-1.21,3.2-1.81,1.79-7.89-13.42-7.89-13.42Z" fill="#ca4050"/><path d="M275.67,168.29c5.39,2,13.22,4.84,13.53,5l-6.88,4.44-8.22-7.18C275.28,169.62,275,169.62,275.67,168.29Z" opacity="0.28" fill="url(#linear-gradient-4)"/><path d="M261.18,178.81c5.39,2,13.22,4.84,13.53,5l-6.88,4.44-8.22-7.18C260.79,180.14,260.51,180.14,261.18,178.81Z" opacity="0.28" fill="url(#linear-gradient-5)"/><path d="M262.54,161.15c5.39,2,13.22,4.84,13.53,5l-6.88,4.44L261,163.4C262.15,162.48,261.86,162.48,262.54,161.15Z" opacity="0.28" fill="url(#linear-gradient-6)"/><rect x="259.14" y="172.77" width="3.15" height="8.98" rx="1.57" ry="1.57" transform="translate(521.42 354.51) rotate(180)" fill="#bc532a"/><circle cx="260.71" cy="172.77" r="6.04" fill="#9cd861"/><path d="M260.71,166.72a6.06,6.06,0,0,1,1,.09,7.08,7.08,0,0,0-3.55,7,6,6,0,0,0,3.83,4.83,6,6,0,1,1-1.29-11.95Z" fill="#54ba56"/><rect x="274.12" y="160.25" width="3.93" height="11.22" rx="1.87" ry="1.87" transform="translate(552.17 331.73) rotate(180)" fill="#bc532a"/><circle cx="276.08" cy="160.25" r="7.56" fill="#9cd861"/><path d="M276.08,152.7a7.58,7.58,0,0,1,1.27.11,8.85,8.85,0,0,0-4.44,8.79,7.46,7.46,0,0,0,4.79,6,7.56,7.56,0,1,1-1.61-14.94Z" fill="#54ba56"/><rect x="260.43" y="154.81" width="3.15" height="8.98" rx="1.57" ry="1.57" transform="translate(524 318.59) rotate(180)" fill="#bc532a"/><circle cx="262" cy="154.81" r="6.04" fill="#9cd861"/><path d="M262,148.76a6.06,6.06,0,0,1,1,.09,7.08,7.08,0,0,0-3.55,7,6,6,0,0,0,3.83,4.83A6,6,0,1,1,262,148.76Z" fill="#54ba56"/><polyline points="115.59 132.1 160.77 108.8 231.14 97.65 232.97 101.89 162.36 113.27 117.57 136.66" fill="#f9efd7"/><polygon points="228.22 200.66 205.14 192.68 151.22 223.79 188.05 244.91 228.22 200.66" opacity="0.48" fill="url(#linear-gradient-7)"/><path d="M228.34,183.74c.29,1.18-.16,16.86-.79,19.84s-5.22,2.52-6.59,2.18-3.9-2.06-5.62-2.41-11-3.73-10.32-6.23,2.75-4.67,4.93-4.44,8,1.56,8,1.56l1.7-14" fill="#063507"/><path d="M195.23,67.21a1.22,1.22,0,0,0-.44-1.46,30.21,30.21,0,0,1-4.69-4.09,6.1,6.1,0,0,1,0-.93c.21-2.42.47-4.84.7-7.26.09-.94-.78-1.29-1.49-1.07l.06-1.51a1.15,1.15,0,0,0-1.83-.94c0-.35,0-.7.06-1.05.1-1.53-2.28-1.53-2.38,0-.13,1.89-.22,3.79-.31,5.68-.06-1.42-.12-2.85-.14-4.27a1.19,1.19,0,0,0-2.38,0c0,3.61.24,7.2.55,10.8-.78-1.41-.7-2.89-.91-4.53s-2.59-1.52-2.38,0c.3,2.26.14,4.24,1.52,6.19a17.15,17.15,0,0,0,2.55,2.8,1.14,1.14,0,0,0,.19.27,43.83,43.83,0,0,0,6.82,5.25c1.05.66,2-.55,1.67-1.47a1.3,1.3,0,0,0,.09-.39,1.38,1.38,0,0,0,.12-.14,1.3,1.3,0,0,0,.73-.39l.22.19C194.7,69.86,196.39,68.2,195.23,67.21Z" fill="#f7931e"/><path d="M221,70.67c-5.31-.92-11.4-2.05-13.39-2.77-3.78-1.35-15.52-10-15.52-10s-6.36,6.88-6.39,11.27S204.49,84,209.93,84.86c2,.31,5.61,1.3,9.55,2.33A85.8,85.8,0,0,0,221,70.67Z" fill="#7db53c"/><path d="M227.12,111.81A135.54,135.54,0,0,1,229.73,133c.15,7.36,2.4,62.2,2.4,62.2s-6.21,3.68-18,.25c-1.71-.5-3.88-50.79-3.88-50.79l4-25.95" fill="#c66b28"/><path d="M175.28,99.92a1,1,0,0,0-.88-1.25L169.7,98c-1.06-.69-2.24-1.43-3.31-2.28a41.47,41.47,0,0,1-.08-4.53c.07-1.63-2.46-1.62-2.53,0,0,.53,0,1.06,0,1.59-.71-1.59-.78-3.82-1.08-5.41-.25-1.29-1.87-1.08-2.33-.11-.1-.48-.22-1-.32-1.44-.32-1.59-2.76-.92-2.44.67.11.57.25,1.14.37,1.7a1.26,1.26,0,0,0-2,1.26c.21.73.45,1.45.72,2.15-.88-.27-2,.36-1.61,1.46,1,2.9,1.94,6.6,4.55,8.5,3.3,2.39,7.91,2.85,11.82,3.4a1.42,1.42,0,0,0,1.58-1.54l.62.12c1.39.21,2.09-1.63,1.16-2.25A1.43,1.43,0,0,0,175.28,99.92Z" fill="#f7931e"/><path d="M206.23,83.83s-16.75,8.33-20.61,9.41-18.43.83-18.43.83-1.22,9.29,1.3,12.89,23.89,1.2,28.84-1.24,23.84-8.23,22.94-10.93S206.23,83.83,206.23,83.83Z" fill="#9cd861"/><path d="M203,206.61c.29,1.18-.16,16.86-.79,19.84s-5.22,2.52-6.59,2.18-3.9-2.06-5.62-2.41-11-3.73-10.32-6.23,2.75-4.67,4.93-4.44,8,1.56,8,1.56l1.7-14" fill="#063507"/><path d="M204,117.1s-7.52,27.76-10.59,52.62c-.74,6-6.91,41.54-6.91,41.54s10.17,3.72,19.22.81c0,0,10.76-45.4,11.22-46.28s2.14-28.15,3-49.25" fill="#c66b28"/><path d="M220.17,78.2l-4.47-1c-1.08.22-10.34,4.68-13.87,11.69a42.33,42.33,0,0,0-.58,6.33c-.19,2.84-.31,5.68-.27,8.52a61.84,61.84,0,0,0,.71,9.25c.22,1.31.34,2,.65,3.25a5.86,5.86,0,0,0,1.79.94c13.45,3.76,22.65-4.23,23-5.32s0-16.31-.21-25.36A8.71,8.71,0,0,0,220.17,78.2Z" fill="#9cd861"/><path d="M207.59,63.27s-2.05,15.05,3.53,16.32,11.65-5.32,11.93-8.41S215,57.84,207.59,63.27Z" fill="#f7931e"/><path d="M227,66a14.05,14.05,0,0,0-2.09-6.55c-1.7-3.1-5.36-4.16-8.57-4.78a7.49,7.49,0,0,0-4.1.35,3.42,3.42,0,0,0-4.74-.36,2.74,2.74,0,0,0-.54,3,2.79,2.79,0,0,0-2.55,2.55,4,4,0,0,0,1.39,4,2.42,2.42,0,0,0-.13,3.22c1.41,1.78,4.26,1.51,6.29,1.66a.86.86,0,0,0,.44-.08,4,4,0,0,0,.53.3l.32.13a.94.94,0,0,0,0,.14c.34,1.24-.47,2.27.37,3.47a2.71,2.71,0,0,0,1.2,1c.16.07.52.09.63.19.54.49.11,1.54-.15,2a.94.94,0,0,0,.43,1.3,1.07,1.07,0,0,0,.24.32.76.76,0,0,0,.85.53,6.82,6.82,0,0,0,3.77-2,17.52,17.52,0,0,0,1.69-1.31c1.86-2.1,3.76-4.44,4.47-7.22A7.71,7.71,0,0,0,227,66Z" fill="#653200"/><path d="M219.27,134.06a788.78,788.78,0,0,1-14.6,77.65c-.3,1.25,1.63,1.78,1.93.53a788.78,788.78,0,0,0,14.6-77.65C221.37,133.34,219.44,132.79,219.27,134.06Z" fill="#063507"/><polygon points="200.98 103.7 208.39 100.64 202.34 116.19 200.98 103.7" fill="#7db53c"/></svg>