<svg width="1728" height="392" viewBox="0 0 1728 392" fill="none" xmlns="http://www.w3.org/2000/svg">
<g opacity="0.48">
<path opacity="0.48" d="M1379.12 287.199C1378.26 287.199 1377.53 286.894 1376.92 286.283C1376.31 285.672 1376 284.937 1376 284.079V262.24C1376 261.382 1376.31 260.647 1376.92 260.036C1377.53 259.425 1378.26 259.12 1379.12 259.12H1380.68V257.56C1380.68 257.118 1380.83 256.747 1381.13 256.448C1381.43 256.149 1381.8 256 1382.24 256C1382.68 256 1383.05 256.149 1383.35 256.448C1383.65 256.747 1383.8 257.118 1383.8 257.56V259.12H1396.28V257.56C1396.28 257.118 1396.43 256.747 1396.73 256.448C1397.03 256.149 1397.4 256 1397.84 256C1398.28 256 1398.65 256.149 1398.95 256.448C1399.25 256.747 1399.4 257.118 1399.4 257.56V259.12H1400.96C1401.82 259.12 1402.55 259.425 1403.16 260.036C1403.77 260.647 1404.08 261.382 1404.08 262.24V284.079C1404.08 284.937 1403.77 285.672 1403.16 286.283C1402.55 286.894 1401.82 287.199 1400.96 287.199H1379.12ZM1379.12 284.079H1400.96V268.48H1379.12V284.079Z" fill="#404565"/>
<path opacity="0.48" d="M417.163 255.957C416.12 255.957 415.23 255.585 414.495 254.843C413.759 254.1 413.392 253.207 413.392 252.163C413.392 251.12 413.763 250.23 414.506 249.495C415.249 248.759 416.142 248.392 417.185 248.392C418.229 248.392 419.118 248.763 419.854 249.506C420.589 250.249 420.957 251.142 420.957 252.185C420.957 253.229 420.585 254.118 419.843 254.854C419.1 255.589 418.207 255.957 417.163 255.957ZM415.283 242.718V233.891C415.283 233.355 415.463 232.906 415.823 232.544C416.184 232.181 416.63 232 417.163 232C417.696 232 418.146 232.181 418.514 232.544C418.882 232.906 419.066 233.355 419.066 233.891V242.718C419.066 243.253 418.885 243.703 418.525 244.065C418.165 244.428 417.718 244.609 417.185 244.609C416.653 244.609 416.202 244.428 415.835 244.065C415.467 243.703 415.283 243.253 415.283 242.718ZM415.283 270.457V261.631C415.283 261.095 415.463 260.646 415.823 260.283C416.184 259.921 416.63 259.74 417.163 259.74C417.696 259.74 418.146 259.921 418.514 260.283C418.882 260.646 419.066 261.095 419.066 261.631V270.457C419.066 270.993 418.885 271.442 418.525 271.805C418.165 272.167 417.718 272.348 417.185 272.348C416.653 272.348 416.202 272.167 415.835 271.805C415.467 271.442 415.283 270.993 415.283 270.457ZM426.631 250.283H435.457C435.993 250.283 436.442 250.463 436.805 250.823C437.167 251.184 437.348 251.63 437.348 252.163C437.348 252.696 437.167 253.146 436.805 253.514C436.442 253.882 435.993 254.066 435.457 254.066H426.631C426.095 254.066 425.646 253.885 425.283 253.525C424.921 253.165 424.74 252.718 424.74 252.185C424.74 251.653 424.921 251.202 425.283 250.835C425.646 250.467 426.095 250.283 426.631 250.283ZM398.891 250.283H407.718C408.253 250.283 408.703 250.463 409.065 250.823C409.428 251.184 409.609 251.63 409.609 252.163C409.609 252.696 409.428 253.146 409.065 253.514C408.703 253.882 408.253 254.066 407.718 254.066H398.891C398.355 254.066 397.906 253.885 397.544 253.525C397.181 253.165 397 252.718 397 252.185C397 251.653 397.181 251.202 397.544 250.835C397.906 250.467 398.355 250.283 398.891 250.283Z" fill="#404565"/>
<path opacity="0.48" d="M329.366 121.909H336.048V123.776C336.048 124.101 336.191 124.326 336.477 124.449C336.763 124.572 337.024 124.516 337.26 124.28L339.939 121.601C340.209 121.328 340.344 121.01 340.344 120.646C340.344 120.282 340.207 119.964 339.932 119.692L337.26 117.032C337.024 116.797 336.763 116.738 336.477 116.855C336.191 116.972 336.048 117.194 336.048 117.521V119.403H328.37C327.942 119.403 327.584 119.548 327.294 119.837C327.005 120.127 326.86 120.486 326.86 120.913V125.668C326.86 126.023 326.98 126.321 327.221 126.561C327.461 126.801 327.759 126.921 328.114 126.921C328.469 126.921 328.766 126.801 329.006 126.561C329.246 126.321 329.366 126.023 329.366 125.668V121.909ZM333.128 137.972C332.751 137.972 332.38 137.897 332.014 137.746C331.648 137.595 331.314 137.368 331.011 137.066L318.385 124.441C318.083 124.139 317.857 123.807 317.706 123.442C317.555 123.078 317.48 122.707 317.48 122.33C317.48 121.953 317.555 121.582 317.706 121.216C317.857 120.85 318.083 120.516 318.385 120.213L331.011 107.588C331.312 107.285 331.645 107.059 332.01 106.908C332.374 106.757 332.745 106.682 333.122 106.682C333.499 106.682 333.87 106.757 334.236 106.908C334.602 107.059 334.936 107.285 335.239 107.588L347.864 120.213C348.166 120.515 348.393 120.847 348.544 121.212C348.695 121.576 348.77 121.947 348.77 122.324C348.77 122.701 348.695 123.072 348.544 123.438C348.393 123.804 348.166 124.138 347.864 124.441L335.239 137.066C334.937 137.368 334.604 137.595 334.24 137.746C333.876 137.897 333.505 137.972 333.128 137.972Z" fill="#404565"/>
<path opacity="0.48" d="M1276.8 48.7219H1272.84C1272.47 48.7219 1272.16 48.5955 1271.9 48.3428C1271.65 48.09 1271.53 47.7769 1271.53 47.4034C1271.53 47.0296 1271.65 46.7167 1271.9 46.4645C1272.16 46.212 1272.47 46.0857 1272.84 46.0857H1283.39C1283.76 46.0857 1284.07 46.2121 1284.33 46.4649C1284.58 46.7177 1284.71 47.0308 1284.71 47.4043C1284.71 47.778 1284.58 48.091 1284.33 48.3432C1284.07 48.5957 1283.76 48.7219 1283.39 48.7219H1279.43V58.8274C1279.43 59.2009 1279.31 59.514 1279.05 59.7668C1278.8 60.0193 1278.49 60.1455 1278.12 60.1455C1277.74 60.1455 1277.43 60.0193 1277.18 59.7668C1276.92 59.514 1276.8 59.2009 1276.8 58.8274V48.7219ZM1260 69.6425V63.8296C1260 63.3794 1260.15 63.0022 1260.46 62.6978C1260.76 62.3932 1261.14 62.2409 1261.59 62.2409H1263.18V43.9904H1261.59C1261.13 43.9904 1260.76 43.8381 1260.45 43.5334C1260.15 43.2291 1260 42.8518 1260 42.4016V36.5888C1260 36.1386 1260.15 35.7613 1260.46 35.4569C1260.76 35.1523 1261.14 35 1261.59 35H1267.4C1267.85 35 1268.23 35.1523 1268.53 35.4569C1268.84 35.7613 1268.99 36.1386 1268.99 36.5888V38.1771H1287.24V36.5857C1287.24 36.1349 1287.39 35.7579 1287.7 35.4547C1288 35.1516 1288.38 35 1288.83 35H1294.64C1295.09 35 1295.47 35.1523 1295.77 35.4569C1296.08 35.7613 1296.23 36.1386 1296.23 36.5888V42.4016C1296.23 42.8518 1296.08 43.2291 1295.77 43.5334C1295.47 43.8381 1295.09 43.9904 1294.64 43.9904H1293.05V62.2409H1294.65C1295.1 62.2409 1295.47 62.3932 1295.78 62.6978C1296.08 63.0022 1296.23 63.3794 1296.23 63.8296V69.6425C1296.23 70.0927 1296.08 70.47 1295.77 70.7743C1295.47 71.0789 1295.09 71.2312 1294.64 71.2312H1288.83C1288.38 71.2312 1288 71.0789 1287.7 70.7743C1287.39 70.47 1287.24 70.0927 1287.24 69.6425V68.0542H1268.99V69.6456C1268.99 70.0964 1268.84 70.4733 1268.53 70.7765C1268.23 71.0797 1267.85 71.2312 1267.4 71.2312H1261.59C1261.14 71.2312 1260.76 71.0789 1260.46 70.7743C1260.15 70.47 1260 70.0927 1260 69.6425ZM1268.99 65.418H1287.24V63.8266C1287.24 63.3758 1287.39 62.9988 1287.7 62.6956C1288 62.3925 1288.38 62.2409 1288.83 62.2409H1290.42V43.9904H1288.83C1288.38 43.9904 1288 43.8381 1287.7 43.5334C1287.39 43.2291 1287.24 42.8518 1287.24 42.4016V40.8133H1268.99V42.4047C1268.99 42.8555 1268.84 43.2325 1268.53 43.5356C1268.23 43.8388 1267.85 43.9904 1267.4 43.9904H1265.81V62.2409H1267.4C1267.86 62.2409 1268.23 62.3932 1268.54 62.6978C1268.84 63.0022 1268.99 63.3794 1268.99 63.8296V65.418Z" fill="#404565"/>
<path opacity="0.24" d="M1653.23 183.908L1661.23 175.856L1655 169.572L1652.83 171.743C1652.33 172.243 1651.71 172.508 1650.98 172.538C1650.24 172.568 1649.59 172.303 1649.03 171.743C1648.47 171.184 1648.19 170.541 1648.19 169.816C1648.19 169.09 1648.47 168.447 1649.03 167.887L1651.15 165.772L1645.6 160.224L1637.55 168.276L1653.23 183.908ZM1682.14 212.877L1690.18 204.824L1684.64 199.276L1682.47 201.392C1681.93 201.928 1681.3 202.202 1680.59 202.213C1679.87 202.225 1679.23 201.951 1678.67 201.392C1678.11 200.832 1677.83 200.199 1677.83 199.492C1677.83 198.784 1678.11 198.151 1678.67 197.591L1680.78 195.421L1674.54 189.227L1666.54 197.224L1682.14 212.877ZM1678.2 166.722L1683.83 172.361L1689.5 166.687L1683.81 160.994L1678.2 166.722ZM1636.83 216.892C1635.9 216.892 1635.13 216.581 1634.51 215.959C1633.89 215.338 1633.57 214.562 1633.57 213.632V204.901C1633.57 204.466 1633.65 204.053 1633.81 203.66C1633.97 203.266 1634.21 202.901 1634.55 202.564L1649.38 187.729L1633.03 171.334C1632.19 170.497 1631.77 169.478 1631.77 168.276C1631.77 167.074 1632.19 166.054 1633.03 165.218L1642.54 155.695C1643.38 154.858 1644.4 154.449 1645.6 154.468C1646.8 154.486 1647.82 154.914 1648.66 155.751L1665.14 172.145L1679.99 157.228C1680.55 156.668 1681.17 156.254 1681.84 155.986C1682.51 155.718 1683.21 155.584 1683.94 155.584C1684.67 155.584 1685.37 155.718 1686.04 155.986C1686.71 156.254 1687.32 156.668 1687.88 157.228L1693.21 162.721C1693.77 163.28 1694.18 163.895 1694.44 164.566C1694.69 165.236 1694.82 165.936 1694.82 166.666C1694.82 167.397 1694.69 168.083 1694.44 168.723C1694.18 169.363 1693.77 169.963 1693.21 170.523L1678.43 185.406L1694.75 201.801C1695.58 202.638 1696 203.657 1696 204.86C1696 206.062 1695.58 207.081 1694.75 207.918L1685.23 217.44C1684.39 218.277 1683.37 218.695 1682.17 218.695C1680.97 218.695 1679.95 218.277 1679.11 217.44L1662.72 201.079L1647.9 215.914C1647.56 216.252 1647.19 216.499 1646.8 216.656C1646.41 216.813 1645.99 216.892 1645.56 216.892H1636.83Z" fill="#404565"/>
<path opacity="0.24" d="M1437.99 201.085C1437.99 201.087 1437.99 201.09 1437.99 201.093C1438 201.096 1438 201.099 1437.99 201.102L1437.91 201.337C1437.9 201.34 1437.9 201.343 1437.9 201.345C1437.9 201.346 1437.89 201.347 1437.89 201.347C1437.89 201.347 1437.89 201.347 1437.88 201.345C1437.88 201.343 1437.88 201.34 1437.88 201.337L1437.84 201.239L1437.74 201.198C1437.73 201.197 1437.73 201.195 1437.73 201.193C1437.73 201.19 1437.73 201.188 1437.73 201.185C1437.73 201.182 1437.73 201.179 1437.73 201.176C1437.73 201.173 1437.73 201.171 1437.74 201.17L1437.97 201.081C1437.98 201.08 1437.98 201.081 1437.98 201.081C1437.99 201.082 1437.99 201.083 1437.99 201.085ZM1437.77 201.185L1437.86 201.219L1437.89 201.303L1437.96 201.114L1437.77 201.185Z" fill="#404565"/>
<path opacity="0.32" d="M1560.49 113.008C1560.1 112.715 1559.91 112.33 1559.92 111.853C1559.92 111.377 1560.12 110.986 1560.51 110.68C1560.78 110.48 1561.08 110.38 1561.41 110.38C1561.74 110.38 1562.04 110.48 1562.31 110.68L1574.84 120.319C1574.95 120.408 1575.08 120.452 1575.22 120.452C1575.36 120.452 1575.49 120.408 1575.6 120.319L1588.13 110.68C1588.4 110.48 1588.7 110.38 1589.03 110.38C1589.36 110.38 1589.66 110.48 1589.93 110.68C1590.32 110.986 1590.52 111.377 1590.52 111.853C1590.53 112.33 1590.33 112.715 1589.95 113.008L1577.42 122.678C1576.76 123.186 1576.02 123.44 1575.22 123.44C1574.42 123.44 1573.68 123.186 1573.02 122.678L1560.49 113.008ZM1573.02 113.933L1562.61 105.886C1561.69 105.174 1561.23 104.239 1561.23 103.084C1561.23 101.929 1561.69 100.995 1562.61 100.282L1573.02 92.2348C1573.68 91.7267 1574.42 91.4727 1575.22 91.4727C1576.02 91.4727 1576.76 91.7267 1577.42 92.2348L1587.83 100.282C1588.75 100.995 1589.21 101.929 1589.21 103.084C1589.21 104.239 1588.75 105.174 1587.83 105.886L1577.42 113.933C1576.76 114.441 1576.02 114.695 1575.22 114.695C1574.42 114.695 1573.68 114.441 1573.02 113.933Z" fill="#404565"/>
<path opacity="0.24" d="M25.5807 320C18.9311 320 13.4971 319.046 9.27892 317.139C5.06072 315.232 2.95162 312.768 2.95162 309.745C2.95162 308.549 3.35665 307.427 4.16671 306.377C4.97611 305.328 6.12757 304.382 7.62109 303.539C8.31242 303.085 9.06673 302.93 9.884 303.073C10.7013 303.217 11.3372 303.635 11.7917 304.326C12.2456 305.017 12.3844 305.765 12.2079 306.57C12.0315 307.375 11.5976 308.004 10.9062 308.458C10.4773 308.61 10.0673 308.799 9.6764 309.026C9.28482 309.253 9.05132 309.48 8.97589 309.707C9.62655 310.883 11.5628 311.908 14.7847 312.783C18.0059 313.659 21.6046 314.097 25.5807 314.097C29.5569 314.097 33.1556 313.659 36.3768 312.783C39.5986 311.908 41.5349 310.883 42.1856 309.707C42.1101 309.48 41.8766 309.253 41.4851 309.026C41.0941 308.799 40.6842 308.61 40.2552 308.458C39.5639 308.004 39.13 307.375 38.9535 306.57C38.7771 305.765 38.9158 305.017 39.3697 304.326C39.8243 303.635 40.4602 303.217 41.2775 303.073C42.0947 302.93 42.849 303.085 43.5404 303.539C45.0339 304.382 46.1854 305.328 46.9948 306.377C47.8048 307.427 48.2098 308.549 48.2098 309.745C48.2098 312.768 46.1007 315.232 41.8825 317.139C37.6643 319.046 32.2304 320 25.5807 320ZM25.5807 306.476C24.8691 306.476 24.1577 306.351 23.4467 306.101C22.735 305.851 22.0765 305.489 21.4711 305.015C14.2613 299.203 8.88045 293.532 5.32866 288.001C1.77622 282.471 0 277.038 0 271.7C0 267.32 0.773325 263.483 2.31998 260.188C3.86663 256.894 5.86323 254.135 8.3098 251.912C10.757 249.69 13.5007 248.02 16.5409 246.902C19.5804 245.784 22.5937 245.226 25.5807 245.226C28.5678 245.226 31.581 245.784 34.6206 246.902C37.6607 248.02 40.4044 249.69 42.8517 251.912C45.2982 254.135 47.2948 256.894 48.8415 260.188C50.3881 263.483 51.1615 267.32 51.1615 271.7C51.1615 277.038 49.3852 282.471 45.8328 288.001C42.281 293.532 36.9002 299.203 29.6904 305.015C29.085 305.489 28.4264 305.851 27.7148 306.101C27.0037 306.351 26.2924 306.476 25.5807 306.476ZM25.5807 278.261C27.5432 278.261 29.2194 277.572 30.6093 276.195C31.9999 274.818 32.6951 273.135 32.6951 271.147C32.6951 269.184 31.9999 267.508 30.6093 266.118C29.2194 264.728 27.5432 264.032 25.5807 264.032C23.6432 264.032 21.9732 264.728 20.5708 266.118C19.1678 267.508 18.4663 269.184 18.4663 271.147C18.4663 273.135 19.1678 274.818 20.5708 276.195C21.9732 277.572 23.6432 278.261 25.5807 278.261Z" fill="#404565"/>
<path opacity="0.24" d="M84.0778 83.024L85.2363 77.404L81.9511 76.9085C79.6787 76.5658 77.883 75.5888 76.5638 73.9774C75.2446 72.366 74.7854 70.5885 75.1861 68.6449C75.4757 67.2399 76.1941 66.0143 77.3414 64.968C78.4886 63.9217 79.8843 63.2449 81.5285 62.9376C82.1369 61.2185 83.3364 59.8843 85.127 58.9351C86.9176 57.9858 88.8533 57.6681 90.934 57.9819C93.0146 58.2957 94.7065 59.1605 96.0095 60.5763C97.3126 61.9922 97.9063 63.5968 97.7906 65.3902C99.2127 66.16 100.254 67.2043 100.913 68.523C101.573 69.8418 101.758 71.2037 101.468 72.6087C101.068 74.5523 99.9253 76.0882 98.0413 77.2166C96.1574 78.3449 94.0792 78.7377 91.8069 78.395L88.5216 77.8995L87.3631 83.5195L95.5763 84.7582C96.0417 84.8283 96.404 85.0218 96.6634 85.3386C96.9227 85.6554 97.0113 86.0128 96.9293 86.4109C96.8472 86.809 96.621 87.1189 96.2506 87.3407C95.8803 87.5625 95.4624 87.6383 94.997 87.5681L75.2853 84.5953C74.8199 84.5251 74.4575 84.3316 74.1982 84.0148C73.9388 83.6981 73.8502 83.3406 73.9323 82.9426C74.0143 82.5445 74.2406 82.2345 74.6109 82.0127C74.9813 81.7909 75.3992 81.7151 75.8646 81.7853L84.0778 83.024Z" fill="#404565"/>
<path opacity="0.48" d="M219.586 322.212C216.799 322.632 214.244 322.124 211.923 320.687C209.601 319.25 208.187 317.303 207.68 314.844C207.173 312.385 207.723 310.141 209.33 308.112C210.937 306.082 213.135 304.857 215.922 304.437C218.709 304.017 221.264 304.525 223.586 305.962C225.908 307.398 227.322 309.346 227.829 311.805C228.336 314.264 227.786 316.508 226.178 318.537C224.571 320.566 222.374 321.791 219.586 322.212ZM218.854 318.657C220.533 318.404 221.853 317.67 222.815 316.456C223.776 315.242 224.104 313.894 223.799 312.413C223.494 310.932 222.646 309.761 221.257 308.902C219.868 308.042 218.334 307.739 216.655 307.992C214.976 308.245 213.655 308.979 212.694 310.193C211.732 311.407 211.404 312.755 211.709 314.236C212.015 315.717 212.862 316.888 214.251 317.747C215.64 318.607 217.174 318.91 218.854 318.657ZM231.015 295.013L227.059 300.008L231.016 302.573C231.452 302.843 231.806 303.172 232.076 303.559C232.346 303.946 232.53 304.376 232.628 304.85L234.24 312.671C234.344 313.174 234.238 313.626 233.922 314.025C233.606 314.424 233.162 314.666 232.592 314.752C232.021 314.838 231.507 314.74 231.051 314.458C230.594 314.175 230.314 313.782 230.21 313.279L228.745 306.169L221.271 302.164C220.801 301.899 220.42 301.567 220.13 301.168C219.84 300.769 219.647 300.332 219.549 299.858C219.451 299.384 219.467 298.916 219.597 298.453C219.727 297.991 219.943 297.569 220.245 297.187L224.861 291.36C225.19 290.943 225.597 290.607 226.081 290.351C226.565 290.095 227.092 289.923 227.663 289.837C228.234 289.751 228.798 289.758 229.355 289.857C229.912 289.956 230.429 290.153 230.905 290.448L235.43 293.248C236.343 293.813 237.305 294.24 238.317 294.53C239.329 294.821 240.371 294.961 241.443 294.953C242.032 294.955 242.526 295.125 242.924 295.462C243.323 295.799 243.523 296.227 243.526 296.746C243.53 297.265 243.342 297.698 242.963 298.045C242.585 298.392 242.101 298.565 241.512 298.562C239.952 298.553 238.447 298.352 236.999 297.96C235.55 297.567 234.191 296.978 232.921 296.192L231.015 295.013ZM234.697 289.693C233.589 289.86 232.568 289.655 231.636 289.078C230.703 288.501 230.136 287.723 229.934 286.746C229.733 285.768 229.955 284.872 230.601 284.056C231.246 283.241 232.123 282.75 233.231 282.583C234.34 282.416 235.36 282.621 236.293 283.198C237.225 283.775 237.793 284.553 237.994 285.53C238.196 286.508 237.974 287.404 237.328 288.219C236.682 289.035 235.805 289.526 234.697 289.693ZM247.795 317.957C245.008 318.378 242.453 317.869 240.132 316.433C237.81 314.996 236.395 313.048 235.889 310.589C235.382 308.131 235.932 305.887 237.539 303.857C239.146 301.828 241.344 300.603 244.131 300.183C246.918 299.762 249.473 300.271 251.795 301.707C254.117 303.144 255.531 305.092 256.038 307.551C256.545 310.009 255.995 312.253 254.387 314.283C252.78 316.312 250.583 317.537 247.795 317.957ZM247.062 314.402C248.742 314.149 250.062 313.415 251.024 312.201C251.985 310.987 252.313 309.64 252.008 308.158C251.703 306.677 250.855 305.507 249.466 304.647C248.077 303.788 246.543 303.484 244.864 303.738C243.185 303.991 241.864 304.725 240.903 305.939C239.941 307.153 239.613 308.5 239.918 309.982C240.224 311.463 241.071 312.633 242.46 313.493C243.849 314.352 245.383 314.656 247.062 314.402Z" fill="#404565"/>
</g>
<g opacity="0.32" filter="url(#filter0_f_135_1496)">
<rect x="16.1673" width="205.42" height="475.102" fill="#006BC1"/>
<rect x="312.885" width="124.583" height="310.382" fill="#006BC1"/>
<rect x="1390.39" width="124.583" height="328.079" fill="#006BC1"/>
<rect x="1562.52" width="124.583" height="363" fill="#006BC1"/>
</g>
<g style="mix-blend-mode:plus-lighter" opacity="0.32" filter="url(#filter1_f_135_1496)">
<path d="M0 0H222.538L176.889 475H60.8652L0 0Z" fill="#006BC1"/>
<rect x="349.024" width="52.306" height="310" fill="#006BC1"/>
<rect x="1419.87" width="65.6203" height="328" fill="#006BC1"/>
<rect x="1145.03" width="65.6203" height="328" fill="#006BC1"/>
<rect x="1062.29" width="65.6203" height="355" fill="#006BC1"/>
<path d="M1506.41 0H1728L1674.74 315H1574.89L1506.41 0Z" fill="#006BC1"/>
</g>
<defs>
<filter id="filter0_f_135_1496" x="-183.833" y="-200" width="2070.94" height="875.102" filterUnits="userSpaceOnUse" color-interpolation-filters="sRGB">
<feFlood flood-opacity="0" result="BackgroundImageFix"/>
<feBlend mode="normal" in="SourceGraphic" in2="BackgroundImageFix" result="shape"/>
<feGaussianBlur stdDeviation="100" result="effect1_foregroundBlur_135_1496"/>
</filter>
<filter id="filter1_f_135_1496" x="-200" y="-200" width="2128" height="875" filterUnits="userSpaceOnUse" color-interpolation-filters="sRGB">
<feFlood flood-opacity="0" result="BackgroundImageFix"/>
<feBlend mode="normal" in="SourceGraphic" in2="BackgroundImageFix" result="shape"/>
<feGaussianBlur stdDeviation="100" result="effect1_foregroundBlur_135_1496"/>
</filter>
</defs>
</svg>
