<svg xmlns="http://www.w3.org/2000/svg" fill="none" viewBox="0 0 259 80">
  <path fill="#038BF3" d="M61.386 24.386 52 26.5l9.386 2.114L63.5 38l2.114-9.386L73 26.95V56a8 8 0 0 1-8 8h-1.5c-5 0-18.896-5-16.5-16.5 2-7 11-6.5 11-9.5s.5-4-1-5-5.662-.269-7-1-1.541-1.715-3-2.5c-1.459-.785-7-.5-7-.5s-2.5-3.306-6.5-2.5c-3.283.662-3.5 3.5-3.5 5-7.5 2-14 9.5-14 9.5V24a8 8 0 0 1 8-8h39.274l-1.888 8.386Zm81.281 3.47c2.496 0 4.661.464 6.496 1.392 1.835.928 3.248 2.304 4.24 4.128.992 1.813 1.488 4.021 1.488 6.624 0 2.603-.502 4.816-1.504 6.64-1.003 1.813-2.421 3.184-4.256 4.112-1.824.928-3.979 1.392-6.464 1.392-2.496 0-4.661-.46-6.496-1.376-1.824-.928-3.232-2.299-4.224-4.112-.992-1.824-1.488-4.043-1.488-6.656 0-2.613.496-4.827 1.488-6.64 1.003-1.824 2.417-3.195 4.241-4.112 1.834-.928 3.994-1.393 6.479-1.393Zm-29.051.032c3.701 0 6.474.677 8.32 2.032 1.845 1.355 2.768 3.466 2.768 6.336 0 5.61-3.675 8.416-11.024 8.416-.8 0-1.824-.038-3.072-.112v7.28H106V28.607a38.807 38.807 0 0 1 3.729-.543 40.872 40.872 0 0 1 3.887-.176Zm52.893 20.288h12.736v3.664h-17.344V28.16h4.608v20.016Zm40.904 3.664h-4.576l-2.528-6.768h-10.672l-2.544 6.768h-4.512l9.12-23.68h6.592l9.12 23.68Zm13.652-23.952c3.606 0 6.288.597 8.048 1.792 1.771 1.184 2.657 3.056 2.657 5.616 0 1.76-.475 3.221-1.424 4.384-.95 1.152-2.336 1.984-4.16 2.496l7.616 9.664h-5.153l-7.055-9.04h-.561c-.992 0-2.101-.043-3.328-.128v9.168h-4.527V28.768a34.464 34.464 0 0 1 3.807-.64 35.59 35.59 0 0 1 4.08-.24Zm-78.398 3.648c-2.368 0-4.213.694-5.536 2.08-1.312 1.376-1.968 3.473-1.968 6.288 0 2.912.651 5.067 1.952 6.464 1.312 1.397 3.163 2.096 5.552 2.096s4.235-.694 5.536-2.08c1.312-1.387 1.968-3.483 1.968-6.288 0-2.89-.661-5.04-1.983-6.448-1.312-1.409-3.153-2.112-5.521-2.112Zm48.282 10.016h8.032l-4.016-10.704-4.016 10.704Zm-76.933-10.368c-1.205 0-2.341.09-3.408.272v9.712c.982.139 2.016.208 3.104.208 1.536 0 2.779-.181 3.728-.544.96-.363 1.659-.918 2.096-1.664.448-.747.672-1.712.672-2.896 0-1.76-.506-3.045-1.52-3.856-1.002-.821-2.56-1.232-4.672-1.232Zm107.418-.016c-1.238 0-2.481.117-3.729.352v7.776c1.216.128 2.39.192 3.521.192 2.165 0 3.744-.33 4.736-.992 1.002-.672 1.504-1.728 1.504-3.168 0-1.003-.214-1.808-.641-2.416-.416-.608-1.067-1.05-1.952-1.328-.875-.277-2.021-.416-3.439-.416ZM65 16a8 8 0 0 1 8 8v2.049l-7.386-1.663L63.726 16H65Z"/>
</svg>
