<svg class="lp-hero-zone__bg" width="1728" height="682" viewBox="0 0 1728 682" fill="none" xmlns="http://www.w3.org/2000/svg" preserveAspectRatio="xMidYMin meet" aria-hidden="true">
	<g clip-path="url(#clip0_3_318)">
		<mask id="mask0_3_318" style="mask-type:alpha" maskUnits="userSpaceOnUse" x="0" y="0" width="1728" height="682">
			<path d="M0 0H1728C1728 0 1728 352.131 1728 388.052C760.95 388.052 9.44137e-06 682 9.44137e-06 682L0 0Z" fill="#00264E"/>
		</mask>
		<g mask="url(#mask0_3_318)">
			<path d="M0 0H1728C1728 0 1728 352.131 1728 388.052C760.95 388.052 9.44137e-06 682 9.44137e-06 682L0 0Z" fill="#0078D4"/>
			<g opacity="0.24" filter="url(#filter0_f_3_318)" style="mix-blend-mode:plus-lighter">
				<path d="M1543.5 -120.412L1594.79 135.598L1822.5 193.267L1594.79 250.936L1543.5 506.947L1492.21 250.936L1264.5 193.267L1492.21 135.598L1543.5 -120.412Z" fill="#006BC1"/>
			</g>
			<g opacity="0.24" style="mix-blend-mode:plus-lighter">
				<path d="M1543.5 -120.412L1594.79 135.598L1822.5 193.267L1594.79 250.936L1543.5 506.947L1492.21 250.936L1264.5 193.267L1492.21 135.598L1543.5 -120.412Z" fill="#006BC1"/>
			</g>
			<g opacity="0.08" filter="url(#filter1_f_3_318)" style="mix-blend-mode:plus-lighter">
				<path d="M412.239 133.113L279.9 166.674L412.239 200.235L442.05 349.221L471.861 200.235L576 173.82V634.948C576 705.082 525.498 761.938 463.2 761.938H442.05C371.55 761.938 175.619 682.569 209.4 500.022C237.6 388.906 364.499 396.842 364.5 349.221C364.5 301.601 371.55 285.727 350.4 269.853C329.25 253.979 270.571 265.584 251.7 253.979C232.829 242.374 229.969 226.764 209.4 214.295C188.834 201.828 110.7 206.358 110.7 206.358C110.7 206.358 75.45 153.88 19.05 166.674C-27.2376 177.174 -30.3 222.232 -30.3 246.042C-136.05 277.79 -227.7 396.843 -227.7 396.843V126.99C-227.7 56.8552 -177.198 5.11337e-07 -114.9 0H438.869L412.239 133.113Z" fill="white"/>
				<path d="M463.2 0C525.498 5.11337e-07 576 56.8552 576 126.99V159.512L471.861 133.113L445.231 0H463.2Z" fill="white"/>
			</g>
			<g opacity="0.08" style="mix-blend-mode:plus-lighter">
				<path d="M412.239 133.113L279.9 166.674L412.239 200.235L442.05 349.221L471.861 200.235L576 173.82V634.948C576 705.082 525.498 761.938 463.2 761.938H442.05C371.55 761.938 175.619 682.569 209.4 500.022C237.6 388.906 364.499 396.842 364.5 349.221C364.5 301.601 371.55 285.727 350.4 269.853C329.25 253.979 270.571 265.584 251.7 253.979C232.829 242.374 229.969 226.764 209.4 214.295C188.834 201.828 110.7 206.358 110.7 206.358C110.7 206.358 75.45 153.88 19.05 166.674C-27.2376 177.174 -30.3 222.232 -30.3 246.042C-136.05 277.79 -227.7 396.843 -227.7 396.843V126.99C-227.7 56.8552 -177.198 5.11337e-07 -114.9 0H438.869L412.239 133.113Z" fill="#F7F7F9"/>
				<path d="M463.2 0C525.498 5.11337e-07 576 56.8552 576 126.99V159.512L471.861 133.113L445.231 0H463.2Z" fill="#F7F7F9"/>
			</g>
			<g opacity="0.32" filter="url(#filter2_f_3_318)">
				<rect x="27.9" y="113.329" width="194.4" height="480.741" fill="#006BC1"/>
				<rect x="308.7" y="113.329" width="117.9" height="314.066" fill="#006BC1"/>
				<rect x="1328.4" y="113.329" width="117.9" height="331.973" fill="#006BC1"/>
				<rect x="1491.3" y="113.329" width="117.9" height="367.309" fill="#006BC1"/>
			</g>
			<g style="mix-blend-mode:plus-lighter" opacity="0.32" filter="url(#filter3_f_3_318)">
				<path d="M12.6 113.329H223.2L180 593.967H70.2L12.6 113.329Z" fill="#006BC1"/>
				<rect x="342.9" y="113.329" width="49.5" height="313.68" fill="#006BC1"/>
				<rect x="1356.3" y="113.329" width="62.1" height="331.893" fill="#006BC1"/>
				<rect x="1096.2" y="113.329" width="62.1" height="331.893" fill="#006BC1"/>
				<rect x="1017.9" y="113.329" width="62.1" height="359.214" fill="#006BC1"/>
				<path d="M1438.2 113.329H1647.9L1597.5 432.068H1503L1438.2 113.329Z" fill="#006BC1"/>
			</g>
		</g>
	</g>
	<defs>
		<filter id="filter0_f_3_318" x="1216.5" y="-168.412" width="654" height="723.359" filterUnits="userSpaceOnUse" color-interpolation-filters="sRGB">
			<feFlood flood-opacity="0" result="BackgroundImageFix"/>
			<feBlend mode="normal" in="SourceGraphic" in2="BackgroundImageFix" result="shape"/>
			<feGaussianBlur stdDeviation="24" result="effect1_foregroundBlur_3_318"/>
		</filter>
		<filter id="filter1_f_3_318" x="-275.7" y="-48" width="899.7" height="857.938" filterUnits="userSpaceOnUse" color-interpolation-filters="sRGB">
			<feFlood flood-opacity="0" result="BackgroundImageFix"/>
			<feBlend mode="normal" in="SourceGraphic" in2="BackgroundImageFix" result="shape"/>
			<feGaussianBlur stdDeviation="24" result="effect1_foregroundBlur_3_318"/>
		</filter>
		<filter id="filter2_f_3_318" x="-172.1" y="-86.6706" width="1981.3" height="880.741" filterUnits="userSpaceOnUse" color-interpolation-filters="sRGB">
			<feFlood flood-opacity="0" result="BackgroundImageFix"/>
			<feBlend mode="normal" in="SourceGraphic" in2="BackgroundImageFix" result="shape"/>
			<feGaussianBlur stdDeviation="100" result="effect1_foregroundBlur_3_318"/>
		</filter>
		<filter id="filter3_f_3_318" x="-187.4" y="-86.6706" width="2035.3" height="880.638" filterUnits="userSpaceOnUse" color-interpolation-filters="sRGB">
			<feFlood flood-opacity="0" result="BackgroundImageFix"/>
			<feBlend mode="normal" in="SourceGraphic" in2="BackgroundImageFix" result="shape"/>
			<feGaussianBlur stdDeviation="100" result="effect1_foregroundBlur_3_318"/>
		</filter>
		<clipPath id="clip0_3_318">
			<rect width="1728" height="682" fill="white"/>
		</clipPath>
	</defs>
</svg>
