<svg class="lp-header__icon" width="259" height="80" viewBox="0 0 259 80" fill="none" xmlns="http://www.w3.org/2000/svg" aria-label="POLAR">
<path d="M61.3857 24.3857L52 26.5L61.3857 28.6143L63.5 38L65.6143 28.6143L73 26.9502V56C73 60.4183 69.4183 64 65 64H63.5C58.5 64 44.6042 59 47 47.5C49 40.5 57.9999 41 58 38C58 35 58.5 34 57 33C55.5 32 51.3384 32.7311 50 32C48.6616 31.2689 48.4588 30.2855 47 29.5C45.5414 28.7146 40 29 40 29C40 29 37.5 25.694 33.5 26.5C30.2172 27.1615 30 30 30 31.5C22.5 33.5 16 41 16 41V24C16 19.5817 19.5817 16 24 16H63.2744L61.3857 24.3857ZM142.667 27.8555C145.163 27.8555 147.328 28.32 149.163 29.248C150.998 30.176 152.411 31.552 153.403 33.376C154.395 35.1893 154.891 37.3974 154.891 40C154.891 42.6026 154.389 44.8157 153.387 46.6396C152.384 48.453 150.966 49.824 149.131 50.752C147.307 51.6799 145.152 52.1436 142.667 52.1436C140.171 52.1436 138.006 51.6849 136.171 50.7676C134.347 49.8396 132.939 48.4693 131.947 46.6562C130.955 44.8323 130.459 42.6133 130.459 40C130.459 37.3867 130.955 35.1727 131.947 33.3594C132.95 31.5356 134.364 30.1653 136.188 29.248C138.022 28.3202 140.182 27.8555 142.667 27.8555ZM113.616 27.8877C117.317 27.8877 120.09 28.5654 121.936 29.9199C123.781 31.2746 124.704 33.3865 124.704 36.2559C124.704 41.8665 121.029 44.6719 113.68 44.6719C112.88 44.6719 111.856 44.6342 110.608 44.5596V51.8398H106V28.6074C107.259 28.3621 108.502 28.1808 109.729 28.0635C110.955 27.9462 112.251 27.8877 113.616 27.8877ZM166.509 48.1758H179.245V51.8398H161.901V28.1602H166.509V48.1758ZM207.413 51.8398H202.837L200.309 45.0723H189.637L187.093 51.8398H182.581L191.701 28.1602H198.293L207.413 51.8398ZM221.065 27.8877C224.671 27.8877 227.353 28.4851 229.113 29.6797C230.884 30.8637 231.77 32.7359 231.77 35.2959C231.77 37.0558 231.295 38.5171 230.346 39.6797C229.396 40.8317 228.01 41.6638 226.186 42.1758L233.802 51.8398H228.649L221.594 42.7998H221.033C220.041 42.7998 218.932 42.7572 217.705 42.6719V51.8398H213.178V28.7676C214.33 28.5009 215.599 28.2879 216.985 28.1279C218.372 27.9679 219.732 27.8877 221.065 27.8877ZM142.667 31.5361C140.299 31.5361 138.454 32.2296 137.131 33.6162C135.819 34.9922 135.163 37.0885 135.163 39.9043C135.163 42.8161 135.814 44.9709 137.115 46.3682C138.427 47.7653 140.278 48.4639 142.667 48.4639C145.056 48.4639 146.902 47.7705 148.203 46.3838C149.515 44.9971 150.171 42.901 150.171 40.0957C150.171 37.2051 149.51 35.0554 148.188 33.6475C146.876 32.2395 145.035 31.5361 142.667 31.5361ZM190.949 41.5518H198.981L194.965 30.8477L190.949 41.5518ZM114.016 31.1836C112.811 31.1836 111.675 31.2748 110.608 31.4561V41.168C111.59 41.3066 112.624 41.376 113.712 41.376C115.248 41.376 116.491 41.1947 117.44 40.832C118.4 40.4694 119.099 39.9145 119.536 39.168C119.984 38.4213 120.208 37.4555 120.208 36.2715C120.208 34.5119 119.701 33.2266 118.688 32.416C117.686 31.5947 116.128 31.1836 114.016 31.1836ZM221.434 31.168C220.196 31.168 218.953 31.2849 217.705 31.5195V39.2959C218.921 39.4239 220.095 39.4883 221.226 39.4883C223.391 39.4883 224.97 39.1574 225.962 38.4961C226.964 37.8241 227.466 36.7679 227.466 35.3281C227.466 34.3255 227.252 33.5201 226.825 32.9121C226.409 32.3041 225.758 31.8613 224.873 31.584C223.998 31.3067 222.852 31.168 221.434 31.168ZM65 16C69.4183 16 73 19.5817 73 24V26.0488L65.6143 24.3857L63.7256 16H65Z" fill="rgba(255, 255, 255, 0.95)"/>
</svg>
