<svg width="100%" height="96" viewBox="0 0 256 96" fill="none" xmlns="http://www.w3.org/2000/svg" preserveAspectRatio="xMidYMid slice">
<g clip-path="url(#clip0_293_1249)" filter="url(#filter0_i_293_1249)">
<rect width="256" height="96" fill="white"/>
<g filter="url(#filter1_ddgn_293_1249)">
<path d="M0 0H256V96H0V0Z" fill="#005FAD"/>
</g>
<g filter="url(#filter2_ddgn_293_1249)">
<circle cx="128" cy="97" r="91" fill="#0078D4"/>
</g>
<g filter="url(#filter3_ddgn_293_1249)">
<circle cx="127.5" cy="96.5" r="48.5" fill="#0794FA"/>
</g>
<g filter="url(#filter4_ddgn_293_1249)">
<path d="M120.812 96C118.651 96 116.809 95.225 115.285 93.675C113.762 92.125 113 90.2504 113 88.0513C113 86.2231 113.56 84.5936 114.68 83.1628C115.799 81.7321 117.232 80.7915 118.977 80.341C119.393 80.235 119.784 80.2947 120.148 80.5199C120.513 80.7451 120.747 81.0697 120.852 81.4936C120.956 81.9175 120.897 82.315 120.676 82.6859C120.454 83.0568 120.135 83.2953 119.719 83.4013C118.651 83.6662 117.785 84.2293 117.121 85.0904C116.457 85.9515 116.125 86.9385 116.125 88.0513C116.125 89.3761 116.581 90.5021 117.492 91.4295C118.404 92.3568 119.51 92.8205 120.812 92.8205C121.88 92.8205 122.831 92.4893 123.664 91.8269C124.497 91.1645 125.057 90.3167 125.344 89.2833C125.474 88.8594 125.721 88.5348 126.086 88.3096C126.451 88.0844 126.841 88.038 127.258 88.1705C127.674 88.303 127.993 88.5547 128.215 88.9256C128.436 89.2966 128.482 89.694 128.352 90.1179C127.883 91.8667 126.952 93.2842 125.559 94.3705C124.165 95.4568 122.583 96 120.812 96ZM133.312 71.359C132.453 71.359 131.717 71.0476 131.105 70.425C130.493 69.8024 130.188 69.0538 130.188 68.1795C130.188 67.3051 130.493 66.5566 131.105 65.934C131.717 65.3113 132.453 65 133.312 65C134.172 65 134.908 65.3113 135.52 65.934C136.132 66.5566 136.438 67.3051 136.438 68.1795C136.438 69.0538 136.132 69.8024 135.52 70.425C134.908 71.0476 134.172 71.359 133.312 71.359ZM125.5 86.4615C124.354 86.4615 123.469 85.9647 122.844 84.9712C122.219 83.9776 122.141 82.9376 122.609 81.8513L125.5 75.3333H121.945L121.516 76.4462C121.385 76.8171 121.138 77.1019 120.773 77.3006C120.409 77.4994 120.031 77.5325 119.641 77.4C119.198 77.2675 118.872 76.9959 118.664 76.5853C118.456 76.1746 118.443 75.744 118.625 75.2936L119.094 74.0615C119.328 73.4521 119.712 72.9818 120.246 72.6506C120.78 72.3194 121.359 72.1538 121.984 72.1538H130.109C131.281 72.1538 132.173 72.6374 132.785 73.6045C133.397 74.5716 133.469 75.5983 133 76.6846L130.422 82.4872H134.875C135.734 82.4872 136.47 82.7985 137.082 83.4212C137.694 84.0438 138 84.7923 138 85.6667V92.8205C138 93.2709 137.85 93.6485 137.551 93.9532C137.251 94.2579 136.88 94.4103 136.438 94.4103C135.995 94.4103 135.624 94.2579 135.324 93.9532C135.025 93.6485 134.875 93.2709 134.875 92.8205V86.4615H125.5Z" fill="#7FCEFF"/>
</g>
<g filter="url(#filter5_ddgn_293_1249)">
<path d="M204.657 53.8409C205.982 53.8409 207.116 53.3691 208.059 52.4256C209.003 51.482 209.474 50.3477 209.474 49.0227C209.474 48.7015 209.394 48.2197 209.234 47.5773C209.675 47.3765 210.026 47.0854 210.287 46.704C210.548 46.3225 210.679 45.8909 210.679 45.4091C210.679 44.7265 210.448 44.1544 209.986 43.6926C209.525 43.2309 208.953 43 208.27 43C207.788 43 207.357 43.1305 206.975 43.3915C206.594 43.6525 206.303 44.0038 206.102 44.4455C205.861 44.3652 205.62 44.3049 205.38 44.2648C205.139 44.2246 204.898 44.2045 204.657 44.2045C203.332 44.2045 202.198 44.6763 201.255 45.6199C200.311 46.5634 199.839 47.6977 199.839 49.0227C199.839 50.3477 200.311 51.482 201.255 52.4256C202.198 53.3691 203.332 53.8409 204.657 53.8409ZM195.022 74.9205C195.343 74.9205 195.624 74.8 195.865 74.5591C196.106 74.3182 196.226 74.0371 196.226 73.7159V72.5716C197.752 71.7284 199.318 70.6343 200.923 69.2892C202.529 67.9441 203.714 66.4686 204.476 64.8625L205.861 71.9091L201.044 86.3034V96H205.861V86.3636H210.679L216.46 94.0727C216.861 94.6349 217.383 94.9561 218.026 95.0364C218.668 95.1167 219.27 94.9561 219.832 94.5545C220.394 94.153 220.715 93.6311 220.796 92.9886C220.876 92.3462 220.715 91.7439 220.314 91.1818L216.701 86.3636H219.651C220.374 86.3636 220.946 86.0625 221.368 85.4602C221.789 84.858 222 84.1553 222 83.3523C222 81.947 221.729 80.0297 221.187 77.6006C220.645 75.1714 219.692 72.1701 218.327 68.5966C216.962 64.983 215.346 61.821 213.479 59.1108C211.612 56.4006 209.595 55.0455 207.427 55.0455C205.942 55.0455 204.908 55.5072 204.326 56.4307C203.744 57.3542 202.911 58.7394 201.827 60.5864C200.542 62.7545 199.378 64.3807 198.334 65.4648C197.29 66.5489 196.166 67.372 194.962 67.9341C194.52 67.6129 194.139 67.392 193.818 67.2716C193.496 67.1511 193.115 67.0909 192.673 67.0909C191.67 67.0909 190.807 67.4523 190.084 68.175C189.361 68.8977 189 69.7409 189 70.7045V94.7955C189 95.1167 189.12 95.3977 189.361 95.6386C189.602 95.8795 189.883 96 190.204 96C190.526 96 190.807 95.8795 191.047 95.6386C191.288 95.3977 191.409 95.1167 191.409 94.7955V70.7045C191.409 70.3833 191.529 70.1023 191.77 69.8614C192.011 69.6205 192.292 69.5 192.613 69.5C192.934 69.5 193.215 69.6205 193.456 69.8614C193.697 70.1023 193.818 70.3833 193.818 70.7045V73.7159C193.818 74.0371 193.938 74.3182 194.179 74.5591C194.42 74.8 194.701 74.9205 195.022 74.9205Z" fill="#7FCEFF"/>
</g>
<g filter="url(#filter6_ddgn_293_1249)">
<path d="M24.6176 60.8C23.4206 60.8 22.3958 60.3692 21.5434 59.5075C20.6909 58.6458 20.2647 57.61 20.2647 56.4C20.2647 55.19 20.6909 54.1542 21.5434 53.2925C22.3958 52.4308 23.4206 52 24.6176 52C25.8147 52 26.8395 52.4308 27.6919 53.2925C28.5444 54.1542 28.9706 55.19 28.9706 56.4C28.9706 57.61 28.5444 58.6458 27.6919 59.5075C26.8395 60.3692 25.8147 60.8 24.6176 60.8ZM47.4706 71.8C46.5637 71.8 45.7929 71.4792 45.1581 70.8375C44.5233 70.1958 44.2059 69.4167 44.2059 68.5C44.2059 67.5833 44.5233 66.8042 45.1581 66.1625C45.7929 65.5208 46.5637 65.2 47.4706 65.2C48.3774 65.2 49.1483 65.5208 49.7831 66.1625C50.4179 66.8042 50.7353 67.5833 50.7353 68.5C50.7353 69.4167 50.4179 70.1958 49.7831 70.8375C49.1483 71.4792 48.3774 71.8 47.4706 71.8ZM20.2647 93.8V80.6H19.1765C18.5598 80.6 18.0429 80.3892 17.6257 79.9675C17.2086 79.5458 17 79.0233 17 78.4V67.4C17 66.19 17.4262 65.1542 18.2787 64.2925C19.1311 63.4308 20.1559 63 21.3529 63H27.8824C28.6804 63 29.4059 63.1925 30.0588 63.5775C30.7118 63.9625 31.2377 64.5033 31.6368 65.2L39.4176 78.785L41.6485 75.43C41.9387 74.99 42.3287 74.6417 42.8184 74.385C43.3081 74.1283 43.825 74 44.3691 74H50.7353C51.6422 74 52.413 74.3208 53.0478 74.9625C53.6826 75.6042 54 76.3833 54 77.3V82.8C54 83.3867 53.737 83.7992 53.211 84.0375C52.6851 84.2758 52.2225 84.5967 51.8235 85V93.8C51.8235 94.4233 51.615 94.9458 51.1978 95.3675C50.7806 95.7892 50.2637 96 49.6471 96H45.2941C44.6775 96 44.1605 95.7892 43.7434 95.3675C43.3262 94.9458 43.1176 94.4233 43.1176 93.8V80.38L42.0294 81.92C41.848 82.2133 41.6032 82.4333 41.2949 82.58C40.9865 82.7267 40.6691 82.8 40.3426 82.8H37.8397C37.4407 82.8 37.087 82.7083 36.7787 82.525C36.4703 82.3417 36.2255 82.085 36.0441 81.755L31.1471 73.12V93.8C31.1471 94.4233 30.9385 94.9458 30.5213 95.3675C30.1042 95.7892 29.5873 96 28.9706 96H22.4412C21.8245 96 21.3076 95.7892 20.8904 95.3675C20.4733 94.9458 20.2647 94.4233 20.2647 93.8Z" fill="#7FCEFF"/>
</g>
</g>
<defs>
<filter id="filter0_i_293_1249" x="0" y="-2" width="256" height="98" filterUnits="userSpaceOnUse" color-interpolation-filters="sRGB">
<feFlood flood-opacity="0" result="BackgroundImageFix"/><feBlend mode="normal" in="SourceGraphic" in2="BackgroundImageFix" result="shape"/><feColorMatrix in="SourceAlpha" type="matrix" values="0 0 0 0 0 0 0 0 0 0 0 0 0 0 0 0 0 0 127 0" result="hardAlpha"/><feOffset dy="-2"/><feGaussianBlur stdDeviation="8"/><feComposite in2="hardAlpha" operator="arithmetic" k2="-1" k3="1"/><feColorMatrix type="matrix" values="0 0 0 0 0 0 0 0 0 0 0 0 0 0 0 0 0 0 0.25 0"/><feBlend mode="normal" in2="shape" result="effect1_innerShadow_293_1249"/>
</filter>
<filter id="filter1_ddgn_293_1249" x="-12" y="-16" width="288" height="128" filterUnits="userSpaceOnUse" color-interpolation-filters="sRGB">
<feFlood flood-opacity="0" result="BackgroundImageFix"/><feColorMatrix in="SourceAlpha" type="matrix" values="0 0 0 0 0 0 0 0 0 0 0 0 0 0 0 0 0 0 127 0" result="hardAlpha"/><feOffset dx="4"/><feGaussianBlur stdDeviation="8"/><feComposite in2="hardAlpha" operator="out"/><feColorMatrix type="matrix" values="0 0 0 0 0 0 0 0 0 0 0 0 0 0 0 0 0 0 0.08 0"/><feBlend mode="normal" in2="BackgroundImageFix" result="effect1_dropShadow_293_1249"/><feColorMatrix in="SourceAlpha" type="matrix" values="0 0 0 0 0 0 0 0 0 0 0 0 0 0 0 0 0 0 127 0" result="hardAlpha"/><feOffset dx="1"/><feGaussianBlur stdDeviation="1"/><feComposite in2="hardAlpha" operator="out"/><feColorMatrix type="matrix" values="0 0 0 0 0 0 0 0 0 0 0 0 0 0 0 0 0 0 0.32 0"/><feBlend mode="normal" in2="effect1_dropShadow_293_1249" result="effect2_dropShadow_293_1249"/><feBlend mode="normal" in="SourceGraphic" in2="effect2_dropShadow_293_1249" result="shape"/>
</filter>
<filter id="filter2_ddgn_293_1249" x="25" y="-10" width="214" height="214" filterUnits="userSpaceOnUse" color-interpolation-filters="sRGB">
<feFlood flood-opacity="0" result="BackgroundImageFix"/><feColorMatrix in="SourceAlpha" type="matrix" values="0 0 0 0 0 0 0 0 0 0 0 0 0 0 0 0 0 0 127 0" result="hardAlpha"/><feOffset dx="4"/><feGaussianBlur stdDeviation="8"/><feComposite in2="hardAlpha" operator="out"/><feColorMatrix type="matrix" values="0 0 0 0 0 0 0 0 0 0 0 0 0 0 0 0 0 0 0.08 0"/><feBlend mode="normal" in2="BackgroundImageFix" result="effect1_dropShadow_293_1249"/><feColorMatrix in="SourceAlpha" type="matrix" values="0 0 0 0 0 0 0 0 0 0 0 0 0 0 0 0 0 0 127 0" result="hardAlpha"/><feOffset dx="1"/><feGaussianBlur stdDeviation="1"/><feComposite in2="hardAlpha" operator="out"/><feColorMatrix type="matrix" values="0 0 0 0 0 0 0 0 0 0 0 0 0 0 0 0 0 0 0.32 0"/><feBlend mode="normal" in2="effect1_dropShadow_293_1249" result="effect2_dropShadow_293_1249"/><feBlend mode="normal" in="SourceGraphic" in2="effect2_dropShadow_293_1249" result="shape"/>
</filter>
<filter id="filter3_ddgn_293_1249" x="67" y="32" width="129" height="129" filterUnits="userSpaceOnUse" color-interpolation-filters="sRGB">
<feFlood flood-opacity="0" result="BackgroundImageFix"/><feColorMatrix in="SourceAlpha" type="matrix" values="0 0 0 0 0 0 0 0 0 0 0 0 0 0 0 0 0 0 127 0" result="hardAlpha"/><feOffset dx="4"/><feGaussianBlur stdDeviation="8"/><feComposite in2="hardAlpha" operator="out"/><feColorMatrix type="matrix" values="0 0 0 0 0 0 0 0 0 0 0 0 0 0 0 0 0 0 0.08 0"/><feBlend mode="normal" in2="BackgroundImageFix" result="effect1_dropShadow_293_1249"/><feColorMatrix in="SourceAlpha" type="matrix" values="0 0 0 0 0 0 0 0 0 0 0 0 0 0 0 0 0 0 127 0" result="hardAlpha"/><feOffset dx="1"/><feGaussianBlur stdDeviation="1"/><feComposite in2="hardAlpha" operator="out"/><feColorMatrix type="matrix" values="0 0 0 0 0 0 0 0 0 0 0 0 0 0 0 0 0 0 0.32 0"/><feBlend mode="normal" in2="effect1_dropShadow_293_1249" result="effect2_dropShadow_293_1249"/><feBlend mode="normal" in="SourceGraphic" in2="effect2_dropShadow_293_1249" result="shape"/>
</filter>
<filter id="filter4_ddgn_293_1249" x="97" y="51" width="57" height="63" filterUnits="userSpaceOnUse" color-interpolation-filters="sRGB">
<feFlood flood-opacity="0" result="BackgroundImageFix"/><feColorMatrix in="SourceAlpha" type="matrix" values="0 0 0 0 0 0 0 0 0 0 0 0 0 0 0 0 0 0 127 0" result="hardAlpha"/><feOffset dy="1"/><feGaussianBlur stdDeviation="1"/><feComposite in2="hardAlpha" operator="out"/><feColorMatrix type="matrix" values="0 0 0 0 0 0 0 0 0 0 0 0 0 0 0 0 0 0 0.32 0"/><feBlend mode="normal" in2="BackgroundImageFix" result="effect1_dropShadow_293_1249"/><feColorMatrix in="SourceAlpha" type="matrix" values="0 0 0 0 0 0 0 0 0 0 0 0 0 0 0 0 0 0 127 0" result="hardAlpha"/><feOffset dy="2"/><feGaussianBlur stdDeviation="8"/><feComposite in2="hardAlpha" operator="out"/><feColorMatrix type="matrix" values="0 0 0 0 0 0 0 0 0 0 0 0 0 0 0 0 0 0 0.25 0"/><feBlend mode="normal" in2="effect1_dropShadow_293_1249" result="effect2_dropShadow_293_1249"/><feBlend mode="normal" in="SourceGraphic" in2="effect2_dropShadow_293_1249" result="shape"/>
</filter>
<filter id="filter5_ddgn_293_1249" x="173" y="29" width="65" height="85" filterUnits="userSpaceOnUse" color-interpolation-filters="sRGB">
<feFlood flood-opacity="0" result="BackgroundImageFix"/><feColorMatrix in="SourceAlpha" type="matrix" values="0 0 0 0 0 0 0 0 0 0 0 0 0 0 0 0 0 0 127 0" result="hardAlpha"/><feOffset dy="1"/><feGaussianBlur stdDeviation="1"/><feComposite in2="hardAlpha" operator="out"/><feColorMatrix type="matrix" values="0 0 0 0 0 0 0 0 0 0 0 0 0 0 0 0 0 0 0.32 0"/><feBlend mode="normal" in2="BackgroundImageFix" result="effect1_dropShadow_293_1249"/><feColorMatrix in="SourceAlpha" type="matrix" values="0 0 0 0 0 0 0 0 0 0 0 0 0 0 0 0 0 0 127 0" result="hardAlpha"/><feOffset dy="2"/><feGaussianBlur stdDeviation="8"/><feComposite in2="hardAlpha" operator="out"/><feColorMatrix type="matrix" values="0 0 0 0 0 0 0 0 0 0 0 0 0 0 0 0 0 0 0.25 0"/><feBlend mode="normal" in2="effect1_dropShadow_293_1249" result="effect2_dropShadow_293_1249"/><feBlend mode="normal" in="SourceGraphic" in2="effect2_dropShadow_293_1249" result="shape"/>
</filter>
<filter id="filter6_ddgn_293_1249" x="1" y="38" width="69" height="76" filterUnits="userSpaceOnUse" color-interpolation-filters="sRGB">
<feFlood flood-opacity="0" result="BackgroundImageFix"/><feColorMatrix in="SourceAlpha" type="matrix" values="0 0 0 0 0 0 0 0 0 0 0 0 0 0 0 0 0 0 127 0" result="hardAlpha"/><feOffset dy="1"/><feGaussianBlur stdDeviation="1"/><feComposite in2="hardAlpha" operator="out"/><feColorMatrix type="matrix" values="0 0 0 0 0 0 0 0 0 0 0 0 0 0 0 0 0 0 0.32 0"/><feBlend mode="normal" in2="BackgroundImageFix" result="effect1_dropShadow_293_1249"/><feColorMatrix in="SourceAlpha" type="matrix" values="0 0 0 0 0 0 0 0 0 0 0 0 0 0 0 0 0 0 127 0" result="hardAlpha"/><feOffset dy="2"/><feGaussianBlur stdDeviation="8"/><feComposite in2="hardAlpha" operator="out"/><feColorMatrix type="matrix" values="0 0 0 0 0 0 0 0 0 0 0 0 0 0 0 0 0 0 0.25 0"/><feBlend mode="normal" in2="effect1_dropShadow_293_1249" result="effect2_dropShadow_293_1249"/><feBlend mode="normal" in="SourceGraphic" in2="effect2_dropShadow_293_1249" result="shape"/>
</filter>
<clipPath id="clip0_293_1249">
<rect width="256" height="96" fill="white"/>
</clipPath>
</defs>
</svg>
