<svg width="382" height="361" viewBox="0 0 382 361" fill="none" xmlns="http://www.w3.org/2000/svg">
<g opacity="0.08" style="mix-blend-mode:plus-lighter">
<path d="M304.164 63.0678L241.263 78.9688L304.164 94.8697L318.333 165.458L332.503 94.8697L382 82.3546V300.833C382 334.062 357.996 361 328.386 361H318.333C284.825 361 191.698 323.396 207.754 236.906C221.158 184.261 281.473 188.02 281.474 165.458C281.474 142.896 284.824 135.375 274.772 127.854C264.719 120.333 236.829 125.832 227.86 120.333C218.89 114.835 217.531 107.439 207.754 101.531C197.979 95.6245 160.842 97.7708 160.842 97.7708C160.842 97.7708 144.088 72.9072 117.281 78.9688C95.2801 83.9435 93.8246 105.292 93.8246 116.573C43.5614 131.615 0 188.021 0 188.021V60.1667C3.45423e-06 26.9375 24.0038 2.42267e-07 53.614 0H316.822L304.164 63.0678Z" fill="#F7F7F9"/>
<path d="M328.386 0C357.996 2.42267e-07 382 26.9375 382 60.1667V75.5756L332.503 63.0678L319.845 0H328.386Z" fill="#F7F7F9"/>
</g>
</svg>
