<?xml version="1.0" encoding="UTF-8" standalone="no"?>
<!-- Created with Inkscape (http://www.inkscape.org/) -->
<svg width="41.470509mm" height="50.199638mm" viewBox="0 0 41.470509 50.199639" version="1.1" id="svg5" xml:space="preserve" inkscape:version="1.3-beta (cedbd6c6ff, 2023-05-28)" sodipodi:docname="Wappen_Sachsen-Anhaltvvvvvvvvvvvvvvvv.svg" xmlns:inkscape="http://www.inkscape.org/namespaces/inkscape" xmlns:sodipodi="http://sodipodi.sourceforge.net/DTD/sodipodi-0.dtd" xmlns="http://www.w3.org/2000/svg" xmlns:svg="http://www.w3.org/2000/svg"><sodipodi:namedview id="namedview7" pagecolor="#ffffff" bordercolor="#999999" borderopacity="1" inkscape:showpageshadow="0" inkscape:pageopacity="0" inkscape:pagecheckerboard="0" inkscape:deskcolor="#d1d1d1" inkscape:document-units="mm" showgrid="false" inkscape:zoom="2" inkscape:cx="55" inkscape:cy="83" inkscape:window-width="1920" inkscape:window-height="1001" inkscape:window-x="-8" inkscape:window-y="-8" inkscape:window-maximized="1" inkscape:current-layer="layer1"/><defs id="defs2"><clipPath clipPathUnits="userSpaceOnUse" id="clipPath402"><path d="M 142.441,36 H 277.795 V 139.276 H 142.441 Z" id="path400"/></clipPath><clipPath clipPathUnits="userSpaceOnUse" id="clipPath422"><path d="m 190.777,106.781 c 0,-7.633 6.19,-13.822 13.824,-13.822 v 0 c 7.632,0 13.821,6.189 13.821,13.822 v 0 19.638 l -27.645,0.004 z" id="path420"/></clipPath><clipPath clipPathUnits="userSpaceOnUse" id="clipPath432"><path d="M 142.441,43.276 H 266.81 v 83.173 H 142.441 Z" id="path430"/></clipPath><clipPath clipPathUnits="userSpaceOnUse" id="clipPath444"><path d="M 142.441,36 H 277.795 V 139.276 H 142.441 Z" id="path442"/></clipPath><clipPath clipPathUnits="userSpaceOnUse" id="clipPath516"><path d="m 190.777,106.781 c 0,-7.633 6.19,-13.822 13.824,-13.822 v 0 c 7.632,0 13.821,6.189 13.821,13.822 v 0 z" id="path514"/></clipPath><clipPath clipPathUnits="userSpaceOnUse" id="clipPath694"><path d="m 190.777,107.945 h 27.644 v 18.478 h -27.644 z" id="path692"/></clipPath><clipPath clipPathUnits="userSpaceOnUse" id="clipPath710"><path d="M 142.441,36 H 277.795 V 139.276 H 142.441 Z" id="path708"/></clipPath><clipPath clipPathUnits="userSpaceOnUse" id="clipPath762"><path d="m 190.777,107.945 h 27.644 v 18.478 h -27.644 z" id="path760"/></clipPath><clipPath clipPathUnits="userSpaceOnUse" id="clipPath778"><path d="M 142.441,36 H 277.795 V 139.276 H 142.441 Z" id="path776"/></clipPath><clipPath clipPathUnits="userSpaceOnUse" id="clipPath806"><path d="m 190.777,107.945 h 27.644 v 18.478 h -27.644 z" id="path804"/></clipPath><clipPath clipPathUnits="userSpaceOnUse" id="clipPath842"><path d="M 142.441,36 H 277.795 V 139.276 H 142.441 Z" id="path840"/></clipPath></defs><g inkscape:label="Ebene 1" inkscape:groupmode="layer" id="layer1" transform="translate(-17.761257,-231.30463)"><g id="g371" transform="translate(-0.33478526,-0.03825461)" style="opacity:1"><g id="g6974" transform="matrix(4.252277,0,0,4.252277,-777.5346,-491.17373)"><g id="g6498" transform="matrix(0.35277777,0,0,-0.35277777,119.80508,214.5121)"><g id="g6496" clip-path="url(#clipPath402)"><path d="m 190.778,126.423 h 27.644 v -18.478 h -27.644 z" style="fill:#fcd116;fill-opacity:1;fill-rule:nonzero;stroke:none" id="path6484"/><path d="m 190.778,124.313 h 27.644 v -1.819 h -27.644 z" style="fill:#000000;fill-opacity:1;fill-rule:nonzero;stroke:none" id="path6486"/><path d="m 190.778,120.676 h 27.644 v -1.819 h -27.644 z" style="fill:#000000;fill-opacity:1;fill-rule:nonzero;stroke:none" id="path6488"/><path d="m 190.778,117.038 h 27.644 v -1.819 h -27.644 z" style="fill:#000000;fill-opacity:1;fill-rule:nonzero;stroke:none" id="path6490"/><path d="m 190.778,113.401 h 27.644 v -1.819 h -27.644 z" style="fill:#000000;fill-opacity:1;fill-rule:nonzero;stroke:none" id="path6492"/><path d="m 190.778,109.764 h 27.644 v -1.819 h -27.644 z" style="fill:#000000;fill-opacity:1;fill-rule:nonzero;stroke:none" id="path6494"/></g></g><g id="g6504" transform="matrix(0.35277777,0,0,-0.35277777,119.80508,214.5121)"><g id="g6502" clip-path="url(#clipPath422)"><path d="m 190.778,92.232 h 27.644 v 15.713 h -27.644 z" style="fill:#ffffff;fill-opacity:1;fill-rule:nonzero;stroke:none" id="path6500"/></g></g><g id="g6512" transform="matrix(0.35277777,0,0,-0.35277777,119.80508,214.5121)"><g id="g6510" clip-path="url(#clipPath432)"><g id="g6508" transform="translate(204.6003,92.9594)"/></g></g><g id="g6580" transform="matrix(0.35277777,0,0,-0.35277777,119.80508,214.5121)"><g id="g6578" clip-path="url(#clipPath444)"><path d="m 209.838,117.038 h 8.584 v 9.384 h -8.584 z" style="fill:#000000;fill-opacity:1;fill-rule:nonzero;stroke:none" id="path6514"/><path d="m 209.91,117.038 h 8.511 v 9.384 h -8.511 z" style="fill:#ffffff;fill-opacity:1;fill-rule:nonzero;stroke:none" id="path6516"/><g id="g6520" transform="translate(215.032,123.1288)"><path d="m 0,0 c -0.489,-0.006 -0.413,0.395 -0.352,0.691 0.062,0.3 0.151,0.469 0.187,0.718 0.023,0.157 -0.041,0.217 -0.14,0.254 C -0.442,1.713 -0.5,1.713 -0.623,1.747 -0.791,1.794 -0.89,1.892 -1.05,1.873 -1.108,1.866 -1.129,1.821 -1.162,1.772 -1.212,1.777 -1.303,1.785 -1.411,1.781 -1.549,1.776 -1.68,1.738 -1.742,1.655 -1.805,1.569 -1.822,1.481 -1.835,1.389 -1.847,1.297 -1.871,1.243 -1.884,1.148 c 0.079,0.054 0.213,0.138 0.305,0.138 0.074,0 0.118,-0.009 0.184,-0.042 -0.067,-0.05 -0.257,-0.13 -0.435,-0.155 -0.123,-0.017 -0.191,-0.015 -0.319,0 -0.049,0.006 -0.1,-0.003 -0.117,-0.05 -0.035,-0.098 0.289,-0.22 0.5,-0.207 0.085,0.005 0.134,0.017 0.212,0.052 C -1.569,0.848 -1.604,0.811 -1.637,0.765 -1.654,0.741 -1.665,0.727 -1.683,0.703 c 0.096,0.022 0.204,-0.015 0.405,0.155 0.077,0.065 0.125,0.104 0.183,0.187 C -1.108,0.874 -1.128,0.777 -1.183,0.615 -1.242,0.442 -1.296,0.305 -1.392,0.195 -1.498,0.072 -1.725,-0.004 -1.888,0 c -0.317,0.007 -0.616,0.336 -0.609,0.662 0.008,0.34 0.226,0.729 0.311,0.943 0.042,0.104 0.084,0.319 -0.005,0.372 -0.179,0.109 -0.552,0.113 -0.8,0.113 -0.477,0 -0.613,-0.018 -1.074,-0.026 -0.266,-0.005 -0.423,-0.01 -0.693,-0.016 0.016,-0.389 0.223,-0.623 0.581,-0.69 0.24,-0.045 0.614,-0.04 0.881,-0.052 0.044,-0.002 0.334,0.008 0.337,-0.042 C -2.958,1.229 -3.06,1.225 -3.093,1.223 -3.372,1.205 -3.554,1.203 -3.882,1.199 -4.206,1.196 -4.374,1.199 -4.739,1.196 -4.729,1.031 -4.707,0.909 -4.59,0.769 -4.414,0.558 -4.066,0.525 -3.863,0.519 -3.644,0.513 -3.487,0.527 -3.32,0.517 -3.209,0.512 -3.038,0.49 -3.039,0.46 -3.042,0.414 -3.161,0.425 -3.26,0.423 -3.75,0.414 -4.355,0.429 -4.797,0.434 c 0.002,-0.165 0.033,-0.335 0.168,-0.481 0.158,-0.172 0.453,-0.226 0.668,-0.234 0.316,-0.012 0.556,0.015 0.889,-0.004 0.026,-0.001 0.067,0.008 0.069,-0.008 0.002,-0.014 -0.039,-0.021 -0.067,-0.025 -0.326,-0.046 -0.553,-0.081 -0.908,-0.125 -0.32,-0.04 -0.5,-0.06 -0.821,-0.093 0.062,-0.238 0.165,-0.394 0.38,-0.505 0.168,-0.086 0.364,-0.109 0.613,-0.097 0.372,0.018 0.678,0.085 1.077,0.132 0.039,0.005 0.099,0.02 0.102,0.009 0.004,-0.013 -0.04,-0.023 -0.067,-0.031 -0.309,-0.093 -0.614,-0.188 -1.009,-0.298 -0.437,-0.122 -0.685,-0.186 -1.126,-0.291 0.367,-0.382 0.534,-0.49 0.726,-0.505 0.248,-0.019 0.582,0.148 0.928,0.309 0.226,0.105 0.426,0.203 0.635,0.298 0.02,0.01 0.051,0.026 0.054,0.02 0.006,-0.011 -0.034,-0.032 -0.054,-0.044 -0.334,-0.203 -0.62,-0.349 -1.005,-0.588 -0.254,-0.158 -0.396,-0.25 -0.644,-0.417 0.247,-0.094 0.463,-0.197 0.745,-0.202 0.172,-0.004 0.31,0.032 0.443,0.137 0.138,0.109 0.263,0.235 0.429,0.389 0.162,0.151 0.23,0.23 0.412,0.393 0.022,0.019 0.061,0.063 0.07,0.052 0.011,-0.013 -0.031,-0.044 -0.052,-0.07 -0.255,-0.321 -0.425,-0.516 -0.733,-0.883 0.324,-0.006 0.491,-0.004 0.76,0.107 0.33,0.135 0.472,0.295 0.664,0.541 0.019,0.028 0.022,-0.04 0.012,-0.073 -0.031,-0.101 -0.251,-0.302 -0.401,-0.416 -0.217,-0.165 -0.454,-0.302 -0.691,-0.439 0.046,-0.009 0.073,-0.018 0.114,-0.04 0.036,-0.02 0.056,-0.034 0.085,-0.064 -0.117,-0.096 -0.204,-0.207 -0.323,-0.285 -0.116,-0.075 -0.23,-0.105 -0.365,-0.117 -0.106,-0.01 -0.157,-0.01 -0.259,0.004 -0.042,0.005 -0.083,0.013 -0.129,0.018 -0.024,0.004 -0.034,-0.025 -0.046,-0.049 -0.036,-0.002 -0.058,-0.007 -0.092,-0.022 -0.088,-0.039 -0.147,-0.095 -0.155,-0.19 -0.008,-0.086 0.023,-0.152 0.094,-0.2 0.005,0.055 0.027,0.09 0.072,0.121 0.027,0.018 0.046,0.025 0.078,0.028 0.002,-0.026 0.038,-0.03 0.066,-0.028 0.03,0.002 0.062,0.017 0.102,0.025 0.043,0.008 0.064,0.009 0.11,0.017 -0.097,-0.061 -0.178,-0.11 -0.256,-0.165 -0.031,-0.022 -0.054,-0.033 -0.064,-0.07 -0.006,-0.021 0,-0.038 0.016,-0.072 -0.04,-0.072 -0.058,-0.143 -0.031,-0.233 0.027,-0.087 0.123,-0.157 0.242,-0.187 -0.019,0.058 -0.025,0.09 -0.02,0.148 0.002,0.029 0.005,0.045 0.014,0.073 0.034,-0.005 0.053,-0.003 0.078,0.027 0.037,0.046 0.059,0.072 0.097,0.117 0.043,0.052 0.068,0.081 0.112,0.133 -0.024,-0.086 -0.038,-0.134 -0.063,-0.22 -0.021,-0.071 -0.038,-0.087 -0.055,-0.182 -0.005,-0.026 0.015,-0.039 0.042,-0.051 -0.004,-0.14 0.039,-0.211 0.141,-0.266 0.084,-0.046 0.246,-0.059 0.335,-0.042 -0.079,0.032 -0.122,0.07 -0.164,0.144 -0.021,0.037 -0.031,0.061 -0.038,0.104 0.033,0.005 0.055,0.019 0.062,0.068 0.015,0.106 0.025,0.161 0.04,0.265 0.01,0.065 0.034,0.166 0.048,0.162 0.037,-0.045 0.067,-0.09 0.111,-0.16 0.021,-0.034 0.047,-0.057 0.083,-0.048 0.021,0.006 0.034,0.016 0.044,0.034 0.022,-0.023 0.032,-0.04 0.04,-0.071 0.011,-0.048 0.001,-0.069 -0.021,-0.123 0.108,-0.017 0.212,0.028 0.246,0.132 0.038,0.117 -0.025,0.24 -0.078,0.289 0.021,0.048 0.004,0.082 -0.028,0.114 -0.083,0.081 -0.153,0.105 -0.172,0.129 -0.038,0.047 -0.027,0.075 -0.002,0.11 0.056,0.079 0.079,0.106 0.14,0.164 0.061,0.059 0.099,0.089 0.171,0.135 0.038,-0.037 0.058,-0.06 0.09,-0.102 0.038,-0.048 0.056,-0.077 0.085,-0.13 0.05,0.082 0.08,0.127 0.136,0.205 0.069,0.093 0.109,0.146 0.188,0.231 0.076,0.081 0.174,0.165 0.196,0.185 0.023,0.034 0.06,-0.071 0.086,-0.132 0.02,-0.051 0.011,-0.094 -0.004,-0.155 -0.06,-0.244 -0.237,-0.637 -0.394,-0.905 -0.225,-0.381 -0.497,-0.689 -0.799,-1.032 0.112,-0.045 0.269,-0.062 0.442,-0.052 0.17,0.01 0.357,0.032 0.543,0.074 0.09,-0.105 0.146,-0.161 0.249,-0.253 0.128,-0.113 0.205,-0.172 0.347,-0.264 0.143,0.092 0.22,0.151 0.347,0.264 0.103,0.092 0.159,0.148 0.25,0.253 0.186,-0.042 0.372,-0.064 0.542,-0.074 0.174,-0.01 0.33,0.007 0.442,0.052 -0.301,0.343 -0.573,0.651 -0.798,1.032 -0.158,0.268 -0.334,0.661 -0.394,0.905 -0.016,0.061 -0.025,0.104 -0.004,0.155 0.025,0.061 0.062,0.166 0.085,0.132 0.023,-0.02 0.121,-0.104 0.197,-0.185 0.079,-0.085 0.119,-0.138 0.187,-0.231 0.056,-0.078 0.087,-0.123 0.137,-0.205 0.028,0.053 0.047,0.082 0.084,0.13 0.033,0.042 0.053,0.065 0.091,0.102 0.071,-0.046 0.11,-0.076 0.171,-0.135 0.06,-0.058 0.083,-0.085 0.14,-0.164 C 0.557,-3.666 0.569,-3.694 0.531,-3.741 0.512,-3.765 0.442,-3.789 0.359,-3.87 0.326,-3.902 0.309,-3.936 0.331,-3.984 0.277,-4.033 0.215,-4.156 0.253,-4.273 0.286,-4.377 0.391,-4.422 0.499,-4.405 0.476,-4.351 0.466,-4.33 0.478,-4.282 c 0.008,0.031 0.017,0.048 0.04,0.071 0.01,-0.018 0.022,-0.028 0.043,-0.034 0.036,-0.009 0.062,0.014 0.083,0.048 0.044,0.07 0.074,0.115 0.112,0.16 0.013,0.004 0.037,-0.097 0.047,-0.162 0.016,-0.104 0.025,-0.159 0.04,-0.265 C 0.85,-4.513 0.874,-4.527 0.905,-4.532 0.898,-4.575 0.889,-4.599 0.867,-4.636 0.825,-4.71 0.782,-4.748 0.703,-4.78 c 0.089,-0.017 0.252,-0.004 0.335,0.042 0.102,0.055 0.145,0.126 0.141,0.266 0.028,0.012 0.047,0.025 0.043,0.051 -0.018,0.095 -0.034,0.111 -0.056,0.182 -0.024,0.086 -0.038,0.134 -0.062,0.22 0.043,-0.052 0.069,-0.081 0.111,-0.133 0.039,-0.045 0.06,-0.071 0.097,-0.117 0.025,-0.03 0.043,-0.032 0.078,-0.027 0.009,-0.028 0.012,-0.044 0.015,-0.073 0.005,-0.058 -0.002,-0.09 -0.021,-0.148 0.119,0.03 0.216,0.1 0.242,0.187 0.028,0.09 0.01,0.161 -0.029,0.233 0.014,0.034 0.02,0.051 0.014,0.072 -0.01,0.037 -0.033,0.048 -0.064,0.07 -0.078,0.055 -0.159,0.104 -0.255,0.165 0.045,-0.008 0.066,-0.009 0.11,-0.017 0.039,-0.008 0.071,-0.023 0.101,-0.025 0.029,-0.002 0.064,0.002 0.066,0.028 0.033,-0.003 0.052,-0.01 0.078,-0.028 0.046,-0.031 0.067,-0.066 0.072,-0.121 0.072,0.048 0.103,0.114 0.094,0.2 -0.008,0.095 -0.068,0.151 -0.154,0.19 -0.034,0.015 -0.056,0.02 -0.093,0.022 C 1.555,-3.517 1.544,-3.488 1.52,-3.492 1.475,-3.497 1.433,-3.505 1.391,-3.51 1.29,-3.524 1.238,-3.524 1.133,-3.514 c -0.135,0.012 -0.25,0.042 -0.365,0.117 -0.12,0.078 -0.207,0.189 -0.324,0.285 0.03,0.03 0.049,0.044 0.085,0.064 0.041,0.022 0.068,0.031 0.114,0.04 -0.236,0.137 -0.473,0.274 -0.69,0.439 -0.15,0.114 -0.371,0.315 -0.402,0.416 -0.01,0.033 -0.006,0.101 0.013,0.073 0.191,-0.246 0.333,-0.406 0.664,-0.541 0.268,-0.111 0.435,-0.113 0.759,-0.107 -0.308,0.367 -0.477,0.562 -0.733,0.883 -0.021,0.026 -0.063,0.057 -0.052,0.07 0.009,0.011 0.048,-0.033 0.071,-0.052 0.182,-0.163 0.25,-0.242 0.413,-0.393 0.165,-0.154 0.291,-0.28 0.427,-0.389 0.133,-0.105 0.271,-0.141 0.443,-0.137 0.283,0.005 0.499,0.108 0.747,0.202 -0.25,0.167 -0.391,0.259 -0.645,0.417 -0.386,0.239 -0.671,0.385 -1.005,0.588 -0.021,0.012 -0.062,0.033 -0.055,0.044 0.003,0.006 0.034,-0.01 0.055,-0.02 0.209,-0.095 0.408,-0.193 0.634,-0.298 0.346,-0.161 0.681,-0.328 0.928,-0.309 0.192,0.015 0.36,0.123 0.728,0.505 -0.442,0.105 -0.69,0.169 -1.127,0.291 -0.396,0.11 -0.7,0.205 -1.01,0.298 -0.027,0.008 -0.071,0.018 -0.067,0.031 0.004,0.011 0.063,-0.004 0.103,-0.009 0.398,-0.047 0.704,-0.114 1.077,-0.132 0.249,-0.012 0.444,0.011 0.612,0.097 0.215,0.111 0.318,0.267 0.38,0.505 -0.321,0.033 -0.501,0.053 -0.821,0.093 -0.354,0.044 -0.582,0.079 -0.907,0.125 -0.028,0.004 -0.069,0.011 -0.067,0.025 10e-4,0.016 0.042,0.007 0.069,0.008 0.332,0.019 0.572,-0.008 0.889,0.004 0.215,0.008 0.51,0.062 0.668,0.234 C 2.876,0.099 2.908,0.269 2.91,0.434 2.467,0.429 1.863,0.414 1.372,0.423 1.273,0.425 1.155,0.414 1.152,0.46 1.15,0.49 1.321,0.512 1.432,0.517 1.599,0.527 1.757,0.513 1.975,0.519 2.179,0.525 2.526,0.558 2.702,0.769 2.819,0.909 2.841,1.031 2.852,1.196 2.486,1.199 2.319,1.196 1.995,1.199 1.666,1.203 1.485,1.205 1.207,1.223 1.172,1.225 1.07,1.229 1.072,1.264 1.074,1.314 1.364,1.304 1.408,1.306 1.675,1.318 2.049,1.313 2.29,1.358 2.647,1.425 2.854,1.659 2.871,2.048 2.6,2.054 2.443,2.059 2.177,2.064 1.716,2.072 1.581,2.09 1.103,2.09 0.855,2.09 0.482,2.086 0.303,1.977 0.214,1.924 0.257,1.709 0.298,1.605 0.384,1.391 0.601,1.002 0.609,0.662 0.616,0.336 0.318,0.007 0,0" style="opacity:1;fill:#000000;fill-opacity:1;fill-rule:nonzero;stroke:none" id="path6518"/></g><g id="g6524" transform="translate(214.0882,117.5446)"/><g id="g6528" transform="translate(212.6608,118.9676)"><path d="M 0,0 C 0.014,0.027 0.023,0.042 0.042,0.066 0.064,0.095 0.078,0.11 0.106,0.134 0.159,0.091 0.175,0.037 0.174,-0.028 0.172,-0.136 0.137,-0.144 0.076,-0.176 0.084,-0.138 0.082,-0.113 0.066,-0.078 0.051,-0.041 0.034,-0.021 0,0" style="fill:#ffffff;fill-opacity:1;fill-rule:nonzero;stroke:none" id="path6526"/></g><g id="g6532" transform="translate(212.1725,118.5966)"><path d="m 0,0 c -0.03,0 -0.049,0.002 -0.079,0.008 -0.027,0.005 -0.042,0.009 -0.066,0.018 0,-0.047 0.005,-0.079 0.035,-0.115 0.046,-0.055 0.096,-0.072 0.188,-0.096 C 0.053,-0.159 0.04,-0.141 0.025,-0.108 0.007,-0.069 0.002,-0.043 0,0" style="fill:#ffffff;fill-opacity:1;fill-rule:nonzero;stroke:none" id="path6530"/></g><g id="g6536" transform="translate(211.694,118.8729)"><path d="m 0,0 c -0.02,0.018 -0.031,0.023 -0.05,0.04 -0.021,0.02 -0.032,0.033 -0.051,0.057 -0.016,-0.038 -0.021,-0.063 -0.018,-0.105 0.006,-0.077 0.037,-0.129 0.104,-0.168 -0.008,0.032 -0.01,0.052 -0.008,0.085 C -0.02,-0.054 -0.013,-0.031 0,0" style="fill:#ffffff;fill-opacity:1;fill-rule:nonzero;stroke:none" id="path6534"/></g><g id="g6540" transform="translate(211.5653,119.5257)"><path d="m 0,0 c -0.053,-0.006 -0.086,-0.023 -0.119,-0.064 -0.045,-0.055 -0.054,-0.113 -0.029,-0.178 0.013,0.036 0.029,0.056 0.061,0.077 0.028,0.019 0.048,0.025 0.082,0.025 -0.002,0.027 -0.002,0.043 0,0.07 0,0.027 0.002,0.043 0.005,0.07" style="fill:#ffffff;fill-opacity:1;fill-rule:nonzero;stroke:none" id="path6538"/></g><g id="g6544" transform="translate(212.7462,119.9704)"><path d="M 0,0 C 0.028,-0.019 0.043,-0.031 0.068,-0.055 0.094,-0.079 0.107,-0.094 0.129,-0.123 0.046,-0.178 0,-0.215 -0.068,-0.288 -0.126,-0.348 -0.16,-0.378 -0.2,-0.454 c -0.029,-0.052 -0.029,-0.125 0.005,-0.165 0.043,-0.05 0.078,-0.055 0.125,-0.092 0.033,-0.027 0.052,-0.042 0.084,-0.071 -0.04,-0.038 -0.062,-0.061 -0.096,-0.103 -0.038,-0.048 -0.058,-0.077 -0.088,-0.129 -0.07,0.093 -0.103,0.134 -0.14,0.187 -0.029,0.039 -0.085,0.053 -0.117,-0.034 -0.023,-0.059 -0.036,-0.114 -0.048,-0.189 -0.019,-0.112 -0.025,-0.172 -0.04,-0.254 -0.045,-0.007 -0.072,-0.007 -0.118,0.002 -0.048,0.01 -0.076,0.022 -0.117,0.049 0.025,0.07 0.037,0.109 0.057,0.18 0.023,0.081 0.035,0.11 0.051,0.21 0.006,0.034 0.01,0.071 -0.015,0.085 -0.04,0.023 -0.068,0.002 -0.107,-0.049 -0.046,-0.058 -0.073,-0.09 -0.12,-0.147 -0.031,-0.039 -0.049,-0.061 -0.081,-0.099 -0.044,0.024 -0.067,0.041 -0.102,0.076 -0.039,0.038 -0.058,0.064 -0.084,0.113 0.065,0.046 0.102,0.071 0.167,0.116 0.072,0.049 0.121,0.079 0.186,0.125 0.02,0.015 0.033,0.035 0.026,0.06 -0.01,0.034 -0.058,0.028 -0.088,0.023 -0.054,-0.01 -0.092,-0.014 -0.15,-0.023 -0.045,-0.006 -0.069,-0.009 -0.112,-0.015 0.001,0.034 0.003,0.053 0.005,0.087 0.005,0.044 0.007,0.068 0.014,0.112 0.08,-0.017 0.126,-0.023 0.208,-0.027 0.128,-0.005 0.204,-0.004 0.327,0.031 0.103,0.028 0.161,0.053 0.25,0.111 0.075,0.05 0.107,0.091 0.174,0.151 C -0.087,-0.082 -0.056,-0.052 0,0" style="fill:#ebbd00;fill-opacity:1;fill-rule:nonzero;stroke:none" id="path6542"/></g><g id="g6548" transform="translate(215.5156,118.9676)"><path d="M 0,0 C -0.014,0.027 -0.023,0.042 -0.042,0.066 -0.064,0.095 -0.078,0.11 -0.106,0.134 -0.159,0.091 -0.175,0.037 -0.174,-0.028 c 0.002,-0.108 0.037,-0.116 0.099,-0.148 -0.009,0.038 -0.006,0.063 0.009,0.098 C -0.051,-0.041 -0.034,-0.021 0,0" style="fill:#ffffff;fill-opacity:1;fill-rule:nonzero;stroke:none" id="path6546"/></g><g id="g6552" transform="translate(216.0035,118.5966)"><path d="M 0,0 C 0.031,0 0.049,0.002 0.08,0.008 0.106,0.013 0.121,0.017 0.146,0.026 0.145,-0.021 0.14,-0.053 0.11,-0.089 0.064,-0.144 0.016,-0.161 -0.078,-0.185 c 0.026,0.026 0.039,0.044 0.054,0.077 C -0.007,-0.069 0,-0.043 0,0" style="fill:#ffffff;fill-opacity:1;fill-rule:nonzero;stroke:none" id="path6550"/></g><g id="g6556" transform="translate(216.4825,118.8729)"><path d="M 0,0 C 0.021,0.018 0.031,0.023 0.05,0.04 0.071,0.06 0.082,0.073 0.1,0.097 0.117,0.059 0.122,0.034 0.119,-0.008 0.114,-0.085 0.081,-0.137 0.015,-0.176 0.023,-0.144 0.025,-0.124 0.023,-0.091 0.02,-0.054 0.014,-0.031 0,0" style="fill:#ffffff;fill-opacity:1;fill-rule:nonzero;stroke:none" id="path6554"/></g><g id="g6560" transform="translate(216.6111,119.5257)"><path d="m 0,0 c 0.052,-0.006 0.086,-0.023 0.119,-0.064 0.045,-0.055 0.053,-0.113 0.029,-0.178 -0.013,0.036 -0.029,0.056 -0.061,0.077 -0.028,0.019 -0.048,0.025 -0.082,0.025 0.002,0.027 0.002,0.043 0,0.07 C 0.004,-0.043 0.004,-0.027 0,0" style="fill:#ffffff;fill-opacity:1;fill-rule:nonzero;stroke:none" id="path6558"/></g><g id="g6564" transform="translate(215.4302,119.9704)"><path d="m 0,0 c -0.028,-0.019 -0.043,-0.031 -0.067,-0.055 -0.027,-0.024 -0.04,-0.039 -0.062,-0.068 0.084,-0.055 0.128,-0.092 0.197,-0.165 0.058,-0.06 0.091,-0.09 0.133,-0.166 C 0.229,-0.506 0.229,-0.579 0.195,-0.619 0.153,-0.669 0.117,-0.674 0.07,-0.711 0.037,-0.738 0.019,-0.753 -0.013,-0.782 0.026,-0.82 0.047,-0.843 0.081,-0.885 0.12,-0.933 0.14,-0.962 0.17,-1.014 c 0.071,0.093 0.103,0.134 0.14,0.187 0.028,0.039 0.085,0.053 0.118,-0.034 0.022,-0.059 0.035,-0.114 0.047,-0.189 0.019,-0.112 0.025,-0.172 0.04,-0.254 0.045,-0.007 0.072,-0.007 0.117,0.002 0.049,0.01 0.076,0.022 0.117,0.049 -0.024,0.07 -0.036,0.109 -0.057,0.18 -0.023,0.081 -0.033,0.11 -0.05,0.21 -0.006,0.034 -0.011,0.071 0.014,0.085 0.041,0.023 0.069,0.002 0.109,-0.049 0.045,-0.058 0.072,-0.09 0.119,-0.147 0.032,-0.039 0.049,-0.061 0.081,-0.099 0.044,0.024 0.067,0.041 0.102,0.076 0.039,0.038 0.059,0.064 0.084,0.113 -0.064,0.046 -0.102,0.071 -0.167,0.116 -0.073,0.049 -0.121,0.079 -0.186,0.125 -0.02,0.015 -0.033,0.035 -0.026,0.06 0.009,0.034 0.058,0.028 0.087,0.023 C 0.914,-0.57 0.952,-0.574 1.01,-0.583 1.054,-0.589 1.079,-0.592 1.122,-0.598 1.12,-0.564 1.119,-0.545 1.117,-0.511 1.113,-0.467 1.11,-0.443 1.103,-0.399 1.023,-0.416 0.977,-0.422 0.895,-0.426 0.767,-0.431 0.692,-0.43 0.567,-0.395 0.466,-0.367 0.408,-0.342 0.318,-0.284 0.243,-0.234 0.211,-0.193 0.144,-0.133 0.087,-0.082 0.055,-0.052 0,0" style="fill:#ebbd00;fill-opacity:1;fill-rule:nonzero;stroke:none" id="path6562"/></g><g id="g6568" transform="translate(212.8543,124.1453)"><path d="m 0,0 c 0.116,-0.014 0.232,-0.014 0.334,-0.003 0.214,0.024 0.337,0.08 0.51,0.206 L 0.878,0.189 C 0.773,0.005 0.635,-0.087 0.425,-0.111 0.255,-0.131 0.031,-0.056 0,0" style="fill:#e30613;fill-opacity:1;fill-rule:nonzero;stroke:none" id="path6566"/></g><g id="g6572" transform="translate(213.5106,123.9296)"><path d="M 0,0 C 0.059,0.073 0.091,0.114 0.148,0.188 0.222,0.283 0.263,0.338 0.335,0.436 0.309,0.446 0.295,0.452 0.269,0.461 0.153,0.505 0.09,0.565 -0.034,0.559 -0.13,0.554 -0.189,0.534 -0.268,0.478 c 0.02,0.083 0.018,0.119 0.036,0.194 0.015,0.064 0.025,0.093 0.066,0.15 0.047,0.063 0.148,0.089 0.246,0.092 C 0.181,0.917 0.248,0.919 0.333,0.908 0.324,0.865 0.321,0.84 0.32,0.796 0.319,0.686 0.354,0.627 0.388,0.523 0.407,0.467 0.424,0.409 0.424,0.345 0.37,0.274 0.336,0.236 0.269,0.176 0.176,0.093 0.095,0.031 0,0" style="fill:#ebbd00;fill-opacity:1;fill-rule:nonzero;stroke:none" id="path6570"/></g><g id="g6576" transform="translate(214.1842,124.7254)"><path d="m 0,0 c -0.014,-0.013 -0.02,-0.025 -0.021,-0.043 -0.004,-0.033 0.012,-0.066 0.045,-0.073 0.024,-0.005 0.047,0.002 0.059,0.024 0.008,0.015 0.009,0.029 0.002,0.044 0.028,0.002 0.045,0 0.073,-0.008 C 0.197,-0.067 0.215,-0.068 0.249,-0.107 0.269,-0.131 0.245,-0.168 0.216,-0.179 0.183,-0.193 0.149,-0.156 0.12,-0.165 0.082,-0.175 0.09,-0.222 0.009,-0.212 c -0.067,0.007 -0.142,0.052 -0.13,0.126 0.006,0.038 -0.047,0.047 -0.031,0.094 0.01,0.028 0.043,0.037 0.072,0.032 C -0.059,0.035 -0.021,0.028 0,0" style="fill:#ffffff;fill-opacity:1;fill-rule:nonzero;stroke:none" id="path6574"/></g></g></g><g id="g6754" transform="matrix(0.35277777,0,0,-0.35277777,119.80508,214.5121)"><g id="g6752" clip-path="url(#clipPath516)"><g id="g6584" transform="translate(190.7779,99.0701)"><path d="M 0,0 H 3.747 V 1.018 H 5.711 V 0 H 7.384 V 1.018 H 9.348 V 0 h 1.673 v 1.018 h 1.964 V 0 h 1.674 v 1.018 h 1.964 V 0 h 1.673 V 1.018 H 20.26 V 0 h 1.673 v 1.018 h 1.965 V 0 h 3.746 V -6.838 H 0 Z" style="fill:#000000;fill-opacity:1;fill-rule:nonzero;stroke:none" id="path6582"/></g><path d="m 202.854,98.925 h 1.673 v -0.873 h -1.673 z" style="fill:#e30613;fill-opacity:1;fill-rule:nonzero;stroke:none" id="path6586"/><path d="m 201.035,98.925 h 1.673 v -0.873 h -1.673 z" style="fill:#e30613;fill-opacity:1;fill-rule:nonzero;stroke:none" id="path6588"/><path d="m 199.217,98.925 h 1.673 v -0.873 h -1.673 z" style="fill:#e30613;fill-opacity:1;fill-rule:nonzero;stroke:none" id="path6590"/><path d="m 197.398,98.925 h 1.673 v -0.873 h -1.673 z" style="fill:#e30613;fill-opacity:1;fill-rule:nonzero;stroke:none" id="path6592"/><path d="m 195.58,98.925 h 1.673 v -0.873 h -1.673 z" style="fill:#e30613;fill-opacity:1;fill-rule:nonzero;stroke:none" id="path6594"/><path d="m 193.761,98.925 h 1.673 v -0.873 h -1.673 z" style="fill:#e30613;fill-opacity:1;fill-rule:nonzero;stroke:none" id="path6596"/><path d="m 191.942,98.925 h 1.673 v -0.873 h -1.673 z" style="fill:#e30613;fill-opacity:1;fill-rule:nonzero;stroke:none" id="path6598"/><path d="m 204.673,98.925 h 1.673 v -0.873 h -1.673 z" style="fill:#e30613;fill-opacity:1;fill-rule:nonzero;stroke:none" id="path6600"/><path d="m 206.491,98.925 h 1.673 v -0.873 h -1.673 z" style="fill:#e30613;fill-opacity:1;fill-rule:nonzero;stroke:none" id="path6602"/><path d="m 208.31,98.925 h 1.673 v -0.873 h -1.673 z" style="fill:#e30613;fill-opacity:1;fill-rule:nonzero;stroke:none" id="path6604"/><path d="m 210.129,98.925 h 1.673 v -0.873 h -1.673 z" style="fill:#e30613;fill-opacity:1;fill-rule:nonzero;stroke:none" id="path6606"/><path d="m 211.947,98.925 h 1.673 v -0.873 h -1.673 z" style="fill:#e30613;fill-opacity:1;fill-rule:nonzero;stroke:none" id="path6608"/><path d="m 213.766,98.925 h 1.673 v -0.873 h -1.673 z" style="fill:#e30613;fill-opacity:1;fill-rule:nonzero;stroke:none" id="path6610"/><path d="m 215.585,98.925 h 1.673 v -0.873 h -1.673 z" style="fill:#e30613;fill-opacity:1;fill-rule:nonzero;stroke:none" id="path6612"/><path d="m 201.945,97.906 h 1.673 v -0.873 h -1.673 z" style="fill:#e30613;fill-opacity:1;fill-rule:nonzero;stroke:none" id="path6614"/><path d="m 200.126,97.906 h 1.673 v -0.873 h -1.673 z" style="fill:#e30613;fill-opacity:1;fill-rule:nonzero;stroke:none" id="path6616"/><path d="m 198.307,97.906 h 1.673 v -0.873 h -1.673 z" style="fill:#e30613;fill-opacity:1;fill-rule:nonzero;stroke:none" id="path6618"/><path d="m 196.489,97.906 h 1.673 v -0.873 h -1.673 z" style="fill:#e30613;fill-opacity:1;fill-rule:nonzero;stroke:none" id="path6620"/><path d="m 194.67,97.906 h 1.673 v -0.873 h -1.673 z" style="fill:#e30613;fill-opacity:1;fill-rule:nonzero;stroke:none" id="path6622"/><path d="m 192.852,97.906 h 1.673 v -0.873 h -1.673 z" style="fill:#e30613;fill-opacity:1;fill-rule:nonzero;stroke:none" id="path6624"/><path d="m 205.582,97.906 h 1.673 v -0.873 h -1.673 z" style="fill:#e30613;fill-opacity:1;fill-rule:nonzero;stroke:none" id="path6626"/><path d="m 207.401,97.906 h 1.673 v -0.873 h -1.673 z" style="fill:#e30613;fill-opacity:1;fill-rule:nonzero;stroke:none" id="path6628"/><path d="m 209.219,97.906 h 1.673 v -0.873 h -1.673 z" style="fill:#e30613;fill-opacity:1;fill-rule:nonzero;stroke:none" id="path6630"/><path d="m 211.038,97.906 h 1.673 v -0.873 h -1.673 z" style="fill:#e30613;fill-opacity:1;fill-rule:nonzero;stroke:none" id="path6632"/><path d="m 212.857,97.906 h 1.674 v -0.873 h -1.674 z" style="fill:#e30613;fill-opacity:1;fill-rule:nonzero;stroke:none" id="path6634"/><path d="m 214.676,97.906 h 1.673 v -0.873 h -1.673 z" style="fill:#e30613;fill-opacity:1;fill-rule:nonzero;stroke:none" id="path6636"/><path d="m 201.035,96.888 h 1.673 v -0.873 h -1.673 z" style="fill:#e30613;fill-opacity:1;fill-rule:nonzero;stroke:none" id="path6638"/><path d="m 199.217,96.888 h 1.673 v -0.873 h -1.673 z" style="fill:#e30613;fill-opacity:1;fill-rule:nonzero;stroke:none" id="path6640"/><path d="m 197.398,96.888 h 1.673 v -0.873 h -1.673 z" style="fill:#e30613;fill-opacity:1;fill-rule:nonzero;stroke:none" id="path6642"/><path d="m 195.58,96.888 h 1.673 v -0.873 h -1.673 z" style="fill:#e30613;fill-opacity:1;fill-rule:nonzero;stroke:none" id="path6644"/><path d="m 193.761,96.888 h 1.673 v -0.873 h -1.673 z" style="fill:#e30613;fill-opacity:1;fill-rule:nonzero;stroke:none" id="path6646"/><path d="m 206.491,96.888 h 1.673 v -0.873 h -1.673 z" style="fill:#e30613;fill-opacity:1;fill-rule:nonzero;stroke:none" id="path6648"/><path d="m 208.31,96.888 h 1.673 v -0.873 h -1.673 z" style="fill:#e30613;fill-opacity:1;fill-rule:nonzero;stroke:none" id="path6650"/><path d="m 210.129,96.888 h 1.673 v -0.873 h -1.673 z" style="fill:#e30613;fill-opacity:1;fill-rule:nonzero;stroke:none" id="path6652"/><path d="m 211.947,96.888 h 1.673 v -0.873 h -1.673 z" style="fill:#e30613;fill-opacity:1;fill-rule:nonzero;stroke:none" id="path6654"/><path d="m 213.766,96.888 h 1.673 v -0.873 h -1.673 z" style="fill:#e30613;fill-opacity:1;fill-rule:nonzero;stroke:none" id="path6656"/><path d="m 201.945,95.869 h 1.673 v -0.873 h -1.673 z" style="fill:#e30613;fill-opacity:1;fill-rule:nonzero;stroke:none" id="path6658"/><path d="m 200.126,95.869 h 1.673 v -0.873 h -1.673 z" style="fill:#e30613;fill-opacity:1;fill-rule:nonzero;stroke:none" id="path6660"/><path d="m 198.307,95.869 h 1.673 v -0.873 h -1.673 z" style="fill:#e30613;fill-opacity:1;fill-rule:nonzero;stroke:none" id="path6662"/><path d="m 196.489,95.869 h 1.673 v -0.873 h -1.673 z" style="fill:#e30613;fill-opacity:1;fill-rule:nonzero;stroke:none" id="path6664"/><path d="m 194.67,95.869 h 1.673 v -0.873 h -1.673 z" style="fill:#e30613;fill-opacity:1;fill-rule:nonzero;stroke:none" id="path6666"/><path d="m 205.582,95.869 h 1.673 v -0.873 h -1.673 z" style="fill:#e30613;fill-opacity:1;fill-rule:nonzero;stroke:none" id="path6668"/><path d="m 207.401,95.869 h 1.673 v -0.873 h -1.673 z" style="fill:#e30613;fill-opacity:1;fill-rule:nonzero;stroke:none" id="path6670"/><path d="m 209.219,95.869 h 1.673 v -0.873 h -1.673 z" style="fill:#e30613;fill-opacity:1;fill-rule:nonzero;stroke:none" id="path6672"/><path d="m 211.038,95.869 h 1.673 v -0.873 h -1.673 z" style="fill:#e30613;fill-opacity:1;fill-rule:nonzero;stroke:none" id="path6674"/><path d="m 212.857,95.869 h 1.674 v -0.873 h -1.674 z" style="fill:#e30613;fill-opacity:1;fill-rule:nonzero;stroke:none" id="path6676"/><path d="m 201.035,94.851 h 1.673 v -0.873 h -1.673 z" style="fill:#e30613;fill-opacity:1;fill-rule:nonzero;stroke:none" id="path6678"/><path d="m 199.217,94.851 h 1.673 v -0.873 h -1.673 z" style="fill:#e30613;fill-opacity:1;fill-rule:nonzero;stroke:none" id="path6680"/><path d="m 197.398,94.851 h 1.673 v -0.873 h -1.673 z" style="fill:#e30613;fill-opacity:1;fill-rule:nonzero;stroke:none" id="path6682"/><path d="m 206.491,94.851 h 1.673 v -0.873 h -1.673 z" style="fill:#e30613;fill-opacity:1;fill-rule:nonzero;stroke:none" id="path6684"/><path d="m 208.31,94.851 h 1.673 v -0.873 h -1.673 z" style="fill:#e30613;fill-opacity:1;fill-rule:nonzero;stroke:none" id="path6686"/><path d="m 210.129,94.851 h 1.673 v -0.873 h -1.673 z" style="fill:#e30613;fill-opacity:1;fill-rule:nonzero;stroke:none" id="path6688"/><path d="m 201.945,93.832 h 1.673 v -0.873 h -1.673 z" style="fill:#e30613;fill-opacity:1;fill-rule:nonzero;stroke:none" id="path6690"/><path d="m 200.126,93.832 h 1.673 v -0.873 h -1.673 z" style="fill:#e30613;fill-opacity:1;fill-rule:nonzero;stroke:none" id="path6692"/><path d="m 205.582,93.832 h 1.673 v -0.873 h -1.673 z" style="fill:#e30613;fill-opacity:1;fill-rule:nonzero;stroke:none" id="path6694"/><path d="m 207.401,93.832 h 1.673 v -0.873 h -1.673 z" style="fill:#e30613;fill-opacity:1;fill-rule:nonzero;stroke:none" id="path6696"/><path d="m 201.945,99.943 h 1.673 V 99.07 h -1.673 z" style="fill:#e30613;fill-opacity:1;fill-rule:nonzero;stroke:none" id="path6698"/><path d="m 198.307,99.943 h 1.673 V 99.07 h -1.673 z" style="fill:#e30613;fill-opacity:1;fill-rule:nonzero;stroke:none" id="path6700"/><path d="m 194.67,99.943 h 1.673 V 99.07 h -1.673 z" style="fill:#e30613;fill-opacity:1;fill-rule:nonzero;stroke:none" id="path6702"/><path d="m 205.582,99.943 h 1.673 V 99.07 h -1.673 z" style="fill:#e30613;fill-opacity:1;fill-rule:nonzero;stroke:none" id="path6704"/><path d="m 209.219,99.943 h 1.673 V 99.07 h -1.673 z" style="fill:#e30613;fill-opacity:1;fill-rule:nonzero;stroke:none" id="path6706"/><path d="m 212.857,99.943 h 1.674 V 99.07 h -1.674 z" style="fill:#e30613;fill-opacity:1;fill-rule:nonzero;stroke:none" id="path6708"/><path d="m 203.763,97.906 h 1.673 v -0.873 h -1.673 z" style="fill:#e30613;fill-opacity:1;fill-rule:nonzero;stroke:none" id="path6710"/><g id="g6714" transform="translate(204.6003,98.0517)"><path d="M 0,0 C 1.085,0 1.964,-0.879 1.964,-1.964 V -5.82 h -3.928 v 3.856 C -1.964,-0.879 -1.085,0 0,0" style="fill:#000000;fill-opacity:1;fill-rule:nonzero;stroke:none" id="path6712"/></g><path d="m 202.781,95.864 h 0.582 v -0.868 h -0.582 z" style="fill:#e30613;fill-opacity:1;fill-rule:nonzero;stroke:none" id="path6716"/><path d="m 202.781,94.851 h 0.582 v -0.873 h -0.582 z" style="fill:#e30613;fill-opacity:1;fill-rule:nonzero;stroke:none" id="path6718"/><path d="m 202.781,93.834 h 0.582 v -1.602 h -0.582 z" style="fill:#e30613;fill-opacity:1;fill-rule:nonzero;stroke:none" id="path6720"/><g id="g6724" transform="translate(203.029,97.0049)"><path d="M 0,0 C 0.169,0.288 0.415,0.526 0.71,0.685 L 0.982,0.097 C 0.803,-0.001 0.653,-0.141 0.541,-0.311 Z" style="fill:#e30613;fill-opacity:1;fill-rule:nonzero;stroke:none" id="path6722"/></g><g id="g6728" transform="translate(203.4958,96.5681)"><path d="M 0,0 -0.536,0.306 C -0.651,0.068 -0.714,-0.199 -0.714,-0.48 v -0.073 h 0.581 c 0,0.199 0.048,0.387 0.133,0.553" style="fill:#e30613;fill-opacity:1;fill-rule:nonzero;stroke:none" id="path6726"/></g><path d="m 205.837,95.864 h 0.581 v -0.868 h -0.581 z" style="fill:#e30613;fill-opacity:1;fill-rule:nonzero;stroke:none" id="path6730"/><path d="m 205.837,94.851 h 0.581 v -0.873 h -0.581 z" style="fill:#e30613;fill-opacity:1;fill-rule:nonzero;stroke:none" id="path6732"/><path d="m 205.837,93.834 h 0.581 v -1.602 h -0.581 z" style="fill:#e30613;fill-opacity:1;fill-rule:nonzero;stroke:none" id="path6734"/><g id="g6738" transform="translate(206.1708,97.0049)"><path d="M 0,0 C -0.168,0.288 -0.415,0.526 -0.709,0.685 L -0.982,0.097 c 0.179,-0.098 0.329,-0.238 0.441,-0.408 z" style="fill:#e30613;fill-opacity:1;fill-rule:nonzero;stroke:none" id="path6736"/></g><g id="g6742" transform="translate(205.7044,96.5681)"><path d="M 0,0 0.536,0.306 C 0.65,0.068 0.714,-0.199 0.714,-0.48 V -0.553 H 0.133 C 0.133,-0.354 0.085,-0.166 0,0" style="fill:#e30613;fill-opacity:1;fill-rule:nonzero;stroke:none" id="path6740"/></g><g id="g6746" transform="translate(204.6003,97.106)"><path d="m 0,0 c 0.603,0 1.091,-0.489 1.091,-1.091 v -3.783 h -2.183 v 3.783 C -1.092,-0.489 -0.603,0 0,0" style="fill:#ffffff;fill-opacity:1;fill-rule:nonzero;stroke:none" id="path6744"/></g><g id="g6750" transform="translate(204.6003,97.9062)"><path d="m 0,0 c -0.261,0 -0.507,-0.055 -0.731,-0.154 l 0.27,-0.589 c 0.143,0.057 0.298,0.088 0.461,0.088 0.163,0 0.317,-0.031 0.46,-0.088 l 0.271,0.589 C 0.507,-0.055 0.26,0 0,0" style="fill:#e30613;fill-opacity:1;fill-rule:nonzero;stroke:none" id="path6748"/></g></g></g><g id="g6766" transform="matrix(0.35277777,0,0,-0.35277777,119.80508,214.5121)"><g id="g6764" clip-path="url(#clipPath694)"><g id="g6758" transform="translate(224.4162,108.2374)"><path d="m 0,0 c -0.333,0.225 -0.785,0.137 -1.009,-0.196 -0.174,-0.258 -0.161,-0.584 0.011,-0.825 -0.044,-0.078 -0.088,-0.15 -0.134,-0.218 0.116,0.311 0.007,0.665 -0.279,0.858 -0.332,0.224 -0.784,0.136 -1.009,-0.197 -0.225,-0.332 -0.137,-0.784 0.195,-1.009 0.237,-0.159 0.532,-0.161 0.764,-0.031 -0.575,-0.535 -1.234,-0.472 -1.68,-0.171 -0.442,0.298 -0.693,0.717 -0.647,1.29 0.302,-0.1 0.644,0.008 0.83,0.284 0.225,0.333 0.137,0.785 -0.196,1.009 -0.332,0.225 -0.785,0.137 -1.009,-0.196 -0.185,-0.274 -0.158,-0.628 0.044,-0.871 -0.514,-0.258 -0.998,-0.183 -1.439,0.114 -0.446,0.301 -0.75,0.906 -0.466,1.642 -0.04,-0.28 0.072,-0.555 0.309,-0.716 0.333,-0.224 0.786,-0.136 1.01,0.196 0.225,0.333 0.137,0.785 -0.196,1.01 -0.288,0.194 -0.67,0.153 -0.91,-0.079 0.049,0.073 0.103,0.145 0.163,0.22 0.287,-0.07 0.593,0.041 0.768,0.3 0.225,0.333 0.136,0.785 -0.196,1.01 C -5.409,3.648 -5.861,3.56 -6.086,3.228 -6.259,2.97 -6.245,2.644 -6.074,2.403 -6.118,2.325 -6.162,2.253 -6.208,2.185 -6.092,2.496 -6.201,2.85 -6.487,3.043 -6.82,3.267 -7.272,3.179 -7.496,2.846 -7.721,2.513 -7.633,2.062 -7.3,1.837 -7.064,1.678 -6.768,1.676 -6.536,1.806 -7.112,1.271 -7.772,1.334 -8.218,1.635 c -0.44,0.298 -0.692,0.717 -0.646,1.29 0.302,-0.1 0.644,0.008 0.83,0.284 0.225,0.333 0.137,0.785 -0.195,1.009 -0.333,0.225 -0.786,0.137 -1.01,-0.196 -0.185,-0.274 -0.158,-0.628 0.044,-0.872 -0.514,-0.257 -0.997,-0.183 -1.439,0.115 -0.447,0.301 -0.75,0.906 -0.467,1.642 -0.04,-0.28 0.073,-0.555 0.31,-0.716 0.334,-0.225 0.786,-0.137 1.01,0.196 0.224,0.333 0.137,0.785 -0.196,1.01 -0.288,0.194 -0.67,0.152 -0.909,-0.079 0.048,0.073 0.102,0.145 0.162,0.219 0.287,-0.069 0.593,0.042 0.768,0.301 0.224,0.333 0.137,0.785 -0.196,1.01 -0.333,0.224 -0.785,0.136 -1.009,-0.196 -0.174,-0.258 -0.16,-0.584 0.011,-0.825 -0.043,-0.078 -0.088,-0.15 -0.134,-0.218 0.116,0.311 0.007,0.664 -0.279,0.857 -0.333,0.225 -0.785,0.137 -1.009,-0.196 -0.225,-0.333 -0.137,-0.785 0.196,-1.009 0.236,-0.159 0.531,-0.161 0.764,-0.031 -0.576,-0.536 -1.236,-0.472 -1.682,-0.171 -0.44,0.298 -0.692,0.717 -0.646,1.29 0.302,-0.1 0.645,0.008 0.83,0.284 0.225,0.333 0.137,0.785 -0.196,1.009 -0.332,0.225 -0.785,0.137 -1.01,-0.196 -0.184,-0.274 -0.157,-0.628 0.046,-0.872 -0.515,-0.257 -0.998,-0.183 -1.44,0.115 -0.447,0.301 -0.75,0.906 -0.466,1.642 -0.041,-0.28 0.072,-0.555 0.31,-0.716 0.332,-0.225 0.785,-0.137 1.009,0.196 0.225,0.333 0.137,0.785 -0.196,1.01 -0.288,0.194 -0.67,0.152 -0.909,-0.079 0.048,0.073 0.101,0.145 0.162,0.219 0.287,-0.069 0.593,0.042 0.768,0.301 0.225,0.333 0.137,0.785 -0.196,1.01 -0.333,0.224 -0.785,0.136 -1.009,-0.197 -0.174,-0.257 -0.161,-0.583 0.011,-0.825 -0.043,-0.077 -0.088,-0.15 -0.134,-0.217 0.116,0.311 0.007,0.664 -0.279,0.857 -0.333,0.225 -0.785,0.137 -1.009,-0.196 -0.225,-0.333 -0.137,-0.785 0.196,-1.009 0.236,-0.159 0.531,-0.162 0.764,-0.031 -0.576,-0.536 -1.236,-0.472 -1.681,-0.171 -0.441,0.298 -0.693,0.716 -0.647,1.289 0.301,-0.099 0.644,0.008 0.83,0.285 0.225,0.332 0.137,0.784 -0.195,1.009 -0.334,0.225 -0.786,0.137 -1.01,-0.196 -0.185,-0.274 -0.159,-0.629 0.044,-0.872 -0.513,-0.257 -0.998,-0.183 -1.439,0.115 -0.446,0.301 -0.75,0.906 -0.467,1.642 -0.04,-0.28 0.073,-0.556 0.311,-0.716 0.333,-0.225 0.784,-0.137 1.009,0.196 0.225,0.333 0.137,0.785 -0.196,1.009 -0.288,0.195 -0.67,0.153 -0.91,-0.078 0.048,0.073 0.103,0.145 0.163,0.219 0.286,-0.069 0.594,0.042 0.768,0.301 0.225,0.333 0.137,0.785 -0.196,1.01 -0.333,0.224 -0.785,0.136 -1.009,-0.197 -0.174,-0.257 -0.16,-0.583 0.011,-0.825 -0.043,-0.077 -0.088,-0.15 -0.134,-0.217 0.116,0.311 0.007,0.664 -0.279,0.857 -0.333,0.225 -0.785,0.137 -1.009,-0.196 -0.225,-0.333 -0.137,-0.785 0.196,-1.01 0.236,-0.159 0.531,-0.161 0.763,-0.03 -0.575,-0.536 -1.234,-0.472 -1.68,-0.171 -0.442,0.297 -0.693,0.716 -0.647,1.289 0.301,-0.099 0.644,0.008 0.83,0.284 0.225,0.333 0.137,0.785 -0.196,1.01 -0.333,0.224 -0.785,0.137 -1.009,-0.197 -0.185,-0.273 -0.158,-0.628 0.044,-0.871 -0.514,-0.257 -0.998,-0.183 -1.439,0.115 -0.447,0.301 -0.75,0.906 -0.466,1.642 -0.041,-0.281 0.072,-0.556 0.31,-0.716 0.333,-0.225 0.784,-0.137 1.009,0.196 0.225,0.333 0.137,0.785 -0.196,1.009 -0.288,0.194 -0.67,0.153 -0.91,-0.078 0.048,0.073 0.102,0.144 0.162,0.219 0.288,-0.069 0.594,0.042 0.769,0.301 0.224,0.333 0.137,0.785 -0.196,1.009 -0.333,0.225 -0.785,0.137 -1.01,-0.196 -0.173,-0.257 -0.16,-0.583 0.012,-0.825 -0.044,-0.078 -0.089,-0.15 -0.135,-0.217 0.117,0.31 0.008,0.664 -0.278,0.857 -0.333,0.225 -0.785,0.137 -1.009,-0.196 -0.225,-0.333 -0.137,-0.785 0.196,-1.01 0.236,-0.159 0.531,-0.161 0.763,-0.03 -0.575,-0.536 -1.235,-0.472 -1.68,-0.172 -0.442,0.298 -0.693,0.717 -0.647,1.29 0.301,-0.099 0.644,0.008 0.83,0.284 0.224,0.333 0.137,0.785 -0.196,1.01 -0.333,0.224 -0.785,0.136 -1.01,-0.197 -0.184,-0.273 -0.158,-0.628 0.045,-0.871 -0.514,-0.257 -0.998,-0.183 -1.439,0.115 -0.446,0.301 -0.75,0.905 -0.467,1.642 -0.04,-0.281 0.073,-0.556 0.311,-0.717 0.332,-0.224 0.784,-0.136 1.009,0.197 0.225,0.333 0.137,0.785 -0.196,1.009 -0.288,0.194 -0.671,0.153 -0.91,-0.079 0.048,0.074 0.103,0.145 0.163,0.22 0.286,-0.069 0.593,0.042 0.768,0.301 0.225,0.333 0.136,0.784 -0.196,1.009 -0.333,0.225 -0.785,0.137 -1.01,-0.196 -0.174,-0.257 -0.159,-0.584 0.012,-0.825 -0.044,-0.078 -0.089,-0.15 -0.135,-0.218 0.116,0.311 0.008,0.665 -0.278,0.858 -0.333,0.224 -0.785,0.136 -1.009,-0.196 -0.225,-0.333 -0.137,-0.785 0.196,-1.01 0.236,-0.159 0.531,-0.161 0.763,-0.031 -0.575,-0.535 -1.235,-0.471 -1.68,-0.171 -0.442,0.298 -0.693,0.717 -0.647,1.29 0.301,-0.1 0.644,0.008 0.83,0.284 0.225,0.333 0.137,0.785 -0.196,1.009 -0.333,0.225 -0.785,0.137 -1.01,-0.196 -0.184,-0.274 -0.157,-0.628 0.045,-0.871 -0.514,-0.257 -0.998,-0.183 -1.439,0.115 -0.447,0.301 -0.75,0.905 -0.467,1.641 -0.04,-0.28 0.073,-0.555 0.31,-0.716 0.334,-0.224 0.785,-0.136 1.01,0.197 0.224,0.332 0.137,0.784 -0.196,1.009 -0.288,0.194 -0.671,0.153 -0.91,-0.079 0.048,0.073 0.102,0.145 0.162,0.22 0.287,-0.07 0.594,0.041 0.769,0.301 0.224,0.332 0.137,0.784 -0.197,1.009 l -4.048,-6.002 35.535,-23.968 z" style="fill:#000000;fill-opacity:1;fill-rule:nonzero;stroke:none" id="path6756"/></g><g id="g6762" transform="translate(223.0461,106.1366)"><path d="m 0,0 -2.608,-3.867 -35.528,23.964 2.608,3.866 c -0.128,-0.693 0.123,-1.389 0.687,-1.77 0.526,-0.357 1.066,-0.44 1.636,-0.248 0.065,-0.57 0.269,-1.036 0.782,-1.384 0.638,-0.432 1.326,-0.44 1.974,-0.023 -0.128,-0.694 0.12,-1.388 0.683,-1.769 0.528,-0.357 1.067,-0.44 1.638,-0.248 0.064,-0.57 0.269,-1.036 0.782,-1.384 0.636,-0.432 1.326,-0.439 1.973,-0.023 -0.128,-0.693 0.12,-1.388 0.684,-1.769 0.527,-0.357 1.066,-0.44 1.636,-0.248 0.065,-0.57 0.27,-1.036 0.782,-1.384 0.638,-0.432 1.327,-0.439 1.974,-0.023 -0.128,-0.693 0.12,-1.388 0.684,-1.769 0.527,-0.356 1.067,-0.439 1.637,-0.248 0.064,-0.57 0.269,-1.036 0.782,-1.384 0.637,-0.431 1.326,-0.439 1.973,-0.023 -0.128,-0.693 0.121,-1.387 0.683,-1.769 0.528,-0.356 1.068,-0.439 1.638,-0.248 0.064,-0.57 0.268,-1.036 0.782,-1.383 0.636,-0.431 1.324,-0.438 1.971,-0.022 C -10.275,6.15 -10.024,5.455 -9.461,5.073 -8.935,4.717 -8.394,4.634 -7.825,4.825 -7.76,4.256 -7.556,3.789 -7.043,3.442 -6.405,3.011 -5.718,3.004 -5.071,3.42 -5.199,2.727 -4.948,2.031 -4.386,1.65 -3.858,1.293 -3.318,1.21 -2.749,1.401 -2.684,0.832 -2.48,0.365 -1.966,0.018 -1.331,-0.411 -0.648,-0.416 0,0" style="fill:#159a34;fill-opacity:1;fill-rule:nonzero;stroke:none" id="path6760"/></g></g></g><g id="g6814" transform="matrix(0.35277777,0,0,-0.35277777,119.80508,214.5121)"><g id="g6812" clip-path="url(#clipPath710)"><g id="g6770" transform="translate(204.4201,119.515)"><path d="M 0,0 C 0.201,0.298 0.122,0.703 -0.176,0.904 -0.473,1.105 -0.878,1.026 -1.08,0.728 -1.28,0.43 -1.202,0.025 -0.904,-0.176 -0.606,-0.377 -0.201,-0.298 0,0" style="fill:#159a34;fill-opacity:1;fill-rule:nonzero;stroke:none" id="path6768"/></g><g id="g6774" transform="translate(206.1669,118.3365)"><path d="M 0,0 C 0.201,0.298 0.123,0.703 -0.175,0.904 -0.473,1.105 -0.878,1.026 -1.079,0.728 -1.28,0.43 -1.202,0.026 -0.903,-0.176 -0.605,-0.377 -0.2,-0.298 0,0" style="fill:#159a34;fill-opacity:1;fill-rule:nonzero;stroke:none" id="path6772"/></g><g id="g6778" transform="translate(206.8307,117.8889)"><path d="M 0,0 C 0.201,0.298 0.606,0.377 0.904,0.176 1.202,-0.026 1.281,-0.43 1.08,-0.728 0.879,-1.026 0.473,-1.105 0.176,-0.904 -0.122,-0.703 -0.2,-0.298 0,0" style="fill:#159a34;fill-opacity:1;fill-rule:nonzero;stroke:none" id="path6776"/></g><g id="g6782" transform="translate(209.4968,116.0911)"><path d="M 0,0 C 0.201,0.298 0.122,0.703 -0.176,0.904 -0.474,1.105 -0.879,1.026 -1.08,0.728 -1.281,0.43 -1.202,0.025 -0.904,-0.176 -0.606,-0.377 -0.201,-0.298 0,0" style="fill:#159a34;fill-opacity:1;fill-rule:nonzero;stroke:none" id="path6780"/></g><g id="g6786" transform="translate(211.2432,114.9127)"><path d="M 0,0 C 0.201,0.298 0.122,0.703 -0.175,0.904 -0.474,1.105 -0.878,1.026 -1.08,0.728 -1.28,0.43 -1.201,0.025 -0.903,-0.176 -0.606,-0.377 -0.201,-0.298 0,0" style="fill:#159a34;fill-opacity:1;fill-rule:nonzero;stroke:none" id="path6784"/></g><g id="g6790" transform="translate(211.9066,114.465)"><path d="M 0,0 C 0.201,0.298 0.606,0.377 0.904,0.176 1.202,-0.025 1.281,-0.43 1.08,-0.728 0.879,-1.026 0.474,-1.105 0.176,-0.904 -0.122,-0.703 -0.2,-0.298 0,0" style="fill:#159a34;fill-opacity:1;fill-rule:nonzero;stroke:none" id="path6788"/></g><g id="g6794" transform="translate(214.5726,112.6674)"><path d="M 0,0 C 0.201,0.298 0.122,0.703 -0.176,0.904 -0.474,1.105 -0.879,1.026 -1.08,0.728 -1.28,0.43 -1.202,0.025 -0.904,-0.176 -0.606,-0.377 -0.201,-0.298 0,0" style="fill:#159a34;fill-opacity:1;fill-rule:nonzero;stroke:none" id="path6792"/></g><g id="g6798" transform="translate(216.319,111.4888)"><path d="M 0,0 C 0.201,0.298 0.123,0.703 -0.175,0.904 -0.473,1.105 -0.878,1.026 -1.079,0.728 -1.28,0.43 -1.201,0.025 -0.903,-0.176 -0.605,-0.377 -0.201,-0.298 0,0" style="fill:#159a34;fill-opacity:1;fill-rule:nonzero;stroke:none" id="path6796"/></g><g id="g6802" transform="translate(216.9824,111.0413)"><path d="M 0,0 C 0.201,0.298 0.607,0.377 0.904,0.176 1.202,-0.025 1.282,-0.43 1.08,-0.728 0.879,-1.026 0.474,-1.105 0.176,-0.904 -0.122,-0.703 -0.2,-0.298 0,0" style="fill:#159a34;fill-opacity:1;fill-rule:nonzero;stroke:none" id="path6800"/></g><g id="g6806" transform="translate(199.3439,122.9388)"><path d="M 0,0 C 0.201,0.298 0.123,0.703 -0.176,0.904 -0.473,1.105 -0.878,1.026 -1.079,0.728 -1.28,0.43 -1.202,0.026 -0.904,-0.176 -0.605,-0.377 -0.2,-0.298 0,0" style="fill:#159a34;fill-opacity:1;fill-rule:nonzero;stroke:none" id="path6804"/></g><g id="g6810" transform="translate(201.0915,121.7604)"><path d="M 0,0 C 0.201,0.298 0.122,0.703 -0.176,0.904 -0.474,1.105 -0.878,1.026 -1.08,0.728 -1.28,0.43 -1.202,0.025 -0.904,-0.176 -0.606,-0.377 -0.201,-0.298 0,0" style="fill:#159a34;fill-opacity:1;fill-rule:nonzero;stroke:none" id="path6808"/></g></g></g><g id="g6826" transform="matrix(0.35277777,0,0,-0.35277777,119.80508,214.5121)"><g id="g6824" clip-path="url(#clipPath762)"><g id="g6818" transform="translate(201.7549,121.3129)"><path d="M 0,0 C 0.201,0.298 0.606,0.377 0.904,0.176 1.202,-0.026 1.28,-0.43 1.079,-0.728 0.879,-1.026 0.474,-1.105 0.176,-0.904 -0.122,-0.703 -0.201,-0.298 0,0" style="fill:#159a34;fill-opacity:1;fill-rule:nonzero;stroke:none" id="path6816"/></g><g id="g6822" transform="translate(194.268,126.3627)"><path d="M 0,0 C 0.201,0.298 0.122,0.703 -0.176,0.904 -0.473,1.105 -0.878,1.026 -1.08,0.728 -1.281,0.43 -1.202,0.025 -0.904,-0.176 -0.606,-0.377 -0.201,-0.298 0,0" style="fill:#159a34;fill-opacity:1;fill-rule:nonzero;stroke:none" id="path6820"/></g></g></g><g id="g6850" transform="matrix(0.35277777,0,0,-0.35277777,119.80508,214.5121)"><g id="g6848" clip-path="url(#clipPath778)"><g id="g6830" transform="translate(196.0152,125.1841)"><path d="M 0,0 C 0.201,0.298 0.122,0.703 -0.175,0.904 -0.474,1.105 -0.878,1.026 -1.079,0.728 -1.28,0.43 -1.202,0.026 -0.904,-0.176 -0.606,-0.377 -0.201,-0.298 0,0" style="fill:#159a34;fill-opacity:1;fill-rule:nonzero;stroke:none" id="path6828"/></g><g id="g6834" transform="translate(196.6786,124.7366)"><path d="M 0,0 C 0.201,0.298 0.606,0.377 0.904,0.176 1.202,-0.025 1.28,-0.43 1.08,-0.728 0.879,-1.026 0.474,-1.105 0.176,-0.904 -0.122,-0.703 -0.201,-0.298 0,0" style="fill:#159a34;fill-opacity:1;fill-rule:nonzero;stroke:none" id="path6832"/></g><g id="g6838" transform="translate(198.9937,125.2936)"><path d="M 0,0 C 0.298,-0.201 0.377,-0.606 0.176,-0.904 -0.026,-1.202 -0.43,-1.281 -0.728,-1.08 -1.026,-0.878 -1.105,-0.474 -0.904,-0.176 -0.703,0.122 -0.298,0.201 0,0" style="fill:#159a34;fill-opacity:1;fill-rule:nonzero;stroke:none" id="path6836"/></g><g id="g6842" transform="translate(204.0695,121.8697)"><path d="M 0,0 C 0.298,-0.201 0.377,-0.606 0.176,-0.904 -0.025,-1.202 -0.43,-1.28 -0.728,-1.079 -1.026,-0.878 -1.105,-0.474 -0.904,-0.176 -0.702,0.122 -0.298,0.201 0,0" style="fill:#159a34;fill-opacity:1;fill-rule:nonzero;stroke:none" id="path6840"/></g><g id="g6846" transform="translate(209.1454,118.4458)"><path d="m 0,0 c -0.298,0.201 -0.702,0.122 -0.903,-0.176 -0.201,-0.298 -0.123,-0.702 0.175,-0.903 0.299,-0.201 0.703,-0.123 0.904,0.175 C 0.377,-0.606 0.299,-0.201 0,0" style="fill:#159a34;fill-opacity:1;fill-rule:nonzero;stroke:none" id="path6844"/></g></g></g><g id="g6882" transform="matrix(0.35277777,0,0,-0.35277777,119.80508,214.5121)"><g id="g6880" clip-path="url(#clipPath806)"><g id="g6854" transform="translate(214.2216,115.022)"><path d="m 0,0 c -0.298,0.201 -0.702,0.122 -0.904,-0.176 -0.2,-0.298 -0.122,-0.702 0.176,-0.904 0.298,-0.201 0.703,-0.122 0.904,0.176 C 0.377,-0.606 0.298,-0.201 0,0" style="fill:#159a34;fill-opacity:1;fill-rule:nonzero;stroke:none" id="path6852"/></g><g id="g6858" transform="translate(219.2975,111.5981)"><path d="m 0,0 c -0.298,0.201 -0.702,0.122 -0.903,-0.176 -0.202,-0.298 -0.123,-0.702 0.175,-0.904 0.299,-0.2 0.703,-0.122 0.904,0.176 C 0.377,-0.606 0.299,-0.201 0,0" style="fill:#159a34;fill-opacity:1;fill-rule:nonzero;stroke:none" id="path6856"/></g><g id="g6862" transform="translate(223.6035,107.0318)"><path d="M 0,0 C -0.053,0.036 -0.1,0.078 -0.141,0.124 -0.775,-1.012 -1.745,-1.061 -2.367,-0.642 -2.83,-0.33 -3.102,0.122 -3.045,0.734 -3.083,0.75 -3.12,0.771 -3.154,0.794 -3.191,0.819 -3.223,0.845 -3.253,0.875 -3.799,0.594 -4.322,0.676 -4.784,0.989 -5.407,1.408 -5.724,2.326 -4.909,3.34 -4.965,3.36 -5.024,3.389 -5.077,3.424 -5.13,3.46 -5.177,3.502 -5.217,3.548 -5.852,2.412 -6.822,2.362 -7.444,2.782 -7.907,3.094 -8.178,3.546 -8.121,4.157 -8.159,4.174 -8.195,4.194 -8.23,4.218 -8.268,4.243 -8.299,4.269 -8.329,4.299 -8.875,4.017 -9.398,4.1 -9.86,4.412 c -0.623,0.42 -0.94,1.338 -0.125,2.352 -0.057,0.02 -0.115,0.048 -0.168,0.084 -0.053,0.036 -0.1,0.077 -0.14,0.123 -0.634,-1.135 -1.604,-1.185 -2.226,-0.765 -0.464,0.312 -0.735,0.763 -0.678,1.375 -0.038,0.017 -0.074,0.037 -0.109,0.061 -0.037,0.025 -0.069,0.051 -0.099,0.081 -0.546,-0.282 -1.069,-0.199 -1.531,0.113 -0.623,0.42 -0.941,1.338 -0.125,2.351 -0.057,0.021 -0.115,0.049 -0.167,0.084 -0.053,0.036 -0.101,0.078 -0.141,0.124 -0.635,-1.135 -1.604,-1.185 -2.227,-0.765 -0.463,0.312 -0.734,0.763 -0.677,1.375 -0.038,0.017 -0.074,0.037 -0.109,0.061 -0.037,0.025 -0.069,0.051 -0.099,0.081 -0.547,-0.282 -1.069,-0.199 -1.532,0.113 -0.622,0.42 -0.939,1.338 -0.124,2.351 -0.057,0.021 -0.115,0.049 -0.168,0.084 -0.053,0.036 -0.1,0.078 -0.14,0.124 -0.634,-1.135 -1.605,-1.185 -2.227,-0.765 -0.463,0.312 -0.734,0.763 -0.677,1.375 -0.037,0.017 -0.074,0.037 -0.109,0.061 -0.038,0.025 -0.069,0.051 -0.1,0.081 -0.546,-0.282 -1.068,-0.199 -1.531,0.113 -0.622,0.42 -0.939,1.338 -0.124,2.351 -0.057,0.02 -0.115,0.049 -0.168,0.084 -0.053,0.036 -0.1,0.078 -0.14,0.124 -0.635,-1.135 -1.605,-1.185 -2.227,-0.766 -0.463,0.313 -0.734,0.764 -0.677,1.376 -0.038,0.017 -0.074,0.037 -0.11,0.061 -0.036,0.024 -0.068,0.051 -0.099,0.08 -0.546,-0.281 -1.068,-0.198 -1.531,0.114 -0.622,0.419 -0.939,1.338 -0.124,2.351 -0.057,0.02 -0.115,0.049 -0.168,0.084 -0.053,0.036 -0.1,0.078 -0.14,0.124 -0.635,-1.136 -1.605,-1.185 -2.227,-0.766 -0.463,0.313 -0.734,0.764 -0.677,1.376 -0.038,0.016 -0.074,0.037 -0.11,0.06 -0.037,0.025 -0.068,0.051 -0.099,0.081 -0.546,-0.281 -1.068,-0.199 -1.531,0.113 -0.623,0.42 -0.939,1.338 -0.124,2.352 -0.057,0.02 -0.115,0.049 -0.168,0.084 l -0.402,-0.597 c -0.313,-0.757 -0.05,-1.6 0.572,-2.019 0.527,-0.355 1.052,-0.417 1.632,-0.188 0.031,-0.602 0.26,-1.089 0.787,-1.444 0.622,-0.42 1.504,-0.349 2.086,0.225 -0.312,-0.756 -0.051,-1.597 0.571,-2.017 0.527,-0.355 1.052,-0.417 1.632,-0.188 0.032,-0.601 0.261,-1.089 0.787,-1.444 0.623,-0.419 1.504,-0.349 2.087,0.226 -0.313,-0.757 -0.052,-1.598 0.57,-2.018 0.527,-0.355 1.052,-0.417 1.632,-0.187 0.032,-0.602 0.261,-1.09 0.787,-1.445 0.623,-0.419 1.504,-0.349 2.087,0.226 -0.312,-0.757 -0.052,-1.598 0.57,-2.018 0.527,-0.355 1.053,-0.417 1.632,-0.187 0.032,-0.602 0.261,-1.089 0.788,-1.444 0.621,-0.42 1.503,-0.35 2.086,0.225 -0.313,-0.757 -0.053,-1.598 0.57,-2.018 0.527,-0.355 1.053,-0.417 1.632,-0.187 0.032,-0.602 0.261,-1.089 0.787,-1.444 0.623,-0.42 1.502,-0.348 2.085,0.227 -0.312,-0.757 -0.05,-1.6 0.572,-2.019 0.527,-0.356 1.053,-0.418 1.632,-0.188 0.032,-0.602 0.26,-1.089 0.787,-1.444 0.622,-0.42 1.501,-0.348 2.085,0.227 -0.312,-0.757 -0.05,-1.6 0.572,-2.019 0.527,-0.356 1.053,-0.417 1.633,-0.188 0.031,-0.602 0.26,-1.089 0.786,-1.444 0.623,-0.42 1.505,-0.349 2.087,0.226 0,0 0.413,0.589 0.401,0.598" style="fill:#159a34;fill-opacity:1;fill-rule:nonzero;stroke:none" id="path6860"/></g><g id="g6866" transform="translate(186.5035,128.5783)"/><g id="g6870" transform="translate(186.5035,128.5783)"/><g id="g6874" transform="translate(185.2364,126.6994)"/><g id="g6878" transform="translate(185.2364,126.6994)"/></g></g><g id="g6972" transform="matrix(0.35277777,0,0,-0.35277777,119.80508,214.5121)"><g id="g6970" clip-path="url(#clipPath842)"><path d="m 190.778,108.164 h 27.53928 l -6.9e-4,-0.218 H 190.778 Z" style="fill:#000000;fill-opacity:1;fill-rule:nonzero;stroke:none" id="path6884" sodipodi:nodetypes="ccccc"/><g id="g6888" transform="translate(204.6003,92.9594)"><path d="M 0,0 C -7.634,0 -13.822,6.188 -13.822,13.822 V 33.463 H 13.821 V 13.822 C 13.821,6.188 7.633,0 0,0 m 0,0.218 c -7.513,0 -13.604,6.091 -13.604,13.604 V 33.245 H 13.604 V 13.822 C 13.604,6.309 7.513,0.218 0,0.218" style="fill:#000000;fill-opacity:1;fill-rule:evenodd;stroke:none" id="path6886"/></g><g id="g6892" transform="translate(201.7732,106.8932)"><path d="m 0,0 c 0.284,0.131 0.43,0.197 0.713,0.301 0.047,0.017 0.081,0.038 0.12,0.042 0.322,0.036 0.49,0.045 0.804,0.056 0.211,0.008 0.322,0.006 0.541,0.006 0.07,0 0.119,0.002 0.175,-0.04 C 2.54,0.224 2.673,0.109 2.877,-0.057 3.081,-0.222 3.196,-0.316 3.398,-0.483 3.38,-0.605 3.359,-0.673 3.308,-0.784 3.25,-0.908 3.206,-0.975 3.113,-1.076 c 0.132,0.1 0.207,0.215 0.3,0.38 0.053,0.095 0.073,0.15 0.113,0.257 0.017,0.044 0.045,0.068 0.113,0.045 0.435,-0.145 0.838,-0.287 1.396,-0.334 0.096,-0.008 0.139,-0.017 0.246,-0.014 0.051,0.002 0.099,-0.007 0.145,-0.028 0.251,-0.114 0.397,-0.183 0.634,-0.328 0.272,-0.168 0.526,-0.303 0.77,-0.57 0.215,-0.235 0.355,-0.341 0.632,-0.475 0.194,-0.093 0.283,-0.088 0.524,-0.17 0.041,-0.014 0.053,-0.028 0.068,-0.088 0.076,-0.297 0.105,-0.475 0.172,-0.779 0.067,-0.3 0.104,-0.47 0.171,-0.77 0.174,-0.2 0.291,-0.301 0.514,-0.445 0.18,-0.115 0.29,-0.17 0.49,-0.243 C 9.486,-5.114 9.515,-5.387 9.532,-5.87 9.543,-6.171 9.542,-6.342 9.527,-6.643 9.495,-6.764 9.454,-6.821 9.336,-6.901 9.261,-6.952 9.147,-6.963 9.088,-6.963 H 7.419 c -0.118,0.098 -0.16,0.227 -0.12,0.375 0.035,0.133 0.104,0.214 0.242,0.255 0.141,0.043 0.272,0.047 0.431,0.047 0,0.13 -0.025,0.314 -0.08,0.419 -0.037,0.072 -0.083,0.098 -0.15,0.144 -0.365,0.25 -0.552,0.394 -0.844,0.629 -0.178,0.143 -0.249,0.223 -0.399,0.376 -0.011,0.051 -0.017,0.08 -0.029,0.131 -0.007,0.03 -0.01,0.046 -0.016,0.076 0.036,0.053 0.054,0.085 0.079,0.145 0.035,0.082 0.049,0.132 0.059,0.22 C 6.563,-4.25 6.539,-4.307 6.485,-4.4 6.463,-4.437 6.451,-4.457 6.426,-4.491 6.491,-4.756 6.519,-4.908 6.553,-5.179 6.58,-5.397 6.589,-5.521 6.595,-5.74 6.454,-6.009 6.341,-6.173 6.153,-6.465 6.06,-6.611 5.924,-6.77 5.802,-6.901 5.735,-6.973 5.632,-6.963 5.536,-6.963 H 3.843 c -0.092,0.075 -0.14,0.155 -0.14,0.27 0,0.185 0.105,0.352 0.335,0.414 0.1,0.028 0.235,0.034 0.343,0.021 0.017,0.091 0.024,0.143 0.03,0.235 0.008,0.096 0,0.133 0.007,0.246 0.002,0.049 -0.009,0.081 -0.039,0.119 -0.114,0.148 -0.241,0.289 -0.338,0.505 -0.043,0.096 -0.064,0.152 -0.093,0.254 -0.277,0.033 -0.433,0.054 -0.709,0.097 -0.237,0.036 -0.371,0.058 -0.608,0.102 -0.199,0.155 -0.402,0.277 -0.575,0.325 -0.031,0.009 -0.062,0.009 -0.102,0.011 -0.034,0.062 -0.052,0.098 -0.076,0.165 -0.022,0.065 -0.043,0.15 -0.077,0.365 0.006,-0.261 0.057,-0.444 0.13,-0.652 0.078,-0.222 0.091,-0.28 0.173,-0.551 0.018,-0.061 0.013,-0.1 0,-0.162 C 2.033,-5.536 1.993,-5.685 1.901,-5.989 1.803,-6.312 1.73,-6.556 1.611,-6.804 1.578,-6.874 1.523,-6.963 1.45,-6.963 h -1.795 c -0.06,0.088 -0.103,0.215 -0.094,0.323 0.007,0.087 0.043,0.176 0.105,0.238 0.06,0.059 0.26,0.2 0.561,0.246 -0.003,0.329 -0.013,0.482 -0.017,0.79 -0.004,0.32 -0.004,0.501 0,0.821 -0.094,0.129 -0.109,0.176 -0.156,0.298 -0.049,0.127 -0.069,0.204 -0.088,0.34 -0.006,-0.118 0,-0.186 0.025,-0.3 0.031,-0.136 0.08,-0.227 0.134,-0.33 -0.247,-0.228 -0.397,-0.348 -0.674,-0.54 C -0.785,-5.24 -0.924,-5.325 -1.178,-5.459 -1.195,-5.577 -1.198,-5.612 -1.24,-5.683 -1.299,-5.781 -1.408,-5.85 -1.481,-5.85 H -2.95 c -0.102,0 -0.227,0.368 -0.115,0.488 0.233,0.251 0.36,0.396 0.566,0.668 0.163,0.215 0.267,0.373 0.393,0.568 0.109,0.169 0.349,0.24 0.589,0.363 0.212,0.109 0.336,0.162 0.562,0.24 0,0 0.031,0.19 -0.022,0.19 -0.056,-0.004 -0.212,-0.011 -0.34,0.014 -0.183,0.035 -0.316,0.075 -0.511,0.145 -0.195,0.07 -0.303,0.117 -0.487,0.213 -0.156,0.003 -0.245,0.008 -0.4,0.022 -0.144,0.014 -0.226,0.024 -0.368,0.048 0,0 -0.069,0.23 0.008,0.24 0.051,0.006 0.079,0.01 0.13,0.02 0.057,0.011 0.148,-0.014 0.145,0.033 -0.118,-0.006 -0.178,-0.009 -0.303,-0.012 -0.071,-0.002 -0.15,-0.002 -0.236,-0.005 -0.033,0 -0.121,0.093 -0.215,0.188 -0.1,0.104 -0.212,0.19 -0.215,0.239 -0.004,0.053 0.004,0.249 0.004,0.249 -0.037,0.051 -0.003,0.119 0.053,0.112 0.101,0.025 0.267,0.061 0.267,0.061 0.126,0.116 0.223,0.198 0.354,0.304 0.149,0.119 0.233,0.178 0.389,0.281 0.056,0.248 0.065,0.436 0.22,0.469 0.216,0.047 0.438,0.085 0.784,0.093 0.043,0.133 0.089,0.219 0.208,0.292 0.152,0.093 0.388,0.095 0.541,0.09 0.137,-0.161 0.253,-0.349 0.288,-0.614 0.023,-0.168 -0.013,-0.285 -0.059,-0.43 0.036,0.054 0.06,0.085 0.077,0.147 0.077,0.285 -0.032,0.646 -0.104,0.862 C -0.756,-0.246 -0.379,-0.175 0,0" style="fill:#000000;fill-opacity:1;fill-rule:nonzero;stroke:none" id="path6890"/></g><g id="g6896" transform="translate(200.8746,103.6549)"/><g id="g6900" transform="translate(209.2635,100.2931)"><path d="m 0,0 c -0.003,-0.076 0.026,-0.161 0.108,-0.163 0.032,-0.001 0.036,0.011 0.051,0.028 0.023,0.024 0.01,0.051 0.022,0.082 0.021,0.057 0.051,0.069 0.08,0.134 C 0.273,0.106 0.25,0.14 0.222,0.141 0.183,0.143 0.167,0.144 0.119,0.152 0.053,0.163 0.004,0.075 0,0" style="fill:#ffffff;fill-opacity:1;fill-rule:nonzero;stroke:none" id="path6898"/></g><g id="g6904" transform="translate(209.5291,100.2931)"><path d="m 0,0 c -0.004,-0.076 0.025,-0.161 0.108,-0.163 0.032,-0.001 0.036,0.011 0.051,0.028 0.022,0.024 0.009,0.051 0.022,0.082 0.021,0.057 0.051,0.069 0.08,0.134 C 0.273,0.106 0.25,0.14 0.222,0.141 0.182,0.143 0.167,0.144 0.12,0.152 0.053,0.163 0.003,0.075 0,0" style="fill:#ffffff;fill-opacity:1;fill-rule:nonzero;stroke:none" id="path6902"/></g><g id="g6908" transform="translate(205.695,100.2931)"><path d="m 0,0 c -0.003,-0.076 0.026,-0.161 0.108,-0.163 0.032,-0.001 0.036,0.011 0.052,0.028 0.022,0.024 0.009,0.051 0.021,0.082 0.021,0.057 0.051,0.069 0.08,0.134 C 0.273,0.106 0.25,0.14 0.222,0.141 0.183,0.143 0.167,0.144 0.12,0.152 0.053,0.163 0.004,0.075 0,0" style="fill:#ffffff;fill-opacity:1;fill-rule:nonzero;stroke:none" id="path6906"/></g><g id="g6912" transform="translate(205.9606,100.2931)"><path d="m 0,0 c -0.004,-0.076 0.026,-0.161 0.108,-0.163 0.032,-0.001 0.036,0.011 0.05,0.028 0.023,0.024 0.011,0.051 0.023,0.082 0.021,0.057 0.051,0.069 0.08,0.134 C 0.273,0.106 0.25,0.14 0.222,0.141 0.182,0.143 0.167,0.144 0.12,0.152 0.053,0.163 0.004,0.075 0,0" style="fill:#ffffff;fill-opacity:1;fill-rule:nonzero;stroke:none" id="path6910"/></g><g id="g6916" transform="translate(201.5228,100.2931)"><path d="m 0,0 c -0.004,-0.076 0.026,-0.161 0.108,-0.163 0.032,-0.001 0.036,0.011 0.051,0.028 0.023,0.024 0.01,0.051 0.022,0.082 0.021,0.057 0.051,0.069 0.08,0.134 C 0.273,0.106 0.25,0.14 0.222,0.141 0.183,0.143 0.167,0.144 0.12,0.152 0.053,0.163 0.004,0.075 0,0" style="fill:#ffffff;fill-opacity:1;fill-rule:nonzero;stroke:none" id="path6914"/></g><g id="g6920" transform="translate(201.7884,100.2931)"><path d="m 0,0 c -0.004,-0.076 0.025,-0.161 0.108,-0.163 0.032,-0.001 0.036,0.011 0.051,0.028 0.023,0.024 0.009,0.051 0.022,0.082 0.021,0.057 0.051,0.069 0.08,0.134 C 0.273,0.106 0.25,0.14 0.222,0.141 0.183,0.143 0.167,0.144 0.119,0.152 0.053,0.163 0.004,0.075 0,0" style="fill:#ffffff;fill-opacity:1;fill-rule:nonzero;stroke:none" id="path6918"/></g><g id="g6924" transform="translate(198.8669,101.3473)"><path d="m 0,0 c -0.004,-0.076 0.025,-0.161 0.108,-0.163 0.032,-0.001 0.036,0.011 0.051,0.028 0.022,0.024 0.009,0.051 0.022,0.082 0.021,0.057 0.05,0.069 0.08,0.134 C 0.273,0.106 0.25,0.14 0.222,0.141 0.182,0.143 0.167,0.144 0.119,0.152 0.052,0.163 0.003,0.075 0,0" style="fill:#ffffff;fill-opacity:1;fill-rule:nonzero;stroke:none" id="path6922"/></g><g id="g6928" transform="translate(199.1321,101.3473)"><path d="m 0,0 c -0.004,-0.076 0.026,-0.161 0.108,-0.163 0.032,-0.001 0.036,0.011 0.051,0.028 0.022,0.024 0.01,0.051 0.022,0.082 0.021,0.057 0.051,0.069 0.08,0.134 C 0.273,0.106 0.25,0.14 0.222,0.141 0.183,0.143 0.167,0.144 0.12,0.152 0.053,0.163 0.004,0.075 0,0" style="fill:#ffffff;fill-opacity:1;fill-rule:nonzero;stroke:none" id="path6926"/></g><g id="g6932" transform="translate(198.9707,101.2393)"><path d="m 0,0 c 0.008,0.041 0.015,0.064 0.034,0.102 0.019,0.04 0.033,0.061 0.062,0.094 0,0 -0.065,-0.002 -0.104,0.01 C -0.038,0.182 -0.051,0.157 -0.055,0.118 -0.059,0.067 -0.049,0.016 0,0" style="fill:#ffffff;fill-opacity:1;fill-rule:evenodd;stroke:none" id="path6930"/></g><g id="g6936" transform="translate(199.2363,101.2393)"><path d="m 0,0 c 0.007,0.041 0.015,0.064 0.033,0.102 0.02,0.04 0.034,0.061 0.063,0.094 0,0 -0.065,-0.002 -0.104,0.01 C -0.038,0.182 -0.051,0.157 -0.055,0.118 -0.06,0.067 -0.049,0.016 0,0" style="fill:#ffffff;fill-opacity:1;fill-rule:evenodd;stroke:none" id="path6934"/></g><g id="g6940" transform="translate(201.627,100.1851)"><path d="m 0,0 c 0.007,0.041 0.015,0.064 0.034,0.102 0.019,0.04 0.033,0.061 0.062,0.094 0,0 -0.064,-0.002 -0.104,0.01 C -0.038,0.181 -0.051,0.157 -0.055,0.118 -0.06,0.067 -0.049,0.016 0,0" style="fill:#ffffff;fill-opacity:1;fill-rule:evenodd;stroke:none" id="path6938"/></g><g id="g6944" transform="translate(201.8922,100.1851)"><path d="m 0,0 c 0.008,0.041 0.016,0.064 0.033,0.102 0.02,0.04 0.034,0.061 0.063,0.094 0,0 -0.064,-0.002 -0.104,0.01 C -0.038,0.181 -0.051,0.157 -0.055,0.118 -0.06,0.067 -0.049,0.016 0,0" style="fill:#ffffff;fill-opacity:1;fill-rule:evenodd;stroke:none" id="path6942"/></g><g id="g6948" transform="translate(205.7992,100.1851)"><path d="m 0,0 c 0.008,0.041 0.015,0.064 0.034,0.102 0.019,0.04 0.033,0.061 0.062,0.094 0,0 -0.064,-0.002 -0.104,0.01 C -0.038,0.181 -0.051,0.157 -0.055,0.118 -0.059,0.067 -0.049,0.016 0,0" style="fill:#ffffff;fill-opacity:1;fill-rule:evenodd;stroke:none" id="path6946"/></g><g id="g6952" transform="translate(206.0648,100.1851)"><path d="m 0,0 c 0.007,0.041 0.015,0.064 0.034,0.102 0.018,0.04 0.033,0.061 0.062,0.094 0,0 -0.064,-0.002 -0.104,0.01 C -0.038,0.181 -0.051,0.157 -0.055,0.118 -0.06,0.067 -0.049,0.016 0,0" style="fill:#ffffff;fill-opacity:1;fill-rule:evenodd;stroke:none" id="path6950"/></g><g id="g6956" transform="translate(209.3677,100.1851)"><path d="m 0,0 c 0.008,0.041 0.015,0.064 0.034,0.102 0.019,0.04 0.032,0.061 0.062,0.094 0,0 -0.064,-0.002 -0.104,0.01 C -0.038,0.181 -0.051,0.157 -0.055,0.118 -0.059,0.067 -0.05,0.016 0,0" style="fill:#ffffff;fill-opacity:1;fill-rule:evenodd;stroke:none" id="path6954"/></g><g id="g6960" transform="translate(209.6329,100.1851)"><path d="m 0,0 c 0.008,0.041 0.015,0.064 0.034,0.102 0.019,0.04 0.033,0.061 0.062,0.094 0,0 -0.065,-0.002 -0.103,0.01 C -0.038,0.181 -0.051,0.157 -0.055,0.118 -0.059,0.067 -0.049,0.016 0,0" style="fill:#ffffff;fill-opacity:1;fill-rule:evenodd;stroke:none" id="path6958"/></g><g id="g6964" transform="translate(199.5775,105.7453)"><path d="m 0,0 c -0.046,-0.078 -0.06,-0.138 -0.051,-0.228 0.012,-0.122 0.058,-0.2 0.157,-0.271 l -0.001,0.096 c 0.027,-0.002 0.043,-0.002 0.07,0 0.045,0.004 0.07,0.01 0.112,0.026 C 0.218,-0.339 0.182,-0.309 0.13,-0.25 0.058,-0.167 0.026,-0.107 0,0" style="fill:#ffffff;fill-opacity:1;fill-rule:nonzero;stroke:none" id="path6962"/></g><g id="g6968" transform="translate(199.5837,105.5959)"><path d="M 0,0 C 0.014,-0.043 0.027,-0.066 0.053,-0.102 0.086,-0.147 0.112,-0.17 0.159,-0.199 0.133,-0.204 0.118,-0.205 0.092,-0.202 0.069,-0.201 0.056,-0.198 0.034,-0.191 0.023,-0.17 0.018,-0.158 0.012,-0.136 -0.003,-0.085 -0.006,-0.053 0,0" style="fill:#ffffff;fill-opacity:1;fill-rule:nonzero;stroke:none" id="path6966"/></g></g></g></g><path id="path36" style="color:#000000;fill:#ffffff;-inkscape-stroke:none;paint-order:fill markers stroke" d="m 18.425232,231.83443 v 0.17932 l 38.93044,26.34567 0.553455,0.37414 h 0.265617 l -0.735356,-0.49713 z"/><path style="color:#000000;fill:#000000;-inkscape-stroke:none;paint-order:fill markers stroke" d="m 18.302734,231.62891 -0.05664,0.084 40.216797,27.21484 0.05469,-0.084 z" id="path37"/><path id="path38" style="color:#000000;fill:#ffffff;-inkscape-stroke:none;paint-order:fill markers stroke" d="m 18.425232,232.69691 v 0.1819 l 36.778117,24.88685 1.428853,0.9679 h 0.267684 l -1.612821,-1.09089 z" sodipodi:nodetypes="ccccccc"/><path style="fill:none;stroke:#000000;stroke-width:0.1;stroke-linejoin:miter;stroke-dasharray:none;stroke-opacity:1;paint-order:fill markers stroke" d="m 18.290899,232.84804 36.636442,24.79277 1.850094,1.252" id="path39" sodipodi:nodetypes="ccc"/><path id="path43" style="color:#000000;opacity:0.988976;fill:#ffffff;-inkscape-stroke:none;paint-order:fill markers stroke" d="m 18.425232,233.49583 v 0.52399 l 0.492993,1.20303 2.702678,0.0233 1.025777,2.5001 2.702677,0.0233 1.025777,2.5001 2.701127,0.0212 1.027328,2.50217 2.701127,0.0217 1.02526,2.49959 2.703195,0.0238 1.02526,2.49959 2.703194,0.0238 1.025261,2.5001 2.703194,0.0233 1.025777,2.5001 2.702677,0.0212 1.025778,2.50011 2.701127,0.0233 1.02526,2.50011 2.703194,0.0232 0.320911,0.78083 h 0.216524 l -0.402559,-0.97978 -2.703194,-0.0233 -1.025261,-2.5001 -2.701644,-0.0217 -1.027327,-2.50165 -2.701127,-0.0217 -1.025261,-2.5001 -2.703194,-0.0233 -1.02526,-2.5001 -2.703195,-0.0233 -1.02526,-2.5001 -2.703194,-0.0212 -1.025261,-2.50217 -2.701127,-0.0217 -1.027327,-2.49959 -2.701127,-0.0238 -1.025777,-2.5001 -2.703195,-0.0233 -1.02526,-2.50011 -2.703194,-0.0212 z"/><path style="opacity:0.988976;fill:none;stroke:#000000;stroke-width:0.2;stroke-linejoin:miter;stroke-dasharray:none;stroke-opacity:1;paint-order:fill markers stroke" d="m 19.711834,235.61551 0.633074,1.516 1.642706,0.0241 -0.633081,-1.51601 z" id="path44"/><path id="path42" style="opacity:0.988976;fill:none;stroke:#000000;stroke-width:0.2;stroke-linejoin:miter;stroke-dasharray:none;stroke-opacity:1;paint-order:fill markers stroke" d="m 18.267501,235.10162 0.718155,0.0225 1.025607,2.50045 2.70253,0.0225 1.025599,2.50045 2.702529,0.0225 1.025608,2.50045 2.702521,0.0225 v 0 l 1.025599,2.50045 2.702529,0.0225 1.025607,2.50045 2.70253,0.0225 1.025599,2.50044 2.702529,0.0225 1.025608,2.50045 2.702521,0.0225 1.025599,2.50044 2.702529,0.0225 1.025608,2.50045 2.702529,0.0225 0.184779,0.4505 0.250548,0.61084" sodipodi:nodetypes="ccccccccccccccccccccccc"/><path id="path45" style="color:#000000;opacity:0.988976;fill:#f6f5f4;-inkscape-stroke:none;paint-order:fill markers stroke" d="m 19.71118,235.61507 8.28e-4,5.6e-4 0.300863,0.2036 1.209138,0.0177 0.464253,1.11473 0.301294,0.20389 0.0017,0.001 -0.633315,-1.51678 z"/><path id="path40" style="color:#000000;fill:#ffffff;-inkscape-stroke:none;paint-order:fill markers stroke" d="m 18.425232,236.61191 v 0.18191 l 32.42076,21.93974 h 0.268717 z"/><path style="opacity:0.988976;fill:none;stroke:#000000;stroke-width:0.2;stroke-linejoin:miter;stroke-dasharray:none;stroke-opacity:1;paint-order:fill markers stroke" d="m 23.439962,238.13843 0.633074,1.516 1.642707,0.0241 -0.633082,-1.51601 z" id="path46"/><path style="opacity:0.988976;fill:none;stroke:#000000;stroke-width:0.2;stroke-linejoin:miter;stroke-dasharray:none;stroke-opacity:1;paint-order:fill markers stroke" d="m 27.168091,240.66134 0.633074,1.516 1.642706,0.0241 -0.633081,-1.51601 z" id="path47"/><path style="opacity:0.988976;fill:none;stroke:#000000;stroke-width:0.2;stroke-linejoin:miter;stroke-dasharray:none;stroke-opacity:1;paint-order:fill markers stroke" d="m 30.896228,243.18427 0.633073,1.51599 1.642707,0.0241 -0.633082,-1.516 z" id="path48"/><path style="opacity:0.988976;fill:none;stroke:#000000;stroke-width:0.2;stroke-linejoin:miter;stroke-dasharray:none;stroke-opacity:1;paint-order:fill markers stroke" d="m 34.624356,245.70718 0.633074,1.516 1.642707,0.0241 -0.633082,-1.51601 z" id="path49"/><path style="opacity:0.988976;fill:none;stroke:#000000;stroke-width:0.2;stroke-linejoin:miter;stroke-dasharray:none;stroke-opacity:1;paint-order:fill markers stroke" d="m 38.352485,248.2301 0.633073,1.51599 1.642707,0.0241 -0.633082,-1.516 z" id="path50"/><path style="opacity:0.988976;fill:none;stroke:#000000;stroke-width:0.2;stroke-linejoin:miter;stroke-dasharray:none;stroke-opacity:1;paint-order:fill markers stroke" d="m 42.080613,250.75301 0.633074,1.516 1.642707,0.0241 -0.633082,-1.51601 z" id="path51"/><path style="opacity:0.988976;fill:none;stroke:#000000;stroke-width:0.2;stroke-linejoin:miter;stroke-dasharray:none;stroke-opacity:1;paint-order:fill markers stroke" d="m 45.80875,253.27593 0.633074,1.516 1.642706,0.0241 L 47.451449,253.3 Z" id="path52"/><path style="opacity:0.988976;fill:none;stroke:#000000;stroke-width:0.2;stroke-linejoin:miter;stroke-dasharray:none;stroke-opacity:1;paint-order:fill markers stroke" d="m 49.536879,255.79885 0.633073,1.516 1.642707,0.0241 -0.633082,-1.516 z" id="path53"/><path style="opacity:0.988976;fill:none;stroke:#000000;stroke-width:0.2;stroke-linejoin:miter;stroke-dasharray:none;stroke-opacity:1;paint-order:fill markers stroke" d="m 53.265007,258.32176 0.241787,0.579 v 0 l 1.647387,0.0353 -0.02291,-0.0549 -0.223565,-0.53536 z" id="path54" sodipodi:nodetypes="ccccccc"/><path id="path367" style="color:#000000;opacity:0.988976;fill:#f6f5f4;-inkscape-stroke:none;paint-order:fill markers stroke" d="m 53.263932,258.32118 0.001,5.2e-4 0.300757,0.20361 1.209228,0.0176 0.07958,0.19068 h 0.216007 l -0.161747,-0.38757 z"/><path id="path56" style="color:#000000;opacity:0.988976;fill:#f6f5f4;-inkscape-stroke:none;paint-order:fill markers stroke" d="m 49.535769,255.79809 8.28e-4,5.7e-4 0.300863,0.2036 1.209138,0.0177 0.464253,1.11473 0.301294,0.20389 0.0017,0.001 -0.633315,-1.51679 z"/><path id="path57" style="color:#000000;opacity:0.988976;fill:#f6f5f4;-inkscape-stroke:none;paint-order:fill markers stroke" d="m 45.807649,253.27519 8.28e-4,5.6e-4 0.300863,0.2036 1.209138,0.0177 0.464253,1.11472 0.301294,0.20389 0.0017,0.001 L 47.452367,253.3 Z"/><path id="path58" style="color:#000000;opacity:0.988976;fill:#f6f5f4;-inkscape-stroke:none;paint-order:fill markers stroke" d="m 42.079537,250.75228 8.28e-4,5.6e-4 0.300863,0.2036 1.209138,0.0177 0.464253,1.11473 0.301294,0.20389 0.0017,0.001 -0.633315,-1.51678 z"/><path id="path59" style="color:#000000;opacity:0.988976;fill:#f6f5f4;-inkscape-stroke:none;paint-order:fill markers stroke" d="m 38.351416,248.22937 8.29e-4,5.6e-4 0.300863,0.2036 1.209138,0.0177 0.464253,1.11473 0.301294,0.20389 0.0017,0.001 -0.633314,-1.51678 z"/><path id="path60" style="color:#000000;opacity:0.988976;fill:#f6f5f4;-inkscape-stroke:none;paint-order:fill markers stroke" d="m 34.623304,245.70647 8.29e-4,5.6e-4 0.300863,0.2036 1.209138,0.0177 0.464253,1.11472 0.301294,0.2039 0.0017,0.001 -0.633314,-1.51679 z"/><path id="path61" style="color:#000000;opacity:0.988976;fill:#f6f5f4;-inkscape-stroke:none;paint-order:fill markers stroke" d="m 30.895184,243.18356 8.28e-4,5.6e-4 0.300864,0.2036 1.209138,0.0177 0.464253,1.11473 0.301294,0.20389 0.0017,0.001 -0.633314,-1.51679 z"/><path id="path62" style="color:#000000;opacity:0.988976;fill:#f6f5f4;-inkscape-stroke:none;paint-order:fill markers stroke" d="m 27.167072,240.66066 8.28e-4,5.6e-4 0.300864,0.2036 1.209138,0.0177 0.464253,1.11473 0.301294,0.20389 0.0017,0.001 -0.633314,-1.51679 z"/><path id="path63" style="color:#000000;opacity:0.988976;fill:#f6f5f4;-inkscape-stroke:none;paint-order:fill markers stroke" d="m 23.438952,238.13775 8.28e-4,5.6e-4 0.300864,0.2036 1.209138,0.0177 0.464253,1.11472 0.301294,0.20389 0.0017,10e-4 -0.633315,-1.51679 z"/><path style="fill:none;stroke:#000000;stroke-width:0.1;stroke-linejoin:miter;stroke-dasharray:none;stroke-opacity:1;paint-order:fill markers stroke" d="m 18.238325,236.42495 33.160881,22.44077 v 0" id="path41" sodipodi:nodetypes="ccc"/><path id="path351" style="opacity:0.988976;fill:#ffffff;stroke:none;stroke-width:0.1;stroke-linejoin:miter;stroke-dasharray:none;stroke-opacity:1;paint-order:fill markers stroke" d="m 20.782194,231.67061 c 0.02276,0.38621 0.124187,0.75714 0.29869,1.08676 h 5.17e-4 l 0.07648,-0.0444 v -0.001 c -0.172461,-0.31625 -0.276455,-0.67177 -0.30024,-1.04128 z m 3.571358,2.15078 -0.04547,0.17001 c 1.58e-4,-5e-5 3.59e-4,6e-5 5.17e-4,0 0.0497,0.44261 0.156718,0.84327 0.3545,1.19941 l 0.06563,-0.0367 -5.17e-4,-0.003 c -0.230566,-0.38812 -0.347427,-0.83193 -0.374137,-1.32757 z m 4.310848,1.82831 -0.223242,0.45217 c -0.116577,0.63116 -0.02389,1.26266 0.255282,1.79007 l 0.07493,-0.0434 -5.16e-4,-0.006 c -0.348204,-0.64113 -0.415292,-1.44405 -0.105937,-2.19315 z m 3.303675,3.30832 -0.04599,0.1695 -5.17e-4,0.002 c 0.05058,0.44225 0.158308,0.8425 0.35605,1.19838 l 0.06511,-0.0367 -0.0016,-0.005 c -0.2294,-0.38725 -0.345194,-0.83028 -0.37207,-1.32499 z m 4.310848,1.82832 c -5.26e-4,5.1e-4 -10e-4,0.001 -0.0016,0.002 l -0.222725,0.44958 -10e-4,0.003 c 8.58e-4,-5.5e-4 0.0017,-10e-4 0.0026,-0.002 -0.116502,0.63076 -0.02436,1.26198 0.254248,1.78903 l 0.07493,-0.0434 -5.17e-4,-0.006 c -0.347111,-0.64051 -0.413409,-1.44232 -0.105936,-2.19056 z m 3.303157,3.3078 -0.04547,0.17002 c 3.15e-4,-1.1e-4 7.18e-4,1.1e-4 10e-4,0 0.0497,0.44261 0.156718,0.84327 0.354501,1.19941 l 0.06511,-0.0367 -0.0021,-0.008 c -0.228488,-0.38572 -0.344572,-0.82676 -0.371554,-1.31982 z m 4.310331,1.82883 c -0.001,0.001 -0.0021,0.002 -0.0031,0.003 l -0.220659,0.44701 -0.001,0.004 c 0.0011,-6.8e-4 0.002,-0.001 0.0031,-0.002 -0.116458,0.63049 -0.02385,1.26101 0.254248,1.788 l 0.0739,-0.0429 v -0.005 c -0.347222,-0.63998 -0.413501,-1.44074 -0.105937,-2.1885 z m 3.303675,3.30781 -0.04548,0.1695 v 5.2e-4 l 0.0016,-5.2e-4 c 0.04973,0.44286 0.156678,0.84333 0.3545,1.19941 l 0.0646,-0.0362 -0.0026,-0.008 c -0.227547,-0.38484 -0.343179,-0.82474 -0.37052,-1.3162 z m 4.309814,1.82625 -0.223759,0.45113 v 5.2e-4 c -3.1e-5,1.7e-4 3.1e-5,3.5e-4 0,5.2e-4 -0.116173,0.63108 -0.02288,1.26188 0.256315,1.78903 l 0.07441,-0.0429 -5.16e-4,-0.008 c -0.347056,-0.64084 -0.413907,-1.4429 -0.106454,-2.19056 z m 3.304708,3.30987 -0.04548,0.17002 c 0.0505,0.44208 0.157739,0.84261 0.355534,1.19889 l 0.0646,-0.0362 -0.0021,-0.008 c -0.227104,-0.38435 -0.341987,-0.82372 -0.369487,-1.31465 z m 4.309298,1.82521 -0.223759,0.45217 c 1.26e-4,-8e-5 3.9e-4,8e-5 5.16e-4,0 -0.116495,0.63072 -0.02224,1.26176 0.257349,1.78904 l 0.07286,-0.0424 -5.17e-4,-0.0103 c -0.346481,-0.64035 -0.413424,-1.44153 -0.105937,-2.1885 z"/></g></g></svg>